STARTFONT 2.1
FONT -Daewoo-Mincho-Medium-R-Normal--24-170-100-100-C-240-ISO10646-1
SIZE 17 100 100
FONTBOUNDINGBOX 24 24 0 -2
COMMENT "Generated by fontforge, http://fontforge.sourceforge.net"
STARTPROPERTIES 20
FONTNAME_REGISTRY ""
FOUNDRY "Daewoo"
FAMILY_NAME "Mincho"
WEIGHT_NAME "Medium"
SLANT "R"
SETWIDTH_NAME "Normal"
ADD_STYLE_NAME ""
PIXEL_SIZE 24
POINT_SIZE 170
RESOLUTION_X 100
RESOLUTION_Y 100
SPACING "C"
AVERAGE_WIDTH 240
CHARSET_REGISTRY "ISO10646"
CHARSET_ENCODING "1"
COPYRIGHT "Copyright (c) 1987, 1988 Daewoo Electronics Co.,Ltd."
WEIGHT 10
RESOLUTION 138
X_HEIGHT 0
QUAD_WIDTH 24
ENDPROPERTIES
CHARS 8224
STARTCHAR J222e
ENCODING 161
SWIDTH 1059 0
DWIDTH 24 0
BBX 4 20 10 1
BITMAP
60
F0
F0
60
00
00
60
60
60
60
60
60
60
F0
F0
F0
F0
F0
F0
60
ENDCHAR
STARTCHAR J2234
ENCODING 164
SWIDTH 1059 0
DWIDTH 24 0
BBX 18 17 3 2
BITMAP
6000C0
300180
1BFB00
0E0E00
180300
300180
300180
300180
300180
300180
300180
300180
180300
1E0E00
33FB00
600180
C000C0
ENDCHAR
STARTCHAR J2157
ENCODING 167
SWIDTH 1059 0
DWIDTH 24 0
BBX 11 20 6 1
BITMAP
1F00
71C0
C060
C0E0
C040
7000
1E00
3380
60C0
C060
C060
60C0
3980
0F00
01C0
4060
E060
C060
71C0
1F00
ENDCHAR
STARTCHAR J2127
ENCODING 168
SWIDTH 1059 0
DWIDTH 24 0
BBX 13 4 5 17
BITMAP
6030
F078
F078
6030
ENDCHAR
STARTCHAR J2823
ENCODING 170
SWIDTH 1059 0
DWIDTH 24 0
BBX 19 15 2 -1
BITMAP
07F000
1C1800
180C00
000C00
000C00
00FC00
070C00
180C00
300C00
300C00
300C80
183C80
07C700
000000
FFFFE0
ENDCHAR
STARTCHAR J2129
ENCODING 173
SWIDTH 1059 0
DWIDTH 24 0
BBX 7 1 8 10
BITMAP
FE
ENDCHAR
STARTCHAR J2146
ENCODING 176
SWIDTH 1059 0
DWIDTH 24 0
BBX 5 4 1 17
BITMAP
70
88
88
70
ENDCHAR
STARTCHAR J213e
ENCODING 177
SWIDTH 1059 0
DWIDTH 24 0
BBX 16 16 4 3
BITMAP
0180
0180
0180
0180
0180
0180
FFFF
0180
0180
0180
0180
0180
0180
0000
0000
FFFF
ENDCHAR
STARTCHAR J2977
ENCODING 178
SWIDTH 1059 0
DWIDTH 24 0
BBX 8 9 1 13
BITMAP
7E
C3
C3
06
1C
30
61
C1
FF
ENDCHAR
STARTCHAR J2978
ENCODING 179
SWIDTH 1059 0
DWIDTH 24 0
BBX 8 9 1 13
BITMAP
7E
C3
C3
0E
0E
03
C3
C3
7E
ENDCHAR
STARTCHAR J2225
ENCODING 180
SWIDTH 1059 0
DWIDTH 24 0
BBX 5 6 9 15
BITMAP
18
38
30
60
40
80
ENDCHAR
STARTCHAR J2252
ENCODING 182
SWIDTH 1059 0
DWIDTH 24 0
BBX 20 20 2 1
BITMAP
000630
3FF630
600630
C00630
C00630
C00630
C00630
C00630
C00630
600630
3FF630
000630
000630
000630
000630
000630
000630
000630
000630
000630
ENDCHAR
STARTCHAR J2124
ENCODING 183
SWIDTH 1059 0
DWIDTH 24 0
BBX 4 4 10 9
BITMAP
60
F0
F0
60
ENDCHAR
STARTCHAR J222c
ENCODING 184
SWIDTH 1059 0
DWIDTH 24 0
BBX 5 8 9 0
BITMAP
C0
60
30
18
18
30
60
C0
ENDCHAR
STARTCHAR J2976
ENCODING 185
SWIDTH 1059 0
DWIDTH 24 0
BBX 4 9 1 13
BITMAP
60
E0
60
60
60
60
60
60
F0
ENDCHAR
STARTCHAR J282c
ENCODING 186
SWIDTH 1059 0
DWIDTH 24 0
BBX 16 15 4 -1
BITMAP
03C0
0C30
1818
300C
300C
300C
300C
300C
300C
300C
1818
0C30
03C0
0000
FFFF
ENDCHAR
STARTCHAR J2879
ENCODING 188
SWIDTH 1059 0
DWIDTH 24 0
BBX 23 22 0 -1
BITMAP
180006
78000C
180018
180030
180060
1800C0
180180
180300
180630
180C70
181870
7E30F0
0061B0
00C330
018330
030630
060C30
0C1FFE
180030
300030
600030
C000FC
ENDCHAR
STARTCHAR J2876
ENCODING 189
SWIDTH 1059 0
DWIDTH 24 0
BBX 23 22 0 -1
BITMAP
180006
78000C
180018
180030
180060
1800C0
180180
180300
180600
180C00
1818FC
7E3386
006306
00C006
01800C
030018
060070
0C00C0
180182
300302
6003FE
C003FE
ENDCHAR
STARTCHAR J287a
ENCODING 190
SWIDTH 1059 0
DWIDTH 24 0
BBX 23 22 0 -1
BITMAP
1F0006
71800C
60C018
00C030
018060
0700C0
018180
00C300
00C630
60CC70
719870
1F30F0
0061B0
00C330
018330
030630
060C30
0C1FFE
180030
300030
600030
C000FC
ENDCHAR
STARTCHAR J222f
ENCODING 191
SWIDTH 1059 0
DWIDTH 24 0
BBX 12 20 6 1
BITMAP
0300
0780
0300
0000
0000
0300
0300
0300
0600
0600
0C00
1800
3000
7000
E000
E060
E070
E030
7860
1F80
ENDCHAR
STARTCHAR J2821
ENCODING 198
SWIDTH 1059 0
DWIDTH 24 0
BBX 24 17 0 1
BITMAP
00FFE0
00C020
01E010
016000
033000
023020
063020
041FF0
041810
0C0C00
0FFC00
180C00
100600
100602
300302
200302
F80FFF
ENDCHAR
STARTCHAR J2822
ENCODING 208
SWIDTH 1059 0
DWIDTH 24 0
BBX 18 18 3 1
BITMAP
7FFC00
180700
180180
1800C0
1800C0
1800C0
1800C0
1800C0
FF00C0
1800C0
1800C0
1800C0
1800C0
1800C0
1800C0
180180
180700
7FFC00
ENDCHAR
STARTCHAR J213f
ENCODING 215
SWIDTH 1059 0
DWIDTH 24 0
BBX 15 14 5 4
BITMAP
C006
600C
3018
1830
0C60
06C0
0380
0380
06C0
0C60
1830
3018
600C
C006
ENDCHAR
STARTCHAR J282a
ENCODING 216
SWIDTH 1059 0
DWIDTH 24 0
BBX 16 20 4 0
BITMAP
0004
0008
07F0
1C18
302C
6026
6046
C083
C083
C103
C103
C203
C203
C403
6806
6806
300C
1C38
27E0
4000
ENDCHAR
STARTCHAR J282d
ENCODING 222
SWIDTH 1059 0
DWIDTH 24 0
BBX 17 17 4 1
BITMAP
FF0000
180000
180000
1BFE00
1C0300
180180
180180
180180
180180
180180
180180
180180
1C0300
1BFE00
180000
180000
FFE000
ENDCHAR
STARTCHAR J292c
ENCODING 223
SWIDTH 1059 0
DWIDTH 24 0
BBX 14 16 5 0
BITMAP
0FE0
1830
3018
3018
3030
30E0
3030
3018
300C
300C
300C
360C
3618
33F0
3000
F000
ENDCHAR
STARTCHAR J2921
ENCODING 230
SWIDTH 1059 0
DWIDTH 24 0
BBX 20 13 2 1
BITMAP
3F8FC0
60D860
C07030
006030
006030
07FFF0
386000
606000
C06000
C06000
C07030
60D8E0
3F0F80
ENDCHAR
STARTCHAR J2923
ENCODING 240
SWIDTH 1059 0
DWIDTH 24 0
BBX 13 18 5 1
BITMAP
0010
0FA0
30C0
4160
0230
0430
0818
0018
1FD8
3078
6018
C018
C018
C018
C018
6030
3060
1F80
ENDCHAR
STARTCHAR J2140
ENCODING 247
SWIDTH 1059 0
DWIDTH 24 0
BBX 18 13 3 4
BITMAP
00C000
01E000
00C000
000000
000000
000000
FFFFC0
000000
000000
000000
00C000
01E000
00C000
ENDCHAR
STARTCHAR J292a
ENCODING 248
SWIDTH 1059 0
DWIDTH 24 0
BBX 13 17 5 -1
BITMAP
0008
0010
1FE0
3060
60B0
C098
C118
C218
C218
C418
C418
C818
7030
3060
3FC0
4000
8000
ENDCHAR
STARTCHAR J292d
ENCODING 254
SWIDTH 1059 0
DWIDTH 24 0
BBX 15 13 4 1
BITMAP
FC00
3000
33F8
3C0C
3006
3006
3006
300C
3038
3FC0
3000
3000
FC00
ENDCHAR
STARTCHAR J2922
ENCODING 273
SWIDTH 1059 0
DWIDTH 24 0
BBX 14 18 5 1
BITMAP
0070
0030
0030
0030
FFFC
0030
1FB0
30F0
6030
C030
C030
C030
C030
C030
C030
6070
30F0
1FB8
ENDCHAR
STARTCHAR J2824
ENCODING 294
SWIDTH 1059 0
DWIDTH 24 0
BBX 20 17 2 1
BITMAP
3C03C0
180180
180180
FFFFF0
180180
180180
180180
180180
1FFF80
180180
180180
180180
180180
180180
180180
180180
3C03C0
ENDCHAR
STARTCHAR J2924
ENCODING 295
SWIDTH 1059 0
DWIDTH 24 0
BBX 17 17 4 1
BITMAP
0C0000
3C0000
0C0000
FFFE00
0C0000
0C7C00
0D8600
0E0600
0C0600
0C0600
0C0600
0C0600
0C0600
0C0600
0C0600
0C0600
3F1F80
ENDCHAR
STARTCHAR J2925
ENCODING 305
SWIDTH 1059 0
DWIDTH 24 0
BBX 6 13 9 1
BITMAP
30
F0
30
30
30
30
30
30
30
30
30
30
FC
ENDCHAR
STARTCHAR J2826
ENCODING 306
SWIDTH 1059 0
DWIDTH 24 0
BBX 17 20 3 -2
BITMAP
FC1F80
300600
300600
300600
300600
300600
300600
300600
300600
300600
300600
300600
300600
300600
300600
300600
FC0600
018600
018C00
00F800
ENDCHAR
STARTCHAR J2926
ENCODING 307
SWIDTH 1059 0
DWIDTH 24 0
BBX 13 20 5 -2
BITMAP
3018
3018
0000
0000
3018
F078
3018
3018
3018
3018
3018
3018
3018
3018
3018
3018
FC18
0318
0330
01E0
ENDCHAR
STARTCHAR J2927
ENCODING 312
SWIDTH 1059 0
DWIDTH 24 0
BBX 15 13 4 1
BITMAP
3078
F020
3040
3080
3100
3200
3700
3980
30C0
3060
3030
3018
FC3E
ENDCHAR
STARTCHAR J2828
ENCODING 319
SWIDTH 1059 0
DWIDTH 24 0
BBX 18 18 3 1
BITMAP
F00000
600000
600000
600000
600000
600380
6006C0
600380
600000
600000
600000
600000
600000
600000
600100
600200
600600
FFFE00
ENDCHAR
STARTCHAR J2928
ENCODING 320
SWIDTH 1059 0
DWIDTH 24 0
BBX 11 18 7 1
BITMAP
3000
F000
3000
3000
3000
3000
3000
31C0
3360
31C0
3000
3000
3000
3000
3000
3000
3000
FC00
ENDCHAR
STARTCHAR J2829
ENCODING 321
SWIDTH 1059 0
DWIDTH 24 0
BBX 18 18 3 1
BITMAP
3C0000
180000
186000
198000
1E0000
380000
D80000
180000
180000
180000
180000
180000
180000
1800C0
1800C0
180180
180380
3FFF80
ENDCHAR
STARTCHAR J2929
ENCODING 322
SWIDTH 1059 0
DWIDTH 24 0
BBX 11 18 7 1
BITMAP
0C00
3C20
0C40
0C80
0D00
0E00
0C00
1C00
2C00
4C00
8C00
0C00
0C00
0C00
0C00
0C00
0C00
3F00
ENDCHAR
STARTCHAR J2930
ENCODING 329
SWIDTH 1059 0
DWIDTH 24 0
BBX 14 12 5 1
BITMAP
31E0
F630
3830
3030
3030
3030
3030
3030
3030
3030
3030
FCFC
ENDCHAR
STARTCHAR J282f
ENCODING 330
SWIDTH 1059 0
DWIDTH 24 0
BBX 16 18 4 1
BITMAP
FC00
3000
3000
31F8
360C
3806
3003
3003
3003
3003
3003
3003
3003
3006
3006
300C
30F0
FC00
ENDCHAR
STARTCHAR J292f
ENCODING 331
SWIDTH 1059 0
DWIDTH 24 0
BBX 12 15 5 -2
BITMAP
31E0
F630
3830
3030
3030
3030
3030
3030
3030
3030
3030
FC30
0030
0360
03C0
ENDCHAR
STARTCHAR J282b
ENCODING 338
SWIDTH 1059 0
DWIDTH 24 0
BBX 22 17 1 1
BITMAP
07DFFC
1C7C04
301C04
601C00
600C00
C00C00
C00C00
C00C08
C00FF8
C00C08
C00C00
C00C00
600C00
601C00
301C04
1C7C04
07DFFC
ENDCHAR
STARTCHAR J292b
ENCODING 339
SWIDTH 1059 0
DWIDTH 24 0
BBX 20 13 2 1
BITMAP
3F8FC0
60D860
C07030
C06030
C06030
C07FF0
C06000
C06000
C06000
C06000
C07030
60D860
3F0FC0
ENDCHAR
STARTCHAR J282e
ENCODING 358
SWIDTH 1059 0
DWIDTH 24 0
BBX 18 17 3 2
BITMAP
7FFF80
60C180
C0C0C0
80C040
00C000
00C000
00C000
00C000
7FFF80
00C000
00C000
00C000
00C000
00C000
00C000
00C000
03F000
ENDCHAR
STARTCHAR J292e
ENCODING 359
SWIDTH 1059 0
DWIDTH 24 0
BBX 12 18 6 1
BITMAP
0400
0430
04C0
0700
1C00
E400
0C00
3F80
0C00
0C00
0C00
0C00
0C00
0C00
0C00
0C00
0CC0
0700
ENDCHAR
STARTCHAR J2227
ENCODING 711
SWIDTH 1059 0
DWIDTH 24 0
BBX 9 4 7 17
BITMAP
C180
6300
3600
1C00
ENDCHAR
STARTCHAR J2230
ENCODING 720
SWIDTH 1059 0
DWIDTH 24 0
BBX 5 13 9 4
BITMAP
F8
70
20
00
00
00
00
00
00
00
20
70
F8
ENDCHAR
STARTCHAR J2228
ENCODING 728
SWIDTH 1059 0
DWIDTH 24 0
BBX 11 3 6 17
BITMAP
C060
60C0
1F00
ENDCHAR
STARTCHAR J222b
ENCODING 729
SWIDTH 1059 0
DWIDTH 24 0
BBX 5 4 9 17
BITMAP
70
F8
F8
70
ENDCHAR
STARTCHAR J222a
ENCODING 730
SWIDTH 1059 0
DWIDTH 24 0
BBX 5 4 9 17
BITMAP
70
88
88
70
ENDCHAR
STARTCHAR J222d
ENCODING 731
SWIDTH 1059 0
DWIDTH 24 0
BBX 5 8 9 0
BITMAP
18
30
60
C0
C0
60
30
18
ENDCHAR
STARTCHAR J2229
ENCODING 733
SWIDTH 1059 0
DWIDTH 24 0
BBX 10 6 7 15
BITMAP
18C0
39C0
3180
6300
4200
8400
ENDCHAR
STARTCHAR J2541
ENCODING 913
SWIDTH 1059 0
DWIDTH 24 0
BBX 19 20 2 1
BITMAP
003000
003000
007800
007800
00F800
00DC00
019C00
019C00
019C00
030E00
030E00
060E00
07FE00
0C0700
0C0700
180700
180700
300380
300380
FC0FE0
ENDCHAR
STARTCHAR J2542
ENCODING 914
SWIDTH 1059 0
DWIDTH 24 0
BBX 16 20 4 1
BITMAP
3FF0
0E1C
0E06
0E07
0E07
0E07
0E07
1C0E
1C1C
1FF0
1C1C
1C0E
1C07
1C07
3807
3807
3807
380E
383C
FFF0
ENDCHAR
STARTCHAR J2543
ENCODING 915
SWIDTH 1059 0
DWIDTH 24 0
BBX 16 20 4 1
BITMAP
3FFE
0E0E
0E07
0E03
0E01
0E01
0E00
0E00
1C00
1C00
1C00
1C00
1C00
1C00
1C00
3800
3800
3800
3800
FE00
ENDCHAR
STARTCHAR J2544
ENCODING 916
SWIDTH 1059 0
DWIDTH 24 0
BBX 18 20 3 1
BITMAP
003000
007000
007800
00F800
00F800
01B800
019C00
031C00
031C00
061C00
060E00
0C0E00
0C0E00
180700
180700
300700
300700
600380
600380
FFFFC0
ENDCHAR
STARTCHAR J2545
ENCODING 917
SWIDTH 1059 0
DWIDTH 24 0
BBX 17 20 3 1
BITMAP
3FFF00
0E0700
0E0380
0E0180
0E0080
0E0000
1C0800
1C0800
1C1800
1FF800
1C1800
1C0800
1C0800
1C0000
380100
380300
380300
380600
380E00
FFFE00
ENDCHAR
STARTCHAR J2546
ENCODING 918
SWIDTH 1059 0
DWIDTH 24 0
BBX 16 20 4 1
BITMAP
1FFF
1807
300E
601C
0038
0038
0070
00E0
00E0
01C0
0380
0700
0700
0E00
1C00
1C00
3806
700C
E018
FFF8
ENDCHAR
STARTCHAR J2547
ENCODING 919
SWIDTH 1059 0
DWIDTH 24 0
BBX 19 20 2 1
BITMAP
3F8FE0
0E0380
0E0380
0E0380
0E0380
0E0380
1C0700
1C0700
1C0700
1FFF00
1C0700
1C0700
1C0700
1C0700
380E00
380E00
380E00
380E00
380E00
FE3F80
ENDCHAR
STARTCHAR J2548
ENCODING 920
SWIDTH 1059 0
DWIDTH 24 0
BBX 17 20 3 1
BITMAP
03F800
0E0E00
1C0700
380700
380380
700380
700380
700380
740B80
E7F380
EFF380
E81700
E00700
E00700
E00700
E00E00
700E00
701C00
383800
0FE000
ENDCHAR
STARTCHAR J2549
ENCODING 921
SWIDTH 1059 0
DWIDTH 24 0
BBX 9 20 7 1
BITMAP
3F80
0E00
0E00
0E00
0E00
0E00
1C00
1C00
1C00
1C00
1C00
1C00
1C00
3800
3800
3800
3800
3800
3800
FE00
ENDCHAR
STARTCHAR J254a
ENCODING 922
SWIDTH 1059 0
DWIDTH 24 0
BBX 19 20 2 1
BITMAP
3F87E0
0E0180
0E0300
0E0600
0E0C00
0E1800
1C3000
1C6000
1CC000
1D8000
1FC000
1FE000
1CF000
1C7800
383800
383C00
381E00
380F00
380780
FE1FE0
ENDCHAR
STARTCHAR J254b
ENCODING 923
SWIDTH 1059 0
DWIDTH 24 0
BBX 19 20 2 1
BITMAP
001C00
001C00
003E00
003E00
007E00
006E00
00CE00
00CE00
018E00
018700
030700
030700
060700
060700
0C0700
0C0380
180380
180380
300380
FC0FE0
ENDCHAR
STARTCHAR J254c
ENCODING 924
SWIDTH 1059 0
DWIDTH 24 0
BBX 23 20 0 1
BITMAP
3E003E
0E0078
0F0078
0F00F8
0F00F8
0F81B8
0F81B8
1FC370
1DC370
1DC670
1CE670
1CEC70
1CEC70
1C7870
1C7870
3830E0
3830E0
3800E0
3800E0
FE03F8
ENDCHAR
STARTCHAR J254d
ENCODING 925
SWIDTH 1059 0
DWIDTH 24 0
BBX 20 20 2 1
BITMAP
3C03F0
0E00C0
0E00C0
0F00C0
0F80C0
0F80C0
19C180
19C180
18E180
18E180
187180
187180
183980
183980
301F00
301F00
300F00
300700
300700
FC0300
ENDCHAR
STARTCHAR J254e
ENCODING 926
SWIDTH 1059 0
DWIDTH 24 0
BBX 19 20 2 1
BITMAP
080020
080020
1FFFE0
1FFFC0
100040
200040
200000
000000
020200
03FE00
03FE00
040400
040400
000000
000080
400080
7FFF80
7FFF00
800100
800100
ENDCHAR
STARTCHAR J254f
ENCODING 927
SWIDTH 1059 0
DWIDTH 24 0
BBX 17 20 3 1
BITMAP
03F800
0E0E00
1C0700
380700
380380
700380
700380
700380
700380
E00380
E00380
E00700
E00700
E00700
E00700
E00E00
700E00
701C00
383800
0FE000
ENDCHAR
STARTCHAR J2550
ENCODING 928
SWIDTH 1059 0
DWIDTH 24 0
BBX 19 20 2 1
BITMAP
3FFFE0
0E0380
0E0380
0E0380
0E0380
0E0380
0E0380
1C0700
1C0700
1C0700
1C0700
1C0700
1C0700
1C0700
380E00
380E00
380E00
380E00
380E00
FE3F80
ENDCHAR
STARTCHAR J2551
ENCODING 929
SWIDTH 1059 0
DWIDTH 24 0
BBX 17 20 4 1
BITMAP
3FFC00
0E0700
0E0380
0E0380
0E0380
0E0380
0E0700
1C1E00
1FF000
1C0000
1C0000
1C0000
1C0000
1C0000
380000
380000
380000
380000
380000
FE0000
ENDCHAR
STARTCHAR J2552
ENCODING 931
SWIDTH 1059 0
DWIDTH 24 0
BBX 16 20 4 1
BITMAP
7FFE
380E
1C06
0E03
0701
0380
0380
01C0
00E0
0070
0060
00C0
0180
0300
0600
0C04
180C
3018
6038
FFF8
ENDCHAR
STARTCHAR J2553
ENCODING 932
SWIDTH 1059 0
DWIDTH 24 0
BBX 17 20 3 1
BITMAP
7FFF00
71C700
61C300
C1C180
81C080
01C000
01C000
038000
038000
038000
038000
038000
038000
070000
070000
070000
070000
070000
070000
1FC000
ENDCHAR
STARTCHAR J2554
ENCODING 933
SWIDTH 1059 0
DWIDTH 24 0
BBX 15 20 4 1
BITMAP
001C
007E
E0CE
3984
0F00
0E00
0E00
0E00
0E00
1C00
1C00
1C00
1C00
1C00
3800
3800
3800
3800
3800
FE00
ENDCHAR
STARTCHAR J2555
ENCODING 934
SWIDTH 1059 0
DWIDTH 24 0
BBX 17 20 3 1
BITMAP
03F800
00E000
00E000
07F800
1CEE00
38E700
71C380
E1C380
E1C380
E1C380
E1C380
E1C380
E1C380
E38700
738E00
3B9C00
0FF000
038000
038000
0FE000
ENDCHAR
STARTCHAR J2556
ENCODING 935
SWIDTH 1059 0
DWIDTH 24 0
BBX 20 20 2 1
BITMAP
3F03F0
0E00C0
0E0180
070300
038600
038600
01CC00
01D800
00F000
00F000
00F000
01B800
01B800
031C00
061C00
060E00
0C0E00
180700
300700
FC0FC0
ENDCHAR
STARTCHAR J2557
ENCODING 936
SWIDTH 1059 0
DWIDTH 24 0
BBX 21 20 2 1
BITMAP
01FC00
007000
007000
007000
F07078
3870E0
1CE0E0
1CE1C0
1CE1C0
38E380
38E380
38E700
38E700
39CE00
1DDC00
0FF000
01C000
01C000
01C000
07F000
ENDCHAR
STARTCHAR J2558
ENCODING 937
SWIDTH 1059 0
DWIDTH 24 0
BBX 20 19 2 1
BITMAP
007E00
01C380
0300C0
0700E0
0E0070
0E0070
1C0070
1C0070
1C0070
1C00E0
1C00E0
0C01C0
0E0180
060300
030600
810810
C10830
7F0FE0
7E07E0
ENDCHAR
STARTCHAR J2561
ENCODING 945
SWIDTH 1059 0
DWIDTH 24 0
BBX 14 10 5 1
BITMAP
070C
198C
30D8
60D8
6070
C060
C0E0
C1B0
C730
7C1C
ENDCHAR
STARTCHAR J2562
ENCODING 946
SWIDTH 1059 0
DWIDTH 24 0
BBX 14 18 5 -1
BITMAP
00F0
0198
030C
060C
060C
0C0C
0C18
18F0
1830
1818
3018
3018
3818
6C30
67E0
6380
C000
C000
ENDCHAR
STARTCHAR J2563
ENCODING 947
SWIDTH 1059 0
DWIDTH 24 0
BBX 13 12 5 -1
BITMAP
7818
CC78
06C0
0780
0700
0300
0600
0600
0C00
0C00
1800
1800
ENDCHAR
STARTCHAR J2564
ENCODING 948
SWIDTH 1059 0
DWIDTH 24 0
BBX 11 17 6 1
BITMAP
1F00
31C0
6060
6000
7000
3C00
1F00
0F80
39C0
61C0
C0E0
C0E0
C0E0
C0E0
E1C0
7F80
1E00
ENDCHAR
STARTCHAR J2565
ENCODING 949
SWIDTH 1059 0
DWIDTH 24 0
BBX 11 11 6 1
BITMAP
1F00
31C0
60C0
6000
3000
7800
E000
C000
C060
61C0
3F00
ENDCHAR
STARTCHAR J2566
ENCODING 950
SWIDTH 1059 0
DWIDTH 24 0
BBX 9 19 7 -1
BITMAP
3800
6180
3F00
0E00
1800
3000
6000
6000
C000
C000
C000
E000
7800
3E00
0F00
0380
6180
7180
1F00
ENDCHAR
STARTCHAR J2567
ENCODING 951
SWIDTH 1059 0
DWIDTH 24 0
BBX 13 12 5 -1
BITMAP
3CF0
6798
C318
8618
0630
0C30
0C60
1860
18C0
00C0
01C0
0180
ENDCHAR
STARTCHAR J2568
ENCODING 952
SWIDTH 1059 0
DWIDTH 24 0
BBX 11 16 6 1
BITMAP
0780
0CC0
1860
1860
3060
30C0
30C0
7FC0
6180
6180
C180
C300
C300
C600
C600
7800
ENDCHAR
STARTCHAR J2569
ENCODING 953
SWIDTH 1059 0
DWIDTH 24 0
BBX 7 10 8 1
BITMAP
30
30
60
60
60
C0
C2
CC
F8
70
ENDCHAR
STARTCHAR J256a
ENCODING 954
SWIDTH 1059 0
DWIDTH 24 0
BBX 12 10 6 1
BITMAP
7070
30F0
3180
6300
7C00
6C00
6600
C310
C3E0
C1C0
ENDCHAR
STARTCHAR J256b
ENCODING 955
SWIDTH 1059 0
DWIDTH 24 0
BBX 12 13 6 1
BITMAP
3000
0C00
0600
0300
0300
0700
0700
0F00
1B00
3180
6180
E0C0
C070
ENDCHAR
STARTCHAR J256c
ENCODING 956
SWIDTH 1059 0
DWIDTH 24 0
BBX 15 12 4 -1
BITMAP
1818
1818
3830
3030
3030
6060
6060
60C0
71E6
DF3C
C000
C000
ENDCHAR
STARTCHAR J256d
ENCODING 957
SWIDTH 1059 0
DWIDTH 24 0
BBX 11 10 6 1
BITMAP
78C0
1860
1860
30C0
30C0
3180
6300
6600
DC00
F000
ENDCHAR
STARTCHAR J256e
ENCODING 958
SWIDTH 1059 0
DWIDTH 24 0
BBX 10 21 7 -1
BITMAP
6000
61C0
3FC0
0F00
3800
6000
61C0
3FC0
0700
1C00
3000
6000
C000
C000
C000
7000
1F00
01C0
00C0
31C0
1F00
ENDCHAR
STARTCHAR J256f
ENCODING 959
SWIDTH 1059 0
DWIDTH 24 0
BBX 10 10 7 1
BITMAP
0F80
18C0
30C0
60C0
60C0
C180
C180
C300
C600
7C00
ENDCHAR
STARTCHAR J2570
ENCODING 960
SWIDTH 1059 0
DWIDTH 24 0
BBX 13 10 5 1
BITMAP
3FF8
FFF8
CC60
0CC0
0CC0
1980
1980
3180
71F0
60E0
ENDCHAR
STARTCHAR J2571
ENCODING 961
SWIDTH 1059 0
DWIDTH 24 0
BBX 11 13 6 -2
BITMAP
0F80
18C0
3060
3060
6060
6060
60C0
60C0
D180
CF00
C000
C000
C000
ENDCHAR
STARTCHAR J2572
ENCODING 963
SWIDTH 1059 0
DWIDTH 24 0
BBX 11 10 6 1
BITMAP
07E0
1C00
3180
60C0
60C0
C0C0
C180
C180
C700
7C00
ENDCHAR
STARTCHAR J2573
ENCODING 964
SWIDTH 1059 0
DWIDTH 24 0
BBX 11 10 7 1
BITMAP
3FE0
FFE0
C600
0600
0600
0C00
0C00
0C00
0F00
0700
ENDCHAR
STARTCHAR J2574
ENCODING 965
SWIDTH 1059 0
DWIDTH 24 0
BBX 12 10 6 1
BITMAP
F060
1C30
0C30
0C30
0C30
1860
1860
30C0
3180
1E00
ENDCHAR
STARTCHAR J2575
ENCODING 966
SWIDTH 1059 0
DWIDTH 24 0
BBX 14 12 5 -1
BITMAP
30F0
6198
C30C
C30C
C60C
C618
7670
1FC0
0600
0C00
0C00
0C00
ENDCHAR
STARTCHAR J2576
ENCODING 967
SWIDTH 1059 0
DWIDTH 24 0
BBX 12 10 6 1
BITMAP
7830
6C60
06C0
0380
0700
0F00
1B00
3180
61B0
C0F0
ENDCHAR
STARTCHAR J2577
ENCODING 968
SWIDTH 1059 0
DWIDTH 24 0
BBX 13 21 5 -2
BITMAP
0100
0380
0380
0300
0300
0300
0300
0300
3630
6618
6618
C618
C630
CC30
CC60
6DC0
3F00
0C00
1800
1800
1800
ENDCHAR
STARTCHAR J2578
ENCODING 969
SWIDTH 1059 0
DWIDTH 24 0
BBX 15 10 4 1
BITMAP
0C18
181C
3006
6006
6006
C006
C306
E30C
7FF8
3CF0
ENDCHAR
STARTCHAR J2c27
ENCODING 1025
SWIDTH 1059 0
DWIDTH 24 0
BBX 16 22 4 0
BITMAP
0630
0630
0000
FFFE
380E
3806
3803
3800
3800
3810
3810
3830
3FF0
3830
3810
3810
3800
3800
3803
3806
380E
FFFE
ENDCHAR
STARTCHAR J2c21
ENCODING 1040
SWIDTH 1059 0
DWIDTH 24 0
BBX 19 20 2 1
BITMAP
00C000
00C000
01E000
01E000
016000
037000
027000
063800
063800
043800
0C1C00
081C00
0FFC00
180E00
100E00
300700
300700
200700
600380
F80FE0
ENDCHAR
STARTCHAR J2c22
ENCODING 1041
SWIDTH 1059 0
DWIDTH 24 0
BBX 16 20 4 1
BITMAP
FFFC
380C
3806
3802
3800
3800
3800
3800
3FF0
381C
380E
3807
3807
3807
3807
3807
3807
380E
381C
FFF0
ENDCHAR
STARTCHAR J2c23
ENCODING 1042
SWIDTH 1059 0
DWIDTH 24 0
BBX 16 20 4 1
BITMAP
FFF0
381C
380E
380E
380E
380E
380E
381C
3838
3FF0
381C
380E
3807
3807
3807
3807
3807
380E
381C
FFF0
ENDCHAR
STARTCHAR J2c24
ENCODING 1043
SWIDTH 1059 0
DWIDTH 24 0
BBX 16 20 4 1
BITMAP
FFFE
380E
3807
3803
3800
3800
3800
3800
3800
3800
3800
3800
3800
3800
3800
3800
3800
3800
3800
FE00
ENDCHAR
STARTCHAR J2c25
ENCODING 1044
SWIDTH 1059 0
DWIDTH 24 0
BBX 20 22 2 -1
BITMAP
1FFFE0
060380
060380
060380
060380
060380
060380
060380
060380
060380
060380
0C0380
0C0380
0C0380
0C0380
180380
180380
180380
300380
7FFFE0
C00030
800010
ENDCHAR
STARTCHAR J2c26
ENCODING 1045
SWIDTH 1059 0
DWIDTH 24 0
BBX 16 20 4 1
BITMAP
FFFE
380E
3807
3803
3803
3800
3810
3810
3830
3FF0
3830
3810
3810
3800
3800
3800
3803
3806
380E
FFFE
ENDCHAR
STARTCHAR J2c28
ENCODING 1046
SWIDTH 1059 0
DWIDTH 24 0
BBX 23 20 0 1
BITMAP
78FE3C
CC3866
C43846
0638C0
023880
023880
033980
013900
013900
03FF80
03BB80
0739C0
0739C0
0E38E0
0E38E0
1C3870
383838
383838
70381C
F8FE3E
ENDCHAR
STARTCHAR J2c29
ENCODING 1047
SWIDTH 1059 0
DWIDTH 24 0
BBX 16 20 4 1
BITMAP
1FF0
301C
400E
000E
000E
000E
000E
001C
0038
03F0
001C
000E
0007
0007
0007
0007
0007
800E
601C
3FF0
ENDCHAR
STARTCHAR J2c2a
ENCODING 1048
SWIDTH 1059 0
DWIDTH 24 0
BBX 20 20 2 1
BITMAP
FE07F0
3801C0
3803C0
3803C0
3807C0
380DC0
380DC0
3819C0
3831C0
3861C0
3861C0
38C1C0
3981C0
3981C0
3B01C0
3E01C0
3C01C0
3801C0
3801C0
FE07F0
ENDCHAR
STARTCHAR J2c2b
ENCODING 1049
SWIDTH 1059 0
DWIDTH 24 0
BBX 20 22 2 0
BITMAP
030C00
019800
FEF7F0
3801C0
3803C0
3803C0
3807C0
380DC0
3819C0
3819C0
3831C0
3861C0
38C1C0
3981C0
3981C0
3B01C0
3E01C0
3C01C0
3801C0
3801C0
3801C0
FE07F0
ENDCHAR
STARTCHAR J2c2c
ENCODING 1050
SWIDTH 1059 0
DWIDTH 24 0
BBX 19 20 2 1
BITMAP
FE03C0
3807E0
3806C0
380C00
380C00
381800
381800
383000
386000
3FE000
387000
383800
383800
381C00
381C00
380E00
380700
380700
380380
FE0FE0
ENDCHAR
STARTCHAR J2c2d
ENCODING 1051
SWIDTH 1059 0
DWIDTH 24 0
BBX 20 20 2 1
BITMAP
0FFFF0
0301C0
0301C0
0301C0
0301C0
0301C0
0301C0
0301C0
0301C0
0301C0
0301C0
0301C0
0301C0
0301C0
0301C0
0301C0
C301C0
E301C0
C601C0
7C07F0
ENDCHAR
STARTCHAR J2c2e
ENCODING 1052
SWIDTH 1059 0
DWIDTH 24 0
BBX 22 20 1 1
BITMAP
3C00F8
1C00F0
1E01F0
1E01F0
1E0370
1F0370
370370
370670
338670
338C70
338C70
31D870
31D870
31F070
60F038
60E038
60E038
604038
600038
F0007C
ENDCHAR
STARTCHAR J2c2f
ENCODING 1053
SWIDTH 1059 0
DWIDTH 24 0
BBX 20 20 2 1
BITMAP
FE07F0
3801C0
3801C0
3801C0
3801C0
3801C0
3801C0
3801C0
3801C0
3FFFC0
3801C0
3801C0
3801C0
3801C0
3801C0
3801C0
3801C0
3801C0
3801C0
FE07F0
ENDCHAR
STARTCHAR J2c30
ENCODING 1054
SWIDTH 1059 0
DWIDTH 24 0
BBX 16 20 4 1
BITMAP
07E0
1C38
300C
6006
E007
E007
E007
E007
E007
E007
E007
E007
E007
E007
E007
E007
6006
300C
1C38
07E0
ENDCHAR
STARTCHAR J2c31
ENCODING 1055
SWIDTH 1059 0
DWIDTH 24 0
BBX 18 20 3 1
BITMAP
FFFFC0
380700
380700
380700
380700
380700
380700
380700
380700
380700
380700
380700
380700
380700
380700
380700
380700
380700
380700
FE1FC0
ENDCHAR
STARTCHAR J2c32
ENCODING 1056
SWIDTH 1059 0
DWIDTH 24 0
BBX 16 20 4 1
BITMAP
FFF8
380E
3807
3807
3807
3807
3807
3807
380E
3FF8
3800
3800
3800
3800
3800
3800
3800
3800
3800
FE00
ENDCHAR
STARTCHAR J2c33
ENCODING 1057
SWIDTH 1059 0
DWIDTH 24 0
BBX 19 20 2 1
BITMAP
01F900
070F00
1C0180
380080
700000
700000
E00000
E00000
E00000
E00000
E00000
E00000
E00000
E00000
600060
700060
3000C0
180180
0E0700
03FC00
ENDCHAR
STARTCHAR J2c34
ENCODING 1058
SWIDTH 1059 0
DWIDTH 24 0
BBX 19 20 2 1
BITMAP
7FFFC0
70E1C0
60E0C0
C0E060
00E000
00E000
00E000
00E000
00E000
00E000
00E000
00E000
00E000
00E000
00E000
00E000
00E000
00E000
00E000
03F800
ENDCHAR
STARTCHAR J2c35
ENCODING 1059
SWIDTH 1059 0
DWIDTH 24 0
BBX 20 20 2 1
BITMAP
FE01F0
380040
1C00C0
1C0080
0E0180
070100
070300
038200
01C600
01C400
00EC00
00E800
007800
007000
003000
006000
006000
18C000
1D8000
0F0000
ENDCHAR
STARTCHAR J2c36
ENCODING 1060
SWIDTH 1059 0
DWIDTH 24 0
BBX 19 20 2 1
BITMAP
07FC00
00E000
00E000
0FFE00
38E380
70E1C0
E0E0E0
E0E0E0
E0E0E0
E0E0E0
E0E0E0
E0E0E0
E0E0E0
E0E0E0
70E1C0
38E380
0FFE00
00E000
00E000
07FC00
ENDCHAR
STARTCHAR J2c37
ENCODING 1061
SWIDTH 1059 0
DWIDTH 24 0
BBX 18 20 3 1
BITMAP
FC07C0
380300
1C0600
1C0600
0E0C00
071800
071800
03B000
03E000
01E000
01E000
037000
037000
063800
0C3800
0C1C00
180E00
300E00
600700
F80FC0
ENDCHAR
STARTCHAR J2c38
ENCODING 1062
SWIDTH 1059 0
DWIDTH 24 0
BBX 19 22 2 -1
BITMAP
FE1FC0
380700
380700
380700
380700
380700
380700
380700
380700
380700
380700
380700
380700
380700
380700
380700
380700
380700
380700
FFFFC0
000060
000020
ENDCHAR
STARTCHAR J2c39
ENCODING 1063
SWIDTH 1059 0
DWIDTH 24 0
BBX 18 20 3 1
BITMAP
FF1FC0
380700
380700
380700
380700
380700
380700
380700
380700
380700
380700
380F00
1FF700
000700
000700
000700
000700
000700
000700
000F80
ENDCHAR
STARTCHAR J2c3a
ENCODING 1064
SWIDTH 1059 0
DWIDTH 24 0
BBX 23 20 0 1
BITMAP
7C7C7C
383838
383838
383838
383838
383838
383838
383838
383838
383838
383838
383838
383838
383838
383838
383838
383838
383838
383838
FFFFFE
ENDCHAR
STARTCHAR J2c3b
ENCODING 1065
SWIDTH 1059 0
DWIDTH 24 0
BBX 24 23 0 -2
BITMAP
7C7C7C
383838
383838
383838
383838
383838
383838
383838
383838
383838
383838
383838
383838
383838
383838
383838
383838
383838
383838
FFFFFC
000006
000003
000003
ENDCHAR
STARTCHAR J2c3c
ENCODING 1066
SWIDTH 1059 0
DWIDTH 24 0
BBX 23 20 0 1
BITMAP
7FFC00
607000
C07000
007000
007000
007000
007000
007000
007FE0
007038
00701C
00700E
00700E
00700E
00700E
00700E
00700E
00701C
007038
01FFE0
ENDCHAR
STARTCHAR J2c3d
ENCODING 1067
SWIDTH 1059 0
DWIDTH 24 0
BBX 23 20 0 1
BITMAP
FE00FE
380038
380038
380038
380038
380038
380038
380038
3FF038
381C38
380E38
380738
380738
380738
380738
380738
380738
380E38
381C38
FFF0FE
ENDCHAR
STARTCHAR J2c3e
ENCODING 1068
SWIDTH 1059 0
DWIDTH 24 0
BBX 16 20 4 1
BITMAP
FE00
3800
3800
3800
3800
3800
3800
3800
3FF0
381C
380E
3807
3807
3807
3807
3807
3807
380E
381C
FFF0
ENDCHAR
STARTCHAR J2c3f
ENCODING 1069
SWIDTH 1059 0
DWIDTH 24 0
BBX 17 20 3 1
BITMAP
9FF000
E01C00
800E00
800700
000700
000380
000380
000380
381F80
07E380
000380
000380
000380
000380
000380
600700
E00700
C00E00
601C00
3FF000
ENDCHAR
STARTCHAR J2c40
ENCODING 1070
SWIDTH 1059 0
DWIDTH 24 0
BBX 22 20 1 1
BITMAP
F80F80
703FE0
707070
70E038
71C01C
71C01C
71C01C
71C01C
71C01C
7FC01C
71C01C
71C01C
71C01C
71C01C
71C01C
71C01C
70E038
707070
703FE0
F80F80
ENDCHAR
STARTCHAR J2c41
ENCODING 1071
SWIDTH 1059 0
DWIDTH 24 0
BBX 18 20 3 1
BITMAP
07FFC0
1C0700
380700
380700
380700
380700
380700
380700
1C0700
07FF00
060700
060700
060700
0C0700
0C0700
180700
180700
300700
600700
C01FC0
ENDCHAR
STARTCHAR J2c51
ENCODING 1072
SWIDTH 1059 0
DWIDTH 24 0
BBX 14 12 5 1
BITMAP
1F80
70C0
6060
0060
07E0
3C60
6060
C060
C060
C060
61EC
1E38
ENDCHAR
STARTCHAR J2c52
ENCODING 1073
SWIDTH 1059 0
DWIDTH 24 0
BBX 12 15 6 1
BITMAP
1F30
31E0
6000
C000
CF80
D0C0
E060
C060
C060
C060
C060
C060
C060
60C0
3F80
ENDCHAR
STARTCHAR J2c53
ENCODING 1074
SWIDTH 1059 0
DWIDTH 24 0
BBX 12 12 6 1
BITMAP
FF80
60C0
6060
6060
60C0
7FC0
6060
6030
6030
6030
6060
FFC0
ENDCHAR
STARTCHAR J2c54
ENCODING 1075
SWIDTH 1059 0
DWIDTH 24 0
BBX 10 12 7 1
BITMAP
FF80
60C0
6040
6000
6000
6000
6000
6000
6000
6000
6000
F000
ENDCHAR
STARTCHAR J2c55
ENCODING 1076
SWIDTH 1059 0
DWIDTH 24 0
BBX 14 13 5 0
BITMAP
1FF0
0860
0860
0860
0860
0860
1860
1060
1060
3060
2060
7FF8
C00C
ENDCHAR
STARTCHAR J2c56
ENCODING 1077
SWIDTH 1059 0
DWIDTH 24 0
BBX 12 12 6 1
BITMAP
0F00
30C0
6060
C030
C030
FFF0
C000
C000
C000
6030
30E0
1F80
ENDCHAR
STARTCHAR J2c58
ENCODING 1078
SWIDTH 1059 0
DWIDTH 24 0
BBX 16 12 4 1
BITMAP
C3C3
E187
1188
0990
0990
07F0
1998
1998
1998
318C
318C
E3C7
ENDCHAR
STARTCHAR J2c59
ENCODING 1079
SWIDTH 1059 0
DWIDTH 24 0
BBX 12 12 6 1
BITMAP
3F80
60C0
0060
0060
00C0
07C0
0060
0030
0030
C030
4060
3FC0
ENDCHAR
STARTCHAR J2c5a
ENCODING 1080
SWIDTH 1059 0
DWIDTH 24 0
BBX 12 12 6 1
BITMAP
F0F0
6060
6060
60E0
6160
6260
6460
6860
7060
6060
6060
F0F0
ENDCHAR
STARTCHAR J2c5b
ENCODING 1081
SWIDTH 1059 0
DWIDTH 24 0
BBX 12 14 6 0
BITMAP
0900
0600
F0F0
6060
6060
60E0
6160
6260
6460
6860
7060
6060
6060
F0F0
ENDCHAR
STARTCHAR J2c5c
ENCODING 1082
SWIDTH 1059 0
DWIDTH 24 0
BBX 11 12 6 1
BITMAP
F060
60E0
6180
6200
6400
7E00
6600
6300
6300
6180
60C0
F1E0
ENDCHAR
STARTCHAR J2c5d
ENCODING 1083
SWIDTH 1059 0
DWIDTH 24 0
BBX 12 12 6 1
BITMAP
1FF0
0860
0860
0860
0860
0860
0860
0860
0860
0860
D060
E0F0
ENDCHAR
STARTCHAR J2c5e
ENCODING 1084
SWIDTH 1059 0
DWIDTH 24 0
BBX 13 12 5 1
BITMAP
E038
6030
7070
7070
58F0
58B0
58B0
4DB0
4D30
4F30
4630
E678
ENDCHAR
STARTCHAR J2c5f
ENCODING 1085
SWIDTH 1059 0
DWIDTH 24 0
BBX 12 12 6 1
BITMAP
F0F0
6060
6060
6060
6060
7FE0
6060
6060
6060
6060
6060
F0F0
ENDCHAR
STARTCHAR J2c60
ENCODING 1086
SWIDTH 1059 0
DWIDTH 24 0
BBX 12 12 6 1
BITMAP
1F80
30C0
6060
C030
C030
C030
C030
C030
C030
6060
30C0
1F80
ENDCHAR
STARTCHAR J2c61
ENCODING 1087
SWIDTH 1059 0
DWIDTH 24 0
BBX 12 12 6 1
BITMAP
FFF0
6060
6060
6060
6060
6060
6060
6060
6060
6060
6060
F0F0
ENDCHAR
STARTCHAR J2c62
ENCODING 1088
SWIDTH 1059 0
DWIDTH 24 0
BBX 11 15 6 -2
BITMAP
EF80
70C0
6060
6060
6060
6060
6060
6060
6060
70C0
6F80
6000
6000
6000
F000
ENDCHAR
STARTCHAR J2c63
ENCODING 1089
SWIDTH 1059 0
DWIDTH 24 0
BBX 12 12 6 1
BITMAP
1F80
30E0
6060
C000
C000
C000
C000
C000
C000
6030
30E0
1F80
ENDCHAR
STARTCHAR J2c64
ENCODING 1090
SWIDTH 1059 0
DWIDTH 24 0
BBX 14 12 5 1
BITMAP
7FF8
4308
8304
0300
0300
0300
0300
0300
0300
0300
0300
0780
ENDCHAR
STARTCHAR J2c65
ENCODING 1091
SWIDTH 1059 0
DWIDTH 24 0
BBX 13 15 5 -2
BITMAP
F078
6030
3020
3060
1840
18C0
0C80
0D80
0700
0700
0200
0600
C400
CC00
7800
ENDCHAR
STARTCHAR J2c66
ENCODING 1092
SWIDTH 1059 0
DWIDTH 24 0
BBX 16 12 4 1
BITMAP
03C0
0180
3DBC
63C6
C183
C183
C183
C183
63C6
3DBC
0180
03C0
ENDCHAR
STARTCHAR J2c67
ENCODING 1093
SWIDTH 1059 0
DWIDTH 24 0
BBX 13 12 5 1
BITMAP
F078
6020
3040
1880
0D00
0600
0300
0580
08C0
1060
2030
F078
ENDCHAR
STARTCHAR J2c68
ENCODING 1094
SWIDTH 1059 0
DWIDTH 24 0
BBX 13 14 6 -1
BITMAP
F0F0
6060
6060
6060
6060
6060
6060
6060
6060
6060
6060
FFF0
0018
0008
ENDCHAR
STARTCHAR J2c69
ENCODING 1095
SWIDTH 1059 0
DWIDTH 24 0
BBX 12 12 6 1
BITMAP
F0F0
6060
6060
6060
6060
6060
6060
3FE0
0060
0060
0060
00F0
ENDCHAR
STARTCHAR J2c6a
ENCODING 1096
SWIDTH 1059 0
DWIDTH 24 0
BBX 20 12 2 1
BITMAP
F0F0F0
606060
606060
606060
606060
606060
606060
606060
606060
606060
606060
FFFFF0
ENDCHAR
STARTCHAR J2c6b
ENCODING 1097
SWIDTH 1059 0
DWIDTH 24 0
BBX 21 14 2 -1
BITMAP
F0F0F0
606060
606060
606060
606060
606060
606060
606060
606060
606060
606060
FFFFF0
000018
000008
ENDCHAR
STARTCHAR J2c6c
ENCODING 1098
SWIDTH 1059 0
DWIDTH 24 0
BBX 18 12 3 1
BITMAP
7FC000
618000
C18000
018000
018000
01FF00
018180
0180C0
0180C0
0180C0
018180
03FF00
ENDCHAR
STARTCHAR J2c6d
ENCODING 1099
SWIDTH 1059 0
DWIDTH 24 0
BBX 17 12 3 1
BITMAP
F00780
600300
600300
600300
600300
7FC300
606300
603300
603300
603300
606300
FFC780
ENDCHAR
STARTCHAR J2c6e
ENCODING 1100
SWIDTH 1059 0
DWIDTH 24 0
BBX 12 12 6 1
BITMAP
F000
6000
6000
6000
6000
7FC0
6060
6030
6030
6030
6060
FFC0
ENDCHAR
STARTCHAR J2c6f
ENCODING 1101
SWIDTH 1059 0
DWIDTH 24 0
BBX 12 12 6 1
BITMAP
3FC0
6060
4030
0030
38F0
0730
0030
0030
C030
C030
6060
3FC0
ENDCHAR
STARTCHAR J2c70
ENCODING 1102
SWIDTH 1059 0
DWIDTH 24 0
BBX 17 12 3 1
BITMAP
F0FC00
618600
630300
660180
660180
7E0180
660180
660180
660180
630300
618600
F0FC00
ENDCHAR
STARTCHAR J2c71
ENCODING 1103
SWIDTH 1059 0
DWIDTH 24 0
BBX 12 12 6 1
BITMAP
1FF0
3060
6060
6060
6060
3060
1FE0
1860
1860
3060
6060
E0F0
ENDCHAR
STARTCHAR J2c57
ENCODING 1105
SWIDTH 1059 0
DWIDTH 24 0
BBX 12 15 6 0
BITMAP
18C0
18C0
0000
0F00
30C0
6060
C030
C030
FFF0
C000
C000
C000
6030
30E0
1F80
ENDCHAR
STARTCHAR J212a
ENCODING 8213
SWIDTH 1059 0
DWIDTH 24 0
BBX 22 1 1 10
BITMAP
FFFFFC
ENDCHAR
STARTCHAR J212e
ENCODING 8216
SWIDTH 1059 0
DWIDTH 24 0
BBX 3 7 20 14
BITMAP
20
40
C0
C0
E0
E0
40
ENDCHAR
STARTCHAR J212f
ENCODING 8217
SWIDTH 1059 0
DWIDTH 24 0
BBX 3 7 2 14
BITMAP
40
E0
E0
60
60
40
80
ENDCHAR
STARTCHAR J2130
ENCODING 8220
SWIDTH 1059 0
DWIDTH 24 0
BBX 8 7 14 14
BITMAP
21
42
C6
C6
E7
E7
42
ENDCHAR
STARTCHAR J2131
ENCODING 8221
SWIDTH 1059 0
DWIDTH 24 0
BBX 8 7 2 14
BITMAP
42
E7
E7
63
63
C6
84
ENDCHAR
STARTCHAR J2253
ENCODING 8224
SWIDTH 1059 0
DWIDTH 24 0
BBX 18 20 3 1
BITMAP
00C000
00C000
00C000
00C000
00C000
00C000
FFFFC0
FFFFC0
00C000
00C000
00C000
00C000
00C000
00C000
00C000
00C000
00C000
00C000
00C000
00C000
ENDCHAR
STARTCHAR J2254
ENCODING 8225
SWIDTH 1059 0
DWIDTH 24 0
BBX 18 20 3 1
BITMAP
00C000
00C000
00C000
00C000
FFFFC0
FFFFC0
00C000
00C000
FFFFC0
FFFFC0
00C000
00C000
00C000
00C000
00C000
00C000
00C000
00C000
00C000
00C000
ENDCHAR
STARTCHAR J2125
ENCODING 8229
SWIDTH 1059 0
DWIDTH 24 0
BBX 13 4 5 9
BITMAP
6030
F078
F078
6030
ENDCHAR
STARTCHAR J2126
ENCODING 8230
SWIDTH 1059 0
DWIDTH 24 0
BBX 18 4 3 9
BITMAP
60C180
F1E3C0
F1E3C0
60C180
ENDCHAR
STARTCHAR J2236
ENCODING 8240
SWIDTH 1059 0
DWIDTH 24 0
BBX 23 20 0 1
BITMAP
070300
198600
318600
318C00
631800
631800
663000
386000
006000
00C000
018000
030000
03381C
06CC66
0D8CC6
198CC6
1B198C
33198C
633198
C1C0E0
ENDCHAR
STARTCHAR J2147
ENCODING 8242
SWIDTH 1059 0
DWIDTH 24 0
BBX 5 6 2 15
BITMAP
18
38
30
60
40
80
ENDCHAR
STARTCHAR J2148
ENCODING 8243
SWIDTH 1059 0
DWIDTH 24 0
BBX 10 6 1 15
BITMAP
18C0
39C0
3180
6300
4200
8400
ENDCHAR
STARTCHAR J2158
ENCODING 8251
SWIDTH 1059 0
DWIDTH 24 0
BBX 18 18 3 2
BITMAP
00C000
C1E180
60C300
300600
180C00
0C1800
063000
436080
E1C1C0
E1C1C0
436080
063000
0C1800
180C00
300600
60C300
C1E180
00C000
ENDCHAR
STARTCHAR J2979
ENCODING 8308
SWIDTH 1059 0
DWIDTH 24 0
BBX 9 9 1 13
BITMAP
0600
0E00
1600
2600
4600
8600
FF80
0600
0F00
ENDCHAR
STARTCHAR J297a
ENCODING 8319
SWIDTH 1059 0
DWIDTH 24 0
BBX 10 8 1 14
BITMAP
6700
F980
6180
6180
6180
6180
6180
F3C0
ENDCHAR
STARTCHAR J297b
ENCODING 8321
SWIDTH 1059 0
DWIDTH 24 0
BBX 4 9 1 -1
BITMAP
60
E0
60
60
60
60
60
60
F0
ENDCHAR
STARTCHAR J297c
ENCODING 8322
SWIDTH 1059 0
DWIDTH 24 0
BBX 8 9 1 -1
BITMAP
7E
C3
C3
06
1C
30
61
C1
FF
ENDCHAR
STARTCHAR J297d
ENCODING 8323
SWIDTH 1059 0
DWIDTH 24 0
BBX 8 9 1 -1
BITMAP
7E
C3
C3
0E
0E
03
C3
C3
7E
ENDCHAR
STARTCHAR J297e
ENCODING 8324
SWIDTH 1059 0
DWIDTH 24 0
BBX 9 9 1 -1
BITMAP
0600
0E00
1600
2600
4600
8600
FF80
0600
0F00
ENDCHAR
STARTCHAR J2149
ENCODING 8451
SWIDTH 1059 0
DWIDTH 24 0
BBX 22 19 1 1
BITMAP
780000
CC0000
CC1F18
787FD8
00E0F8
01C038
01C018
038008
038000
038000
038000
038000
038000
038000
01C00C
01C018
00F070
007FE0
001F80
ENDCHAR
STARTCHAR J2235
ENCODING 8457
SWIDTH 1059 0
DWIDTH 24 0
BBX 21 20 1 1
BITMAP
780000
CC0000
CDFFF8
787018
007008
007008
007000
007060
007060
007FE0
0070C0
0070C0
007000
007000
007000
007000
007000
007000
007000
01FC00
ENDCHAR
STARTCHAR J2724
ENCODING 8467
SWIDTH 1059 0
DWIDTH 24 0
BBX 14 20 5 1
BITMAP
00F0
0198
0318
0318
0618
0618
0618
0618
0C30
0C30
0C60
0C60
0CC4
0D84
0F04
0E0C
0C08
1C18
2630
C3E0
ENDCHAR
STARTCHAR J2260
ENCODING 8470
SWIDTH 1059 0
DWIDTH 24 0
BBX 22 19 1 1
BITMAP
E1E000
60C000
70C000
70C000
70C000
78C000
78C000
6CC7C0
6CCC60
6CD830
66D830
66D830
63D830
63D830
61D830
61D830
61D830
60CC6C
F0C7CC
ENDCHAR
STARTCHAR J2265
ENCODING 8481
SWIDTH 1059 0
DWIDTH 24 0
BBX 23 18 0 1
BITMAP
7FE00C
66601C
86100C
06000C
06000C
06000C
06000C
06000C
061F0C
06318C
0660CC
0660CC
067FCC
06600C
06600C
06606C
0631CC
0F1F1E
ENDCHAR
STARTCHAR J2262
ENCODING 8482
SWIDTH 1059 0
DWIDTH 24 0
BBX 24 19 0 1
BITMAP
FFDC07
FFCC06
8C4C0E
8C4E0E
0C0E0E
0C0E0E
0C0B16
0C0B16
0C0B16
0C09A6
0C09A6
0C09A6
0C09E6
0C08C6
0C08C6
0C0806
0C0806
0C0806
1E1C0F
ENDCHAR
STARTCHAR J2759
ENCODING 8486
SWIDTH 1059 0
DWIDTH 24 0
BBX 20 19 2 1
BITMAP
01F800
070E00
0E0700
1C0380
3801C0
3801C0
3801C0
3801C0
3801C0
3801C0
3801C0
3801C0
1C0380
0C0300
060600
810810
C10830
7F0FE0
7E07E0
ENDCHAR
STARTCHAR J214a
ENCODING 8491
SWIDTH 1059 0
DWIDTH 24 0
BBX 19 21 3 1
BITMAP
01E000
021000
021000
01E000
000000
00C000
00E000
01E000
017000
037000
023800
063800
041C00
041C00
0C0E00
0FFE00
180E00
100700
300700
200380
F80FE0
ENDCHAR
STARTCHAR J2877
ENCODING 8531
SWIDTH 1059 0
DWIDTH 24 0
BBX 23 22 0 -1
BITMAP
180006
78000C
180018
180030
180060
1800C0
180180
180300
180600
180C00
1818F8
7E338C
006306
00C006
01800C
030038
06000C
0C0006
180006
300306
60038C
C000F8
ENDCHAR
STARTCHAR J2878
ENCODING 8532
SWIDTH 1059 0
DWIDTH 24 0
BBX 23 22 0 -1
BITMAP
1F8006
70C00C
60C018
00C030
018060
0300C0
0E0180
180300
304600
604C00
7FD8F8
7FF38C
006306
00C006
01800C
030038
06000C
0C0006
180006
300306
60038C
C000F8
ENDCHAR
STARTCHAR J287b
ENCODING 8539
SWIDTH 1059 0
DWIDTH 24 0
BBX 23 22 0 -1
BITMAP
180006
78000C
180018
180030
180060
1800C0
180180
180300
180600
180C00
1819F0
7E3318
00660C
00C60C
018318
0303F8
06060C
0C0C06
180C06
300C06
60060C
C003F8
ENDCHAR
STARTCHAR J287c
ENCODING 8540
SWIDTH 1059 0
DWIDTH 24 0
BBX 23 22 0 -1
BITMAP
1F0006
71800C
60C018
00C030
018060
0700C0
018180
00C300
00C600
60CC00
7199F0
1F3318
00660C
00C60C
018318
0303F8
06060C
0C0C06
180C06
300C06
60060C
C003F8
ENDCHAR
STARTCHAR J287d
ENCODING 8541
SWIDTH 1059 0
DWIDTH 24 0
BBX 23 22 0 -1
BITMAP
60C006
7F800C
600018
600030
6F0060
7180C0
40C180
00C300
00C600
60CC00
7199F0
1F3318
00660C
00C60C
018318
0303F8
06060C
0C0C06
180C06
300C06
60060C
C003F8
ENDCHAR
STARTCHAR J287e
ENCODING 8542
SWIDTH 1059 0
DWIDTH 24 0
BBX 23 22 0 -1
BITMAP
3FE006
3FE00C
204018
408030
008060
0180C0
010180
030300
030600
060C00
0619F0
063318
00660C
00C60C
018318
0303F8
06060C
0C0C06
180C06
300C06
60060C
C003F8
ENDCHAR
STARTCHAR J2530
ENCODING 8544
SWIDTH 1059 0
DWIDTH 24 0
BBX 6 20 9 1
BITMAP
FC
30
30
30
30
30
30
30
30
30
30
30
30
30
30
30
30
30
30
FC
ENDCHAR
STARTCHAR J2531
ENCODING 8545
SWIDTH 1059 0
DWIDTH 24 0
BBX 11 20 6 1
BITMAP
FFE0
3180
3180
3180
3180
3180
3180
3180
3180
3180
3180
3180
3180
3180
3180
3180
3180
3180
3180
FFE0
ENDCHAR
STARTCHAR J2532
ENCODING 8546
SWIDTH 1059 0
DWIDTH 24 0
BBX 14 20 5 1
BITMAP
FFFC
3330
3330
3330
3330
3330
3330
3330
3330
3330
3330
3330
3330
3330
3330
3330
3330
3330
3330
FFFC
ENDCHAR
STARTCHAR J2533
ENCODING 8547
SWIDTH 1059 0
DWIDTH 24 0
BBX 18 20 3 1
BITMAP
FFCFC0
330300
330300
330300
330300
330300
318600
318600
318600
318600
318600
30CC00
30CC00
30CC00
30CC00
307800
307800
303000
303000
FC3000
ENDCHAR
STARTCHAR J2534
ENCODING 8548
SWIDTH 1059 0
DWIDTH 24 0
BBX 16 20 4 1
BITMAP
FC3F
300C
300C
300C
1818
1818
1818
1818
0C30
0C30
0C30
0660
0660
0660
03C0
03C0
03C0
0180
0180
0180
ENDCHAR
STARTCHAR J2535
ENCODING 8549
SWIDTH 1059 0
DWIDTH 24 0
BBX 18 20 3 1
BITMAP
FCFFC0
303300
303300
303300
303300
186300
186300
186300
186300
186300
0CC300
0CC300
0CC300
0CC300
0CC300
078300
078300
030300
030300
030FC0
ENDCHAR
STARTCHAR J2536
ENCODING 8550
SWIDTH 1059 0
DWIDTH 24 0
BBX 21 20 1 1
BITMAP
FC7FF8
303660
303660
303660
303660
186660
186660
186660
186660
186660
0CC660
0CC660
0CC660
0CC660
0CC660
078660
078660
030660
030660
031FF8
ENDCHAR
STARTCHAR J2537
ENCODING 8551
SWIDTH 1059 0
DWIDTH 24 0
BBX 24 20 0 1
BITMAP
F0FFFF
606CCC
606CCC
606CCC
606CCC
30CCCC
30CCCC
30CCCC
30CCCC
30CCCC
198CCC
198CCC
198CCC
198CCC
198CCC
0F0CCC
0F0CCC
060CCC
060CCC
063FFF
ENDCHAR
STARTCHAR J2538
ENCODING 8552
SWIDTH 1059 0
DWIDTH 24 0
BBX 19 20 2 1
BITMAP
FF07E0
360180
330300
330300
318600
318C00
30CC00
30D800
307800
303000
307000
307800
30D800
30CC00
318C00
330600
330300
360300
3C0180
FF0FE0
ENDCHAR
STARTCHAR J2539
ENCODING 8553
SWIDTH 1059 0
DWIDTH 24 0
BBX 18 20 3 1
BITMAP
FC0FC0
300300
180600
180600
0C0C00
061800
031800
033000
01B000
01E000
00C000
01E000
033000
033000
061800
0C0C00
0C0600
180600
300300
FC0FC0
ENDCHAR
STARTCHAR J2521
ENCODING 8560
SWIDTH 1059 0
DWIDTH 24 0
BBX 4 20 10 1
BITMAP
60
60
00
00
00
00
00
60
E0
60
60
60
60
60
60
60
60
60
60
F0
ENDCHAR
STARTCHAR J2522
ENCODING 8561
SWIDTH 1059 0
DWIDTH 24 0
BBX 10 20 7 1
BITMAP
6180
6180
0000
0000
0000
0000
6180
E380
6180
6180
6180
6180
6180
6180
6180
6180
6180
6180
6180
F3C0
ENDCHAR
STARTCHAR J2523
ENCODING 8562
SWIDTH 1059 0
DWIDTH 24 0
BBX 14 20 5 1
BITMAP
6318
6318
0000
0000
0000
0000
6318
E738
6318
6318
6318
6318
6318
6318
6318
6318
6318
6318
6318
F7BC
ENDCHAR
STARTCHAR J2524
ENCODING 8563
SWIDTH 1059 0
DWIDTH 24 0
BBX 17 20 3 1
BITMAP
600000
600000
000000
000000
000000
000000
678780
E30300
630300
618600
618600
618600
60CC00
60CC00
60CC00
607800
607800
603000
603000
F03000
ENDCHAR
STARTCHAR J2525
ENCODING 8564
SWIDTH 1059 0
DWIDTH 24 0
BBX 12 14 6 1
BITMAP
F0F0
6060
6060
30C0
30C0
30C0
1980
1980
1980
0F00
0F00
0600
0600
0600
ENDCHAR
STARTCHAR J2526
ENCODING 8565
SWIDTH 1059 0
DWIDTH 24 0
BBX 17 20 3 1
BITMAP
000300
000300
000000
000000
000000
000000
F0F300
606700
606300
30C300
30C300
30C300
198300
198300
198300
0F0300
0F0300
060300
060300
060780
ENDCHAR
STARTCHAR J2527
ENCODING 8566
SWIDTH 1059 0
DWIDTH 24 0
BBX 22 20 1 1
BITMAP
000318
000318
000000
000000
000000
000000
F0F318
606738
606318
30C318
30C318
30C318
198318
198318
198318
0F0318
0F0318
060318
060318
0607BC
ENDCHAR
STARTCHAR J2528
ENCODING 8567
SWIDTH 1059 0
DWIDTH 24 0
BBX 24 20 0 1
BITMAP
000666
000666
000000
000000
000000
000000
F0F666
606EEE
606666
30C666
30C666
30C666
30C666
198666
198666
198666
0F0666
0F0666
060666
060FFF
ENDCHAR
STARTCHAR J2529
ENCODING 8568
SWIDTH 1059 0
DWIDTH 24 0
BBX 19 20 2 1
BITMAP
600000
600000
000000
000000
000000
000000
63C1E0
E180C0
60C180
606300
606300
603600
601C00
601C00
603600
606300
606300
60C180
6180C0
F3C1E0
ENDCHAR
STARTCHAR J252a
ENCODING 8569
SWIDTH 1059 0
DWIDTH 24 0
BBX 14 14 5 1
BITMAP
F03C
6018
3030
1860
0CC0
0780
0300
0300
0780
0CC0
1860
3030
6018
F03C
ENDCHAR
STARTCHAR J2167
ENCODING 8592
SWIDTH 1059 0
DWIDTH 24 0
BBX 22 12 1 5
BITMAP
040000
080000
180000
300000
600000
FFFFFC
FFFFFC
600000
300000
180000
080000
040000
ENDCHAR
STARTCHAR J2168
ENCODING 8593
SWIDTH 1059 0
DWIDTH 24 0
BBX 12 20 6 1
BITMAP
0600
0F00
1F80
36C0
6660
8610
0600
0600
0600
0600
0600
0600
0600
0600
0600
0600
0600
0600
0600
0600
ENDCHAR
STARTCHAR J2166
ENCODING 8594
SWIDTH 1059 0
DWIDTH 24 0
BBX 22 12 1 5
BITMAP
000080
000040
000060
000030
000018
FFFFFC
FFFFFC
000018
000030
000060
000040
000080
ENDCHAR
STARTCHAR J2169
ENCODING 8595
SWIDTH 1059 0
DWIDTH 24 0
BBX 12 20 6 1
BITMAP
0600
0600
0600
0600
0600
0600
0600
0600
0600
0600
0600
0600
0600
0600
8610
6660
36C0
1F80
0F00
0600
ENDCHAR
STARTCHAR J216a
ENCODING 8596
SWIDTH 1059 0
DWIDTH 24 0
BBX 22 12 1 5
BITMAP
040080
080040
180060
300030
600018
FFFFFC
FFFFFC
600018
300030
180060
080040
040080
ENDCHAR
STARTCHAR J2255
ENCODING 8597
SWIDTH 1059 0
DWIDTH 24 0
BBX 12 20 6 1
BITMAP
0600
0F00
1F80
36C0
6660
8610
0600
0600
0600
0600
0600
0600
0600
0600
8610
4620
36C0
1F80
0F00
0600
ENDCHAR
STARTCHAR J2258
ENCODING 8598
SWIDTH 1059 0
DWIDTH 24 0
BBX 20 20 2 1
BITMAP
FF8000
FE0000
F00000
F80000
DC0000
CE0000
870000
838000
01C000
00E000
007000
003800
001C00
000E00
000700
000380
0001C0
0000E0
000070
000020
ENDCHAR
STARTCHAR J2256
ENCODING 8599
SWIDTH 1059 0
DWIDTH 24 0
BBX 20 20 2 1
BITMAP
001FF0
0003F0
0000F0
0001F0
0003B0
000730
000E10
001C10
003800
007000
00E000
01C000
038000
070000
0E0000
1C0000
380000
700000
E00000
400000
ENDCHAR
STARTCHAR J2259
ENCODING 8600
SWIDTH 1059 0
DWIDTH 24 0
BBX 20 20 2 1
BITMAP
400000
E00000
700000
380000
1C0000
0E0000
070000
038000
01C000
00E000
007000
003800
001C10
000E10
000730
0003B0
0001F0
0000F0
0003F0
000FF0
ENDCHAR
STARTCHAR J2257
ENCODING 8601
SWIDTH 1059 0
DWIDTH 24 0
BBX 20 20 2 1
BITMAP
000020
000070
0000E0
0001C0
000380
000700
000E00
001C00
003800
007000
00E000
01C000
838000
870000
CE0000
DC0000
F80000
F00000
FE0000
FF8000
ENDCHAR
STARTCHAR J2221
ENCODING 8658
SWIDTH 1059 0
DWIDTH 24 0
BBX 21 13 1 4
BITMAP
000600
000300
000180
FFFFC0
000060
000030
000018
000030
000060
FFFFC0
000180
000300
000600
ENDCHAR
STARTCHAR J2222
ENCODING 8660
SWIDTH 1059 0
DWIDTH 24 0
BBX 22 13 1 4
BITMAP
030300
060180
0C00C0
1FFFE0
300030
600018
C0000C
600018
300030
1FFFE0
0C00C0
060180
030300
ENDCHAR
STARTCHAR J2223
ENCODING 8704
SWIDTH 1059 0
DWIDTH 24 0
BBX 21 19 1 1
BITMAP
C00018
600030
600030
300060
300060
1800C0
1FFFC0
0C0180
0C0180
060300
060300
030600
030600
018C00
018C00
00D800
00D800
007000
007000
ENDCHAR
STARTCHAR J2153
ENCODING 8706
SWIDTH 1059 0
DWIDTH 24 0
BBX 12 18 6 2
BITMAP
07C0
1860
3030
0030
0030
0030
0030
0F30
30E0
6060
6060
C060
C0C0
C0C0
C180
C180
6300
3E00
ENDCHAR
STARTCHAR J2224
ENCODING 8707
SWIDTH 1059 0
DWIDTH 24 0
BBX 14 17 5 2
BITMAP
FFFC
000C
000C
000C
000C
000C
000C
000C
FFFC
000C
000C
000C
000C
000C
000C
000C
FFFC
ENDCHAR
STARTCHAR J2154
ENCODING 8711
SWIDTH 1059 0
DWIDTH 24 0
BBX 18 18 3 2
BITMAP
FFFFC0
600080
300180
300100
180300
180200
0C0200
0C0600
060400
060C00
030800
031800
019000
01B000
00A000
00E000
004000
004000
ENDCHAR
STARTCHAR J2174
ENCODING 8712
SWIDTH 1059 0
DWIDTH 24 0
BBX 18 13 3 4
BITMAP
0FFFC0
380000
600000
C00000
C00000
C00000
FFFFC0
C00000
C00000
C00000
600000
380000
0FFFC0
ENDCHAR
STARTCHAR J2175
ENCODING 8715
SWIDTH 1059 0
DWIDTH 24 0
BBX 18 13 3 4
BITMAP
FFFC00
000700
000180
0000C0
0000C0
0000C0
FFFFC0
0000C0
0000C0
0000C0
000180
000700
FFFC00
ENDCHAR
STARTCHAR J2233
ENCODING 8719
SWIDTH 1059 0
DWIDTH 24 0
BBX 21 16 1 3
BITMAP
FFFFF8
060300
060300
060300
060300
060300
060300
060300
060300
060300
060300
060300
060300
060300
060300
060300
ENDCHAR
STARTCHAR J2232
ENCODING 8721
SWIDTH 1059 0
DWIDTH 24 0
BBX 17 16 3 3
BITMAP
FFFF00
600100
300080
180080
0C0000
060000
030000
018000
018000
030000
060000
0C0000
180080
300080
600100
FFFF00
ENDCHAR
STARTCHAR J216e
ENCODING 8730
SWIDTH 1059 0
DWIDTH 24 0
BBX 21 20 1 1
BITMAP
000FF8
001800
001000
001000
003000
002000
006000
004000
004000
00C000
208000
618000
610000
B10000
330000
1A0000
1A0000
1E0000
0C0000
0C0000
ENDCHAR
STARTCHAR J2170
ENCODING 8733
SWIDTH 1059 0
DWIDTH 24 0
BBX 22 12 1 5
BITMAP
1F03F0
318618
60CC0C
C05800
C07800
C03000
C01000
C05800
C05800
60CC0C
318618
1F03E0
ENDCHAR
STARTCHAR J2144
ENCODING 8734
SWIDTH 1059 0
DWIDTH 24 0
BBX 22 12 1 5
BITMAP
1F03E0
318630
60CC18
C0780C
C0300C
C0300C
C0300C
C0300C
C0780C
60CC18
318630
1F03E0
ENDCHAR
STARTCHAR J2150
ENCODING 8736
SWIDTH 1059 0
DWIDTH 24 0
BBX 21 17 1 3
BITMAP
0000C0
000180
000300
000600
000C00
001800
003000
006000
00C000
018000
030000
060000
0C0000
180000
300000
600000
FFFFF8
ENDCHAR
STARTCHAR J212b
ENCODING 8741
SWIDTH 1059 0
DWIDTH 24 0
BBX 7 22 9 -1
BITMAP
C6
C6
C6
C6
C6
C6
C6
C6
C6
C6
C6
C6
C6
C6
C6
C6
C6
C6
C6
C6
C6
C6
ENDCHAR
STARTCHAR J217c
ENCODING 8743
SWIDTH 1059 0
DWIDTH 24 0
BBX 19 17 2 2
BITMAP
00E000
00E000
01F000
01B000
031800
031800
060C00
060C00
0C0600
0C0600
180300
180300
300180
300180
6000C0
6000C0
C00060
ENDCHAR
STARTCHAR J217d
ENCODING 8744
SWIDTH 1059 0
DWIDTH 24 0
BBX 19 17 2 2
BITMAP
C00060
6000C0
6000C0
300180
300180
180300
180300
0C0600
0C0600
060C00
060C00
031800
031800
01B000
01B000
00E000
00E000
ENDCHAR
STARTCHAR J217b
ENCODING 8745
SWIDTH 1059 0
DWIDTH 24 0
BBX 15 18 4 2
BITMAP
0FE0
3838
600C
C006
C006
C006
C006
C006
C006
C006
C006
C006
C006
C006
C006
C006
C006
C006
ENDCHAR
STARTCHAR J217a
ENCODING 8746
SWIDTH 1059 0
DWIDTH 24 0
BBX 15 18 4 2
BITMAP
C006
C006
C006
C006
C006
C006
C006
C006
C006
C006
C006
C006
C006
C006
C006
600C
3838
0FE0
ENDCHAR
STARTCHAR J2172
ENCODING 8747
SWIDTH 1059 0
DWIDTH 24 0
BBX 6 20 9 1
BITMAP
18
3C
4C
40
40
60
60
60
70
30
30
30
18
18
18
08
08
C8
F0
60
ENDCHAR
STARTCHAR J2173
ENCODING 8748
SWIDTH 1059 0
DWIDTH 24 0
BBX 14 20 5 1
BITMAP
1818
3C3C
4C4C
4040
4040
6060
6060
6060
7070
3030
3030
3030
1818
1818
1818
0808
0808
C8C8
F0F0
6060
ENDCHAR
STARTCHAR J2231
ENCODING 8750
SWIDTH 1059 0
DWIDTH 24 0
BBX 8 20 8 1
BITMAP
0C
1E
26
20
20
30
3C
72
99
99
99
99
4E
3C
0C
04
04
64
78
30
ENDCHAR
STARTCHAR J2145
ENCODING 8756
SWIDTH 1059 0
DWIDTH 24 0
BBX 16 14 4 4
BITMAP
0180
03C0
03C0
0180
0000
0000
0000
0000
0000
0000
6006
F00F
F00F
6006
ENDCHAR
STARTCHAR J2171
ENCODING 8757
SWIDTH 1059 0
DWIDTH 24 0
BBX 18 15 3 3
BITMAP
600180
F003C0
F003C0
600180
000000
000000
000000
000000
000000
000000
000000
00C000
01E000
01E000
00C000
ENDCHAR
STARTCHAR J212d
ENCODING 8764
SWIDTH 1059 0
DWIDTH 24 0
BBX 19 4 3 9
BITMAP
1F0000
71C060
C071C0
001F00
ENDCHAR
STARTCHAR J216f
ENCODING 8765
SWIDTH 1059 0
DWIDTH 24 0
BBX 22 12 1 5
BITMAP
1F03E0
318630
600C18
C0180C
C0180C
C0300C
C0300C
C0600C
C06018
60C018
318630
1F03E0
ENDCHAR
STARTCHAR J2156
ENCODING 8786
SWIDTH 1059 0
DWIDTH 24 0
BBX 18 16 3 3
BITMAP
100000
380000
100000
000000
000000
FFFFC0
000000
000000
000000
000000
FFFFC0
000000
000000
000200
000700
000200
ENDCHAR
STARTCHAR J2141
ENCODING 8800
SWIDTH 1059 0
DWIDTH 24 0
BBX 18 16 3 3
BITMAP
300000
180000
0C0000
0C0000
060000
FFFFC0
030000
018000
00C000
FFFFC0
006000
003000
001800
001800
000C00
000600
ENDCHAR
STARTCHAR J2155
ENCODING 8801
SWIDTH 1059 0
DWIDTH 24 0
BBX 18 11 3 5
BITMAP
FFFFC0
000000
000000
000000
000000
FFFFC0
000000
000000
000000
000000
FFFFC0
ENDCHAR
STARTCHAR J2142
ENCODING 8804
SWIDTH 1059 0
DWIDTH 24 0
BBX 20 16 2 2
BITMAP
0001C0
000700
001C00
007000
01C000
070000
1C0000
700000
1C0000
078000
00F000
001E00
0003C0
000000
000000
FFFFF0
ENDCHAR
STARTCHAR J2143
ENCODING 8805
SWIDTH 1059 0
DWIDTH 24 0
BBX 20 16 2 2
BITMAP
380000
0E0000
038000
00E000
003800
000E00
000380
0000E0
000380
001E00
00F000
078000
3C0000
000000
000000
FFFFF0
ENDCHAR
STARTCHAR J216c
ENCODING 8810
SWIDTH 1059 0
DWIDTH 24 0
BBX 16 22 7 -1
BITMAP
0030
0063
00C6
018C
0318
0630
0C60
18C0
3180
6300
C600
C600
6300
3180
18C0
0C60
0630
0318
018C
00C6
0063
0030
ENDCHAR
STARTCHAR J216d
ENCODING 8811
SWIDTH 1059 0
DWIDTH 24 0
BBX 16 22 1 -1
BITMAP
0C00
C600
6300
3180
18C0
0C60
0630
0318
018C
00C6
0063
0063
00C6
018C
0318
0630
0C60
18C0
3180
6300
C600
0C00
ENDCHAR
STARTCHAR J2178
ENCODING 8834
SWIDTH 1059 0
DWIDTH 24 0
BBX 18 13 3 4
BITMAP
0FFFC0
380000
600000
C00000
C00000
C00000
C00000
C00000
C00000
C00000
600000
380000
0FFFC0
ENDCHAR
STARTCHAR J2179
ENCODING 8835
SWIDTH 1059 0
DWIDTH 24 0
BBX 18 13 3 4
BITMAP
FFFC00
000700
000180
0000C0
0000C0
0000C0
0000C0
0000C0
0000C0
0000C0
000180
000700
FFFC00
ENDCHAR
STARTCHAR J2176
ENCODING 8838
SWIDTH 1059 0
DWIDTH 24 0
BBX 18 16 3 3
BITMAP
0FFFC0
380000
600000
C00000
C00000
C00000
C00000
C00000
C00000
600000
380000
0FFFC0
000000
000000
000000
FFFFC0
ENDCHAR
STARTCHAR J2177
ENCODING 8839
SWIDTH 1059 0
DWIDTH 24 0
BBX 18 16 3 3
BITMAP
FFFC00
000700
000180
0000C0
0000C0
0000C0
0000C0
0000C0
0000C0
000180
000700
FFFC00
000000
000000
000000
FFFFC0
ENDCHAR
STARTCHAR J2241
ENCODING 8857
SWIDTH 1059 0
DWIDTH 24 0
BBX 20 18 2 2
BITMAP
03FC00
0E0700
180180
3000C0
600060
600060
C0F030
C1F830
C1F830
C1F830
C1F830
C0F030
600060
600060
3000C0
180180
0E0700
03FC00
ENDCHAR
STARTCHAR J2151
ENCODING 8869
SWIDTH 1059 0
DWIDTH 24 0
BBX 18 17 3 3
BITMAP
00C000
00C000
00C000
00C000
00C000
00C000
00C000
00C000
00C000
00C000
00C000
00C000
00C000
00C000
00C000
00C000
FFFFC0
ENDCHAR
STARTCHAR J2152
ENCODING 8978
SWIDTH 1059 0
DWIDTH 24 0
BBX 22 6 1 10
BITMAP
01FE00
070380
1C00E0
300030
600018
C0000C
ENDCHAR
STARTCHAR J2867
ENCODING 9312
SWIDTH 1059 0
DWIDTH 24 0
BBX 22 21 1 0
BITMAP
03FF00
0E01C0
183060
30F030
603018
603018
C0300C
C0300C
C0300C
C0300C
C0300C
C0300C
C0300C
C0300C
C0300C
603018
603018
30FC30
180060
0E01C0
03FF00
ENDCHAR
STARTCHAR J2868
ENCODING 9313
SWIDTH 1059 0
DWIDTH 24 0
BBX 22 21 1 0
BITMAP
03FF00
0E01C0
18FC60
318630
630318
638318
C1030C
C0060C
C00C0C
C0380C
C0600C
C0C00C
C1800C
C3000C
C3018C
630318
63FF18
300030
180060
0E01C0
03FF00
ENDCHAR
STARTCHAR J2869
ENCODING 9314
SWIDTH 1059 0
DWIDTH 24 0
BBX 22 21 1 0
BITMAP
03FF00
0E01C0
18F860
318C30
630618
630618
C0060C
C0060C
C00C0C
C0780C
C00E0C
C0030C
C0030C
C0030C
C0030C
630318
638618
30F830
180060
0E01C0
03FF00
ENDCHAR
STARTCHAR J286a
ENCODING 9315
SWIDTH 1059 0
DWIDTH 24 0
BBX 22 21 1 0
BITMAP
03FF00
0E01C0
181860
303830
603818
605818
C0980C
C0980C
C1180C
C1180C
C2180C
C2180C
C4180C
CFFF0C
C0180C
601818
601818
307E30
180060
0E01C0
03FF00
ENDCHAR
STARTCHAR J286b
ENCODING 9316
SWIDTH 1059 0
DWIDTH 24 0
BBX 22 21 1 0
BITMAP
03FF00
0E01C0
190660
31FC30
618018
618018
C1800C
C1800C
C1BC0C
C1C60C
C1830C
C0030C
C0030C
C0030C
C0030C
618318
618618
307830
180060
0E01C0
03FF00
ENDCHAR
STARTCHAR J286c
ENCODING 9317
SWIDTH 1059 0
DWIDTH 24 0
BBX 22 21 1 0
BITMAP
03FF00
0E01C0
187C60
30C630
618718
618718
C1800C
C1800C
C1800C
C1BC0C
C1C60C
C1830C
C1830C
C1830C
C1830C
618318
60C618
303830
180060
0E01C0
03FF00
ENDCHAR
STARTCHAR J286d
ENCODING 9318
SWIDTH 1059 0
DWIDTH 24 0
BBX 22 21 1 0
BITMAP
03FF00
0E01C0
180060
33FF30
630318
620318
C2060C
C0060C
C00C0C
C0180C
C0180C
C0300C
C0300C
C0300C
C0300C
603018
603018
303030
180060
0E01C0
03FF00
ENDCHAR
STARTCHAR J286e
ENCODING 9319
SWIDTH 1059 0
DWIDTH 24 0
BBX 22 21 1 0
BITMAP
03FF00
0E01C0
187860
318630
630318
630318
C3030C
C1860C
C0EC0C
C0380C
C0CC0C
C1860C
C3030C
C3030C
C3030C
630318
618618
30FC30
180060
0E01C0
03FF00
ENDCHAR
STARTCHAR J286f
ENCODING 9320
SWIDTH 1059 0
DWIDTH 24 0
BBX 22 21 1 0
BITMAP
03FF00
0E01C0
18F860
318C30
630618
630618
C3060C
C3060C
C3060C
C18E0C
C0F60C
C0060C
C0060C
C0060C
C1060C
638618
618C18
30F830
180060
0E01C0
03FF00
ENDCHAR
STARTCHAR J2870
ENCODING 9321
SWIDTH 1059 0
DWIDTH 24 0
BBX 22 21 1 0
BITMAP
03FF00
0E01C0
180060
330F30
6F1998
6330D8
C330CC
C330CC
C330CC
C330CC
C330CC
C330CC
C330CC
C330CC
C330CC
631998
678F18
300030
180060
0E01C0
03FF00
ENDCHAR
STARTCHAR J2871
ENCODING 9322
SWIDTH 1059 0
DWIDTH 24 0
BBX 22 21 1 0
BITMAP
03FF00
0E01C0
180060
330330
670718
630318
C3030C
C3030C
C3030C
C3030C
C3030C
C3030C
C3030C
C3030C
C3030C
630318
678798
300030
180060
0E01C0
03FF00
ENDCHAR
STARTCHAR J2872
ENCODING 9323
SWIDTH 1059 0
DWIDTH 24 0
BBX 22 21 1 0
BITMAP
03FF00
0E01C0
180060
330FB0
6730D8
6330D8
C300CC
C300CC
C3018C
C3030C
C3060C
C30C0C
C3180C
C3300C
C3304C
633058
67BFD8
300030
180060
0E01C0
03FF00
ENDCHAR
STARTCHAR J2873
ENCODING 9324
SWIDTH 1059 0
DWIDTH 24 0
BBX 22 21 1 0
BITMAP
03FF00
0E01C0
180060
330F30
673198
6330D8
C300CC
C300CC
C3018C
C3070C
C3018C
C300CC
C300CC
C360CC
C360CC
633198
679F18
300030
180060
0E01C0
03FF00
ENDCHAR
STARTCHAR J2874
ENCODING 9325
SWIDTH 1059 0
DWIDTH 24 0
BBX 22 21 1 0
BITMAP
03FF00
0E01C0
180060
330330
670718
630718
C30B0C
C30B0C
C3130C
C3130C
C3230C
C3230C
C3430C
C37FEC
C3030C
630318
678798
300030
180060
0E01C0
03FF00
ENDCHAR
STARTCHAR J2875
ENCODING 9326
SWIDTH 1059 0
DWIDTH 24 0
BBX 22 21 1 0
BITMAP
03FF00
0E01C0
180060
333FF0
673F98
632018
C3200C
C3200C
C32F0C
C3318C
C320CC
C300CC
C300CC
C300CC
C330CC
633198
678F18
300030
180060
0E01C0
03FF00
ENDCHAR
STARTCHAR J2967
ENCODING 9332
SWIDTH 1059 0
DWIDTH 24 0
BBX 22 21 1 0
BITMAP
060180
180060
303030
60F018
603018
C0300C
C0300C
C0300C
C0300C
C0300C
C0300C
C0300C
C0300C
C0300C
C0300C
C0300C
603018
60FC18
300030
180060
060180
ENDCHAR
STARTCHAR J2968
ENCODING 9333
SWIDTH 1059 0
DWIDTH 24 0
BBX 22 21 1 0
BITMAP
060180
180060
30FC30
618618
630318
C3830C
C1030C
C0060C
C00C0C
C0380C
C0600C
C0C00C
C1800C
C3000C
C3018C
C3030C
63FF18
600018
300030
180060
060180
ENDCHAR
STARTCHAR J2969
ENCODING 9334
SWIDTH 1059 0
DWIDTH 24 0
BBX 22 21 1 0
BITMAP
060180
180060
307830
618C18
630618
C3060C
C0060C
C0060C
C00C0C
C0780C
C00E0C
C0030C
C0030C
C0030C
C0030C
C3030C
638618
60F818
300030
180060
060180
ENDCHAR
STARTCHAR J296a
ENCODING 9335
SWIDTH 1059 0
DWIDTH 24 0
BBX 22 21 1 0
BITMAP
060180
180060
301830
603818
603818
C0580C
C0980C
C0980C
C1180C
C1180C
C2180C
C2180C
C4180C
CFFF0C
C0180C
C0180C
601818
607E18
300030
180060
060180
ENDCHAR
STARTCHAR J296b
ENCODING 9336
SWIDTH 1059 0
DWIDTH 24 0
BBX 22 21 1 0
BITMAP
060180
180060
310630
61FC18
618018
C1800C
C1800C
C1800C
C1BC0C
C1C60C
C1830C
C0030C
C0030C
C0030C
C0030C
C1830C
618618
607818
300030
180060
060180
ENDCHAR
STARTCHAR J296c
ENCODING 9337
SWIDTH 1059 0
DWIDTH 24 0
BBX 22 21 1 0
BITMAP
060180
180060
307C30
60C618
618718
C1870C
C1800C
C1800C
C1800C
C1BC0C
C1C60C
C1830C
C1830C
C1830C
C1830C
C1830C
60C618
603818
300030
180060
060180
ENDCHAR
STARTCHAR J296d
ENCODING 9338
SWIDTH 1059 0
DWIDTH 24 0
BBX 22 21 1 0
BITMAP
060180
180060
300030
63FF18
630318
C2030C
C2060C
C0060C
C00C0C
C0180C
C0180C
C0300C
C0300C
C0300C
C0300C
C0300C
603018
603018
300030
180060
060180
ENDCHAR
STARTCHAR J296e
ENCODING 9339
SWIDTH 1059 0
DWIDTH 24 0
BBX 22 21 1 0
BITMAP
060180
180060
307830
618618
630318
C3030C
C3030C
C1860C
C0EC0C
C0380C
C0CC0C
C1860C
C3030C
C3030C
C3030C
C3030C
618618
60FC18
300030
180060
060180
ENDCHAR
STARTCHAR J296f
ENCODING 9340
SWIDTH 1059 0
DWIDTH 24 0
BBX 22 21 1 0
BITMAP
060180
180060
30F830
618C18
630618
C3060C
C3060C
C3060C
C3060C
C18E0C
C0F60C
C0060C
C0060C
C0060C
C1060C
C3860C
618C18
60F818
300030
180060
060180
ENDCHAR
STARTCHAR J2970
ENCODING 9341
SWIDTH 1059 0
DWIDTH 24 0
BBX 22 21 1 0
BITMAP
060180
180060
300030
630F18
6F1998
C330CC
C330CC
C330CC
C330CC
C330CC
C330CC
C330CC
C330CC
C330CC
C330CC
C3198C
678F18
600018
300030
180060
060180
ENDCHAR
STARTCHAR J2971
ENCODING 9342
SWIDTH 1059 0
DWIDTH 24 0
BBX 22 21 1 0
BITMAP
060180
180060
300030
630318
670718
C3030C
C3030C
C3030C
C3030C
C3030C
C3030C
C3030C
C3030C
C3030C
C3030C
C3030C
678798
600018
300030
180060
060180
ENDCHAR
STARTCHAR J2972
ENCODING 9343
SWIDTH 1059 0
DWIDTH 24 0
BBX 22 21 1 0
BITMAP
060180
180060
300030
630F98
6730D8
C330CC
C300CC
C300CC
C3018C
C3030C
C3060C
C30C0C
C3180C
C3300C
C3304C
C3304C
67BFD8
600018
300030
180060
060180
ENDCHAR
STARTCHAR J2973
ENCODING 9344
SWIDTH 1059 0
DWIDTH 24 0
BBX 22 21 1 0
BITMAP
060180
180060
300030
630F18
673198
C330CC
C300CC
C300CC
C3018C
C3070C
C3018C
C300CC
C300CC
C360CC
C360CC
C3318C
679F18
600018
300030
180060
060180
ENDCHAR
STARTCHAR J2974
ENCODING 9345
SWIDTH 1059 0
DWIDTH 24 0
BBX 22 21 1 0
BITMAP
060180
180060
300030
630318
670718
C3070C
C30B0C
C30B0C
C3130C
C3130C
C3230C
C3230C
C3430C
C37FEC
C3030C
C3030C
678798
600018
300030
180060
060180
ENDCHAR
STARTCHAR J2975
ENCODING 9346
SWIDTH 1059 0
DWIDTH 24 0
BBX 22 21 1 0
BITMAP
060180
180060
300030
633FD8
673F98
C3200C
C3200C
C3200C
C32F0C
C3318C
C320CC
C300CC
C300CC
C300CC
C330CC
C3318C
678F18
600018
300030
180060
060180
ENDCHAR
STARTCHAR J294d
ENCODING 9372
SWIDTH 1059 0
DWIDTH 24 0
BBX 22 21 1 0
BITMAP
060180
180060
300030
600018
600018
C0000C
C0000C
C0FC0C
C3860C
C3030C
C0030C
C07F0C
C1C30C
C3030C
C3030C
C30F0C
61F998
600018
300030
180060
060180
ENDCHAR
STARTCHAR J294e
ENCODING 9373
SWIDTH 1059 0
DWIDTH 24 0
BBX 22 21 1 0
BITMAP
060180
180060
318030
638018
618018
C1800C
C1800C
C1BE0C
C1C30C
C1818C
C1818C
C1818C
C1818C
C1818C
C1818C
C1C30C
61BC18
600018
300030
180060
060180
ENDCHAR
STARTCHAR J294f
ENCODING 9374
SWIDTH 1059 0
DWIDTH 24 0
BBX 22 21 1 0
BITMAP
060180
180060
300030
600018
600018
C0000C
C0000C
C07C0C
C1870C
C3030C
C3000C
C3000C
C3000C
C3000C
C3018C
C1870C
60FC18
600018
300030
180060
060180
ENDCHAR
STARTCHAR J2950
ENCODING 9375
SWIDTH 1059 0
DWIDTH 24 0
BBX 22 21 1 0
BITMAP
060180
180060
300630
600E18
600618
C0060C
C0060C
C1F60C
C30E0C
C6060C
C6060C
C6060C
C6060C
C6060C
C6060C
C30E0C
61F718
600018
300030
180060
060180
ENDCHAR
STARTCHAR J2951
ENCODING 9376
SWIDTH 1059 0
DWIDTH 24 0
BBX 22 21 1 0
BITMAP
060180
180060
300030
600018
600018
C0000C
C0000C
C1FC0C
C3060C
C6030C
C6030C
C7FF0C
C6000C
C6000C
C6030C
C30E0C
61F818
600018
300030
180060
060180
ENDCHAR
STARTCHAR J2952
ENCODING 9377
SWIDTH 1059 0
DWIDTH 24 0
BBX 22 21 1 0
BITMAP
060180
180060
303C30
606618
606018
C0600C
C0600C
C1F80C
C0600C
C0600C
C0600C
C0600C
C0600C
C0600C
C0600C
C0600C
60F018
600018
300030
180060
060180
ENDCHAR
STARTCHAR J2953
ENCODING 9378
SWIDTH 1059 0
DWIDTH 24 0
BBX 22 21 1 0
BITMAP
060180
180060
300030
600018
600018
C0030C
C0040C
C0FC0C
C1860C
C3030C
C3030C
C1860C
C3FC0C
C6000C
C7FE0C
C3FF8C
660198
660198
33FF30
180060
060180
ENDCHAR
STARTCHAR J2954
ENCODING 9379
SWIDTH 1059 0
DWIDTH 24 0
BBX 22 21 1 0
BITMAP
060180
180060
318030
638018
618018
C1800C
C1800C
C19E0C
C1E30C
C1830C
C1830C
C1830C
C1830C
C1830C
C1830C
C1830C
63C798
600018
300030
180060
060180
ENDCHAR
STARTCHAR J2955
ENCODING 9380
SWIDTH 1059 0
DWIDTH 24 0
BBX 22 21 1 0
BITMAP
060180
180060
303030
603018
600018
C0000C
C0000C
C0300C
C0700C
C0300C
C0300C
C0300C
C0300C
C0300C
C0300C
C0300C
607818
600018
300030
180060
060180
ENDCHAR
STARTCHAR J2956
ENCODING 9381
SWIDTH 1059 0
DWIDTH 24 0
BBX 22 21 1 0
BITMAP
060180
180060
303030
603018
600018
C0000C
C0000C
C0300C
C0700C
C0300C
C0300C
C0300C
C0300C
C0300C
C0300C
C0300C
603018
61B018
31B030
18E060
060180
ENDCHAR
STARTCHAR J2957
ENCODING 9382
SWIDTH 1059 0
DWIDTH 24 0
BBX 22 21 1 0
BITMAP
060180
180060
330030
670018
630018
C3000C
C3000C
C30F0C
C3040C
C3180C
C3600C
C3E00C
C3300C
C3180C
C30C0C
C3060C
678798
600018
300030
180060
060180
ENDCHAR
STARTCHAR J2958
ENCODING 9383
SWIDTH 1059 0
DWIDTH 24 0
BBX 22 21 1 0
BITMAP
060180
180060
303030
607018
603018
C0300C
C0300C
C0300C
C0300C
C0300C
C0300C
C0300C
C0300C
C0300C
C0300C
C0300C
607818
600018
300030
180060
060180
ENDCHAR
STARTCHAR J2959
ENCODING 9384
SWIDTH 1059 0
DWIDTH 24 0
BBX 22 21 1 0
BITMAP
060180
180060
300030
600018
600018
C0000C
C0000C
C6F78C
CF398C
C6318C
C6318C
C6318C
C6318C
C6318C
C6318C
C6318C
6F7BD8
600018
300030
180060
060180
ENDCHAR
STARTCHAR J295a
ENCODING 9385
SWIDTH 1059 0
DWIDTH 24 0
BBX 22 21 1 0
BITMAP
060180
180060
300030
600018
600018
C0000C
C0000C
C19E0C
C3A30C
C1C30C
C1830C
C1830C
C1830C
C1830C
C1830C
C1830C
63C798
600018
300030
180060
060180
ENDCHAR
STARTCHAR J295b
ENCODING 9386
SWIDTH 1059 0
DWIDTH 24 0
BBX 22 21 1 0
BITMAP
060180
180060
300030
600018
600018
C0000C
C0000C
C0FC0C
C1860C
C3030C
C3030C
C3030C
C3030C
C3030C
C3030C
C1860C
60FC0C
600018
300018
180030
0600C0
ENDCHAR
STARTCHAR J295c
ENCODING 9387
SWIDTH 1059 0
DWIDTH 24 0
BBX 22 21 1 0
BITMAP
060180
180060
300030
600018
600018
C0000C
C0000C
C3BE0C
C1C30C
C1818C
C1818C
C1818C
C1818C
C1818C
C1818C
C1C70C
61BC18
618018
318030
1BC060
040180
ENDCHAR
STARTCHAR J295d
ENCODING 9388
SWIDTH 1059 0
DWIDTH 24 0
BBX 22 21 1 0
BITMAP
060180
180060
300030
600018
600018
C0000C
C0000C
C0FB0C
C1870C
C3030C
C3030C
C3030C
C3030C
C3030C
C3030C
C1870C
60FB18
600318
300330
180760
060080
ENDCHAR
STARTCHAR J295e
ENCODING 9389
SWIDTH 1059 0
DWIDTH 24 0
BBX 22 21 1 0
BITMAP
060180
180060
300030
600018
600018
C0000C
C0000C
C18F0C
C3B30C
C1C00C
C1800C
C1800C
C1800C
C1800C
C1800C
C1800C
63C018
600018
300030
180060
060180
ENDCHAR
STARTCHAR J295f
ENCODING 9390
SWIDTH 1059 0
DWIDTH 24 0
BBX 22 21 1 0
BITMAP
060180
180060
300030
600018
600018
C0000C
C0000C
C0FE0C
C3830C
C3010C
C3C00C
C0F80C
C01E0C
C0030C
C2030C
C3070C
61FC18
600018
300030
180060
060180
ENDCHAR
STARTCHAR J2960
ENCODING 9391
SWIDTH 1059 0
DWIDTH 24 0
BBX 22 21 1 0
BITMAP
060180
180060
300030
600018
600018
C0200C
C0600C
C0600C
C1F80C
C0600C
C0600C
C0600C
C0600C
C0600C
C0600C
C0660C
603818
600018
300030
180060
060180
ENDCHAR
STARTCHAR J2961
ENCODING 9392
SWIDTH 1059 0
DWIDTH 24 0
BBX 22 21 1 0
BITMAP
060180
180060
300030
600018
600018
C0000C
C0000C
C3060C
C70E0C
C3060C
C3060C
C3060C
C3060C
C3060C
C3060C
C31E0C
61E718
600018
300030
180060
060180
ENDCHAR
STARTCHAR J2962
ENCODING 9393
SWIDTH 1059 0
DWIDTH 24 0
BBX 22 21 1 0
BITMAP
060180
180060
300030
600018
600018
C0000C
C0000C
CF838C
C3010C
C3010C
C1820C
C1820C
C0C40C
C0C40C
C0680C
C0680C
603018
600018
300030
180060
060180
ENDCHAR
STARTCHAR J2963
ENCODING 9394
SWIDTH 1059 0
DWIDTH 24 0
BBX 22 21 1 0
BITMAP
060180
180060
300030
600018
600018
C0000C
C0000C
DEF0EC
CC604C
CC608C
C6308C
C6310C
C3190C
C33A0C
C3DE0C
C18C0C
618C18
600018
300030
180060
060180
ENDCHAR
STARTCHAR J2964
ENCODING 9395
SWIDTH 1059 0
DWIDTH 24 0
BBX 22 21 1 0
BITMAP
060180
180060
300030
600018
600018
C0000C
C0000C
C7838C
C1810C
C0C20C
C0640C
C0380C
C0300C
C0580C
C08C0C
C1060C
670798
600018
300030
180060
060180
ENDCHAR
STARTCHAR J2965
ENCODING 9396
SWIDTH 1059 0
DWIDTH 24 0
BBX 22 21 1 0
BITMAP
060180
180060
300030
600018
600018
C0000C
C0000C
C7838C
C3030C
C1820C
C0C60C
C0C40C
C06C0C
C0780C
C0300C
C0300C
602018
606018
31C030
198060
060180
ENDCHAR
STARTCHAR J2966
ENCODING 9397
SWIDTH 1059 0
DWIDTH 24 0
BBX 22 21 1 0
BITMAP
060180
180060
300030
600018
600018
C0000C
C0000C
C0FF0C
C0C30C
C1060C
C00C0C
C0180C
C0300C
C0600C
C0C10C
C1860C
61FE18
600018
300030
180060
060180
ENDCHAR
STARTCHAR J284d
ENCODING 9424
SWIDTH 1059 0
DWIDTH 24 0
BBX 22 21 1 0
BITMAP
03FF00
0E01C0
180060
300030
600018
600018
C0000C
C0FC0C
C3860C
C3030C
C0030C
C07F0C
C1C30C
C3030C
C3030C
630F18
61F998
300030
180060
0E01C0
03FF00
ENDCHAR
STARTCHAR J284e
ENCODING 9425
SWIDTH 1059 0
DWIDTH 24 0
BBX 22 21 1 0
BITMAP
03FF00
0E01C0
198060
338030
618018
618018
C1800C
C1BE0C
C1C30C
C1818C
C1818C
C1818C
C1818C
C1818C
C1818C
61C318
61BC18
300030
180060
0E01C0
03FF00
ENDCHAR
STARTCHAR J284f
ENCODING 9426
SWIDTH 1059 0
DWIDTH 24 0
BBX 22 21 1 0
BITMAP
03FF00
0E01C0
180060
300030
600018
600018
C0000C
C07C0C
C1870C
C3030C
C3000C
C3000C
C3000C
C3000C
C3018C
618718
60FC18
300030
180060
0E01C0
03FF00
ENDCHAR
STARTCHAR J2850
ENCODING 9427
SWIDTH 1059 0
DWIDTH 24 0
BBX 22 21 1 0
BITMAP
03FF00
0E01C0
180660
300E30
600618
600618
C0060C
C1F60C
C30E0C
C6060C
C6060C
C6060C
C6060C
C6060C
C6060C
630E18
61F718
300030
180060
0E01C0
03FF00
ENDCHAR
STARTCHAR J2851
ENCODING 9428
SWIDTH 1059 0
DWIDTH 24 0
BBX 22 21 1 0
BITMAP
03FF00
0E01C0
180060
300030
600018
600018
C0000C
C1FC0C
C3060C
C6030C
C6030C
C7FF0C
C6000C
C6000C
C6030C
630E18
61F818
300030
180060
0E01C0
03FF00
ENDCHAR
STARTCHAR J2852
ENCODING 9429
SWIDTH 1059 0
DWIDTH 24 0
BBX 22 21 1 0
BITMAP
03FF00
0E01C0
183C60
306630
606018
606018
C0600C
C1F80C
C0600C
C0600C
C0600C
C0600C
C0600C
C0600C
C0600C
606018
60F018
300030
180060
0E01C0
03FF00
ENDCHAR
STARTCHAR J2853
ENCODING 9430
SWIDTH 1059 0
DWIDTH 24 0
BBX 22 21 1 0
BITMAP
03FF00
0E01C0
180060
300030
600018
600318
C0040C
C0FC0C
C1860C
C3030C
C3030C
C1860C
C3FC0C
C6000C
C7FE0C
63FF98
660198
3601B0
1BFF60
0E01C0
03FF00
ENDCHAR
STARTCHAR J2854
ENCODING 9431
SWIDTH 1059 0
DWIDTH 24 0
BBX 22 21 1 0
BITMAP
03FF00
0E01C0
198060
338030
618018
618018
C1800C
C19E0C
C1E30C
C1830C
C1830C
C1830C
C1830C
C1830C
C1830C
618318
63C798
300030
180060
0E01C0
03FF00
ENDCHAR
STARTCHAR J2855
ENCODING 9432
SWIDTH 1059 0
DWIDTH 24 0
BBX 22 21 1 0
BITMAP
03FF00
0E01C0
183060
303030
600018
600018
C0000C
C0300C
C0700C
C0300C
C0300C
C0300C
C0300C
C0300C
C0300C
603018
607818
300030
180060
0E01C0
03FF00
ENDCHAR
STARTCHAR J2856
ENCODING 9433
SWIDTH 1059 0
DWIDTH 24 0
BBX 22 21 1 0
BITMAP
03FF00
0E01C0
183060
303030
600018
600018
C0000C
C0300C
C0700C
C0300C
C0300C
C0300C
C0300C
C0300C
C0300C
603018
603018
31B030
19B060
0EE1C0
03FF00
ENDCHAR
STARTCHAR J2857
ENCODING 9434
SWIDTH 1059 0
DWIDTH 24 0
BBX 22 21 1 0
BITMAP
03FF00
0E01C0
1B0060
370030
630018
630018
C3000C
C30F0C
C3040C
C3180C
C3600C
C3E00C
C3300C
C3180C
C30C0C
630618
678798
300030
180060
0E01C0
03FF00
ENDCHAR
STARTCHAR J2858
ENCODING 9435
SWIDTH 1059 0
DWIDTH 24 0
BBX 22 21 1 0
BITMAP
03FF00
0E01C0
183060
307030
603018
603018
C0300C
C0300C
C0300C
C0300C
C0300C
C0300C
C0300C
C0300C
C0300C
603018
607818
300030
180060
0E01C0
03FF00
ENDCHAR
STARTCHAR J2859
ENCODING 9436
SWIDTH 1059 0
DWIDTH 24 0
BBX 22 21 1 0
BITMAP
03FF00
0E01C0
180060
300030
600018
600018
C0000C
C6F78C
CF398C
C6318C
C6318C
C6318C
C6318C
C6318C
C6318C
663198
6F7BD8
300030
180060
0E01C0
03FF00
ENDCHAR
STARTCHAR J285a
ENCODING 9437
SWIDTH 1059 0
DWIDTH 24 0
BBX 22 21 1 0
BITMAP
03FF00
0E01C0
180060
300030
600018
600018
C0000C
C19E0C
C3A30C
C1C30C
C1830C
C1830C
C1830C
C1830C
C1830C
618318
63C798
300030
180060
0E01C0
03FF00
ENDCHAR
STARTCHAR J285b
ENCODING 9438
SWIDTH 1059 0
DWIDTH 24 0
BBX 22 21 1 0
BITMAP
03FF00
0E01C0
180060
300030
600018
600018
C0000C
C0FC0C
C1860C
C3030C
C3030C
C3030C
C3030C
C3030C
C3030C
61860C
60FC18
300018
180030
0E00E0
03FF80
ENDCHAR
STARTCHAR J285c
ENCODING 9439
SWIDTH 1059 0
DWIDTH 24 0
BBX 22 21 1 0
BITMAP
03FF00
0E01C0
180060
300030
600018
600018
C0000C
C3BE0C
C1C30C
C1818C
C1818C
C1818C
C1818C
C1818C
C1818C
61C718
61BC18
318030
198060
0FC1C0
03FF00
ENDCHAR
STARTCHAR J285d
ENCODING 9440
SWIDTH 1059 0
DWIDTH 24 0
BBX 22 21 1 0
BITMAP
03FF00
0E01C0
180060
300030
600018
600018
C0000C
C0FB0C
C1870C
C3030C
C3030C
C3030C
C3030C
C3030C
C3030C
618718
60FB18
300330
180360
0E07C0
03FF00
ENDCHAR
STARTCHAR J285e
ENCODING 9441
SWIDTH 1059 0
DWIDTH 24 0
BBX 22 21 1 0
BITMAP
03FF00
0E01C0
180060
300030
600018
600018
C0000C
C18F0C
C3B30C
C1C00C
C1800C
C1800C
C1800C
C1800C
C1800C
618018
63C018
300030
180060
0E01C0
03FF00
ENDCHAR
STARTCHAR J285f
ENCODING 9442
SWIDTH 1059 0
DWIDTH 24 0
BBX 22 21 1 0
BITMAP
03FF00
0E01C0
180060
300030
600018
600018
C0000C
C0FE0C
C3830C
C3010C
C3C00C
C0F80C
C01E0C
C0030C
C2030C
630718
61FC18
300030
180060
0E01C0
03FF00
ENDCHAR
STARTCHAR J2860
ENCODING 9443
SWIDTH 1059 0
DWIDTH 24 0
BBX 22 21 1 0
BITMAP
03FF00
0E01C0
180060
300030
600018
602018
C0600C
C0600C
C1F80C
C0600C
C0600C
C0600C
C0600C
C0600C
C0600C
606618
603818
300030
180060
0E01C0
03FF00
ENDCHAR
STARTCHAR J2861
ENCODING 9444
SWIDTH 1059 0
DWIDTH 24 0
BBX 22 21 1 0
BITMAP
03FF00
0E01C0
180060
300030
600018
600018
C0000C
C3060C
C70E0C
C3060C
C3060C
C3060C
C3060C
C3060C
C3060C
631E18
61E718
300030
180060
0E01C0
03FF00
ENDCHAR
STARTCHAR J2862
ENCODING 9445
SWIDTH 1059 0
DWIDTH 24 0
BBX 22 21 1 0
BITMAP
03FF00
0E01C0
180060
300030
600018
600018
C0000C
CF838C
C3010C
C3010C
C1820C
C1820C
C0C40C
C0C40C
C0680C
606818
603018
300030
180060
0E01C0
03FF00
ENDCHAR
STARTCHAR J2863
ENCODING 9446
SWIDTH 1059 0
DWIDTH 24 0
BBX 22 21 1 0
BITMAP
03FF00
0E01C0
180060
300030
600018
600018
C0000C
DEF0EC
CC604C
CC608C
C6308C
C6310C
C3190C
C33A0C
C3DE0C
618C18
618C18
300030
180060
0E01C0
03FF00
ENDCHAR
STARTCHAR J2864
ENCODING 9447
SWIDTH 1059 0
DWIDTH 24 0
BBX 22 21 1 0
BITMAP
03FF00
0E01C0
180060
300030
600018
600018
C0000C
C7838C
C1810C
C0C20C
C0640C
C0380C
C0300C
C0580C
C08C0C
610618
670798
300030
180060
0E01C0
03FF00
ENDCHAR
STARTCHAR J2865
ENCODING 9448
SWIDTH 1059 0
DWIDTH 24 0
BBX 22 21 1 0
BITMAP
03FF00
0E01C0
180060
300030
600018
600018
C0000C
C7838C
C3030C
C1820C
C0C60C
C0C40C
C06C0C
C0780C
C0300C
603018
602018
306030
19C060
0F81C0
03FF00
ENDCHAR
STARTCHAR J2866
ENCODING 9449
SWIDTH 1059 0
DWIDTH 24 0
BBX 22 21 1 0
BITMAP
03FF00
0E01C0
180060
300030
600018
600018
C0000C
C0FF0C
C0C30C
C1060C
C00C0C
C0180C
C0300C
C0600C
C0C10C
618618
61FE18
300030
180060
0E01C0
03FF00
ENDCHAR
STARTCHAR J2621
ENCODING 9472
SWIDTH 1059 0
DWIDTH 24 0
BBX 24 1 0 10
BITMAP
FFFFFF
ENDCHAR
STARTCHAR J262c
ENCODING 9473
SWIDTH 1059 0
DWIDTH 24 0
BBX 24 3 0 9
BITMAP
FFFFFF
FFFFFF
FFFFFF
ENDCHAR
STARTCHAR J2622
ENCODING 9474
SWIDTH 1059 0
DWIDTH 24 0
BBX 1 24 11 -2
BITMAP
80
80
80
80
80
80
80
80
80
80
80
80
80
80
80
80
80
80
80
80
80
80
80
80
ENDCHAR
STARTCHAR J262d
ENCODING 9475
SWIDTH 1059 0
DWIDTH 24 0
BBX 3 24 10 -2
BITMAP
E0
E0
E0
E0
E0
E0
E0
E0
E0
E0
E0
E0
E0
E0
E0
E0
E0
E0
E0
E0
E0
E0
E0
E0
ENDCHAR
STARTCHAR J2623
ENCODING 9484
SWIDTH 1059 0
DWIDTH 24 0
BBX 13 13 11 -2
BITMAP
FFF8
8000
8000
8000
8000
8000
8000
8000
8000
8000
8000
8000
8000
ENDCHAR
STARTCHAR J2648
ENCODING 9485
SWIDTH 1059 0
DWIDTH 24 0
BBX 13 14 11 -2
BITMAP
FFF8
FFF8
FFF8
8000
8000
8000
8000
8000
8000
8000
8000
8000
8000
8000
ENDCHAR
STARTCHAR J2647
ENCODING 9486
SWIDTH 1059 0
DWIDTH 24 0
BBX 14 13 10 -2
BITMAP
FFFC
E000
E000
E000
E000
E000
E000
E000
E000
E000
E000
E000
E000
ENDCHAR
STARTCHAR J262e
ENCODING 9487
SWIDTH 1059 0
DWIDTH 24 0
BBX 14 14 10 -2
BITMAP
FFFC
FFFC
FFFC
E000
E000
E000
E000
E000
E000
E000
E000
E000
E000
E000
ENDCHAR
STARTCHAR J2624
ENCODING 9488
SWIDTH 1059 0
DWIDTH 24 0
BBX 12 13 0 -2
BITMAP
FFF0
0010
0010
0010
0010
0010
0010
0010
0010
0010
0010
0010
0010
ENDCHAR
STARTCHAR J2642
ENCODING 9489
SWIDTH 1059 0
DWIDTH 24 0
BBX 12 14 0 -2
BITMAP
FFF0
FFF0
FFF0
0010
0010
0010
0010
0010
0010
0010
0010
0010
0010
0010
ENDCHAR
STARTCHAR J2641
ENCODING 9490
SWIDTH 1059 0
DWIDTH 24 0
BBX 13 13 0 -2
BITMAP
FFF8
0038
0038
0038
0038
0038
0038
0038
0038
0038
0038
0038
0038
ENDCHAR
STARTCHAR J262f
ENCODING 9491
SWIDTH 1059 0
DWIDTH 24 0
BBX 13 14 0 -2
BITMAP
FFF8
FFF8
FFF8
0038
0038
0038
0038
0038
0038
0038
0038
0038
0038
0038
ENDCHAR
STARTCHAR J2626
ENCODING 9492
SWIDTH 1059 0
DWIDTH 24 0
BBX 13 12 11 10
BITMAP
8000
8000
8000
8000
8000
8000
8000
8000
8000
8000
8000
FFF8
ENDCHAR
STARTCHAR J2646
ENCODING 9493
SWIDTH 1059 0
DWIDTH 24 0
BBX 13 13 11 9
BITMAP
8000
8000
8000
8000
8000
8000
8000
8000
8000
8000
FFF8
FFF8
FFF8
ENDCHAR
STARTCHAR J2645
ENCODING 9494
SWIDTH 1059 0
DWIDTH 24 0
BBX 14 12 10 10
BITMAP
E000
E000
E000
E000
E000
E000
E000
E000
E000
E000
E000
FFFC
ENDCHAR
STARTCHAR J2631
ENCODING 9495
SWIDTH 1059 0
DWIDTH 24 0
BBX 14 13 10 9
BITMAP
E000
E000
E000
E000
E000
E000
E000
E000
E000
E000
FFFC
FFFC
FFFC
ENDCHAR
STARTCHAR J2625
ENCODING 9496
SWIDTH 1059 0
DWIDTH 24 0
BBX 12 12 0 10
BITMAP
0010
0010
0010
0010
0010
0010
0010
0010
0010
0010
0010
FFF0
ENDCHAR
STARTCHAR J2644
ENCODING 9497
SWIDTH 1059 0
DWIDTH 24 0
BBX 12 13 0 9
BITMAP
0010
0010
0010
0010
0010
0010
0010
0010
0010
0010
FFF0
FFF0
FFF0
ENDCHAR
STARTCHAR J2643
ENCODING 9498
SWIDTH 1059 0
DWIDTH 24 0
BBX 13 12 0 10
BITMAP
0038
0038
0038
0038
0038
0038
0038
0038
0038
0038
0038
FFF8
ENDCHAR
STARTCHAR J2630
ENCODING 9499
SWIDTH 1059 0
DWIDTH 24 0
BBX 13 13 0 9
BITMAP
0038
0038
0038
0038
0038
0038
0038
0038
0038
0038
FFF8
FFF8
FFF8
ENDCHAR
STARTCHAR J2627
ENCODING 9500
SWIDTH 1059 0
DWIDTH 24 0
BBX 13 24 11 -2
BITMAP
8000
8000
8000
8000
8000
8000
8000
8000
8000
8000
8000
FFF8
8000
8000
8000
8000
8000
8000
8000
8000
8000
8000
8000
8000
ENDCHAR
STARTCHAR J263c
ENCODING 9501
SWIDTH 1059 0
DWIDTH 24 0
BBX 13 24 11 -2
BITMAP
8000
8000
8000
8000
8000
8000
8000
8000
8000
8000
FFF8
FFF8
FFF8
8000
8000
8000
8000
8000
8000
8000
8000
8000
8000
8000
ENDCHAR
STARTCHAR J2649
ENCODING 9502
SWIDTH 1059 0
DWIDTH 24 0
BBX 14 24 10 -2
BITMAP
E000
E000
E000
E000
E000
E000
E000
E000
E000
E000
E000
FFFC
4000
4000
4000
4000
4000
4000
4000
4000
4000
4000
4000
4000
ENDCHAR
STARTCHAR J264a
ENCODING 9503
SWIDTH 1059 0
DWIDTH 24 0
BBX 14 24 10 -2
BITMAP
4000
4000
4000
4000
4000
4000
4000
4000
4000
4000
4000
FFFC
E000
E000
E000
E000
E000
E000
E000
E000
E000
E000
E000
E000
ENDCHAR
STARTCHAR J2637
ENCODING 9504
SWIDTH 1059 0
DWIDTH 24 0
BBX 14 24 10 -2
BITMAP
E000
E000
E000
E000
E000
E000
E000
E000
E000
E000
E000
FFFC
E000
E000
E000
E000
E000
E000
E000
E000
E000
E000
E000
E000
ENDCHAR
STARTCHAR J264b
ENCODING 9505
SWIDTH 1059 0
DWIDTH 24 0
BBX 14 24 10 -2
BITMAP
E000
E000
E000
E000
E000
E000
E000
E000
E000
E000
FFFC
FFFC
FFFC
4000
4000
4000
4000
4000
4000
4000
4000
4000
4000
4000
ENDCHAR
STARTCHAR J264c
ENCODING 9506
SWIDTH 1059 0
DWIDTH 24 0
BBX 14 24 10 -2
BITMAP
4000
4000
4000
4000
4000
4000
4000
4000
4000
4000
FFFC
FFFC
FFFC
E000
E000
E000
E000
E000
E000
E000
E000
E000
E000
E000
ENDCHAR
STARTCHAR J2632
ENCODING 9507
SWIDTH 1059 0
DWIDTH 24 0
BBX 14 24 10 -2
BITMAP
E000
E000
E000
E000
E000
E000
E000
E000
E000
E000
FFFC
FFFC
FFFC
E000
E000
E000
E000
E000
E000
E000
E000
E000
E000
E000
ENDCHAR
STARTCHAR J2629
ENCODING 9508
SWIDTH 1059 0
DWIDTH 24 0
BBX 12 24 0 -2
BITMAP
0010
0010
0010
0010
0010
0010
0010
0010
0010
0010
0010
FFF0
0010
0010
0010
0010
0010
0010
0010
0010
0010
0010
0010
0010
ENDCHAR
STARTCHAR J263e
ENCODING 9509
SWIDTH 1059 0
DWIDTH 24 0
BBX 12 24 0 -2
BITMAP
0010
0010
0010
0010
0010
0010
0010
0010
0010
0010
FFF0
FFF0
FFF0
0010
0010
0010
0010
0010
0010
0010
0010
0010
0010
0010
ENDCHAR
STARTCHAR J264d
ENCODING 9510
SWIDTH 1059 0
DWIDTH 24 0
BBX 13 24 0 -2
BITMAP
0038
0038
0038
0038
0038
0038
0038
0038
0038
0038
0038
FFF8
0010
0010
0010
0010
0010
0010
0010
0010
0010
0010
0010
0010
ENDCHAR
STARTCHAR J264e
ENCODING 9511
SWIDTH 1059 0
DWIDTH 24 0
BBX 13 24 0 -2
BITMAP
0010
0010
0010
0010
0010
0010
0010
0010
0010
0010
0010
FFF8
0038
0038
0038
0038
0038
0038
0038
0038
0038
0038
0038
0038
ENDCHAR
STARTCHAR J2639
ENCODING 9512
SWIDTH 1059 0
DWIDTH 24 0
BBX 13 24 0 -2
BITMAP
0038
0038
0038
0038
0038
0038
0038
0038
0038
0038
0038
FFF8
0038
0038
0038
0038
0038
0038
0038
0038
0038
0038
0038
0038
ENDCHAR
STARTCHAR J264f
ENCODING 9513
SWIDTH 1059 0
DWIDTH 24 0
BBX 13 24 0 -2
BITMAP
0038
0038
0038
0038
0038
0038
0038
0038
0038
0038
FFF8
FFF8
FFF8
0010
0010
0010
0010
0010
0010
0010
0010
0010
0010
0010
ENDCHAR
STARTCHAR J2650
ENCODING 9514
SWIDTH 1059 0
DWIDTH 24 0
BBX 13 24 0 -2
BITMAP
0010
0010
0010
0010
0010
0010
0010
0010
0010
0010
FFF8
FFF8
FFF8
0038
0038
0038
0038
0038
0038
0038
0038
0038
0038
0038
ENDCHAR
STARTCHAR J2634
ENCODING 9515
SWIDTH 1059 0
DWIDTH 24 0
BBX 13 24 0 -2
BITMAP
0038
0038
0038
0038
0038
0038
0038
0038
0038
0038
FFF8
FFF8
FFF8
0038
0038
0038
0038
0038
0038
0038
0038
0038
0038
0038
ENDCHAR
STARTCHAR J2628
ENCODING 9516
SWIDTH 1059 0
DWIDTH 24 0
BBX 24 13 0 -2
BITMAP
FFFFFF
001000
001000
001000
001000
001000
001000
001000
001000
001000
001000
001000
001000
ENDCHAR
STARTCHAR J2651
ENCODING 9517
SWIDTH 1059 0
DWIDTH 24 0
BBX 24 14 0 -2
BITMAP
FFF000
FFFFFF
FFF000
001000
001000
001000
001000
001000
001000
001000
001000
001000
001000
001000
ENDCHAR
STARTCHAR J2652
ENCODING 9518
SWIDTH 1059 0
DWIDTH 24 0
BBX 24 14 0 -2
BITMAP
001FFF
FFFFFF
001FFF
001000
001000
001000
001000
001000
001000
001000
001000
001000
001000
001000
ENDCHAR
STARTCHAR J2638
ENCODING 9519
SWIDTH 1059 0
DWIDTH 24 0
BBX 24 14 0 -2
BITMAP
FFFFFF
FFFFFF
FFFFFF
001000
001000
001000
001000
001000
001000
001000
001000
001000
001000
001000
ENDCHAR
STARTCHAR J263d
ENCODING 9520
SWIDTH 1059 0
DWIDTH 24 0
BBX 24 13 0 -2
BITMAP
FFFFFF
003800
003800
003800
003800
003800
003800
003800
003800
003800
003800
003800
003800
ENDCHAR
STARTCHAR J2653
ENCODING 9521
SWIDTH 1059 0
DWIDTH 24 0
BBX 24 14 0 -2
BITMAP
FFF800
FFFFFF
FFF800
003800
003800
003800
003800
003800
003800
003800
003800
003800
003800
003800
ENDCHAR
STARTCHAR J2654
ENCODING 9522
SWIDTH 1059 0
DWIDTH 24 0
BBX 24 14 0 -2
BITMAP
003FFF
FFFFFF
003FFF
003800
003800
003800
003800
003800
003800
003800
003800
003800
003800
003800
ENDCHAR
STARTCHAR J2633
ENCODING 9523
SWIDTH 1059 0
DWIDTH 24 0
BBX 24 14 0 -2
BITMAP
FFFFFF
FFFFFF
FFFFFF
003800
003800
003800
003800
003800
003800
003800
003800
003800
003800
003800
ENDCHAR
STARTCHAR J262a
ENCODING 9524
SWIDTH 1059 0
DWIDTH 24 0
BBX 24 12 0 10
BITMAP
001000
001000
001000
001000
001000
001000
001000
001000
001000
001000
001000
FFFFFF
ENDCHAR
STARTCHAR J2655
ENCODING 9525
SWIDTH 1059 0
DWIDTH 24 0
BBX 24 13 0 9
BITMAP
001000
001000
001000
001000
001000
001000
001000
001000
001000
001000
FFF000
FFFFFF
FFF000
ENDCHAR
STARTCHAR J2656
ENCODING 9526
SWIDTH 1059 0
DWIDTH 24 0
BBX 24 13 0 9
BITMAP
001000
001000
001000
001000
001000
001000
001000
001000
001000
001000
001FFF
FFFFFF
001FFF
ENDCHAR
STARTCHAR J263a
ENCODING 9527
SWIDTH 1059 0
DWIDTH 24 0
BBX 24 13 0 9
BITMAP
001000
001000
001000
001000
001000
001000
001000
001000
001000
001000
FFFFFF
FFFFFF
FFFFFF
ENDCHAR
STARTCHAR J263f
ENCODING 9528
SWIDTH 1059 0
DWIDTH 24 0
BBX 24 12 0 10
BITMAP
003800
003800
003800
003800
003800
003800
003800
003800
003800
003800
003800
FFFFFF
ENDCHAR
STARTCHAR J2657
ENCODING 9529
SWIDTH 1059 0
DWIDTH 24 0
BBX 24 13 0 9
BITMAP
003800
003800
003800
003800
003800
003800
003800
003800
003800
003800
FFF800
FFFFFF
FFF800
ENDCHAR
STARTCHAR J2658
ENCODING 9530
SWIDTH 1059 0
DWIDTH 24 0
BBX 24 13 0 9
BITMAP
003800
003800
003800
003800
003800
003800
003800
003800
003800
003800
003FFF
FFFFFF
003FFF
ENDCHAR
STARTCHAR J2635
ENCODING 9531
SWIDTH 1059 0
DWIDTH 24 0
BBX 24 13 0 9
BITMAP
003800
003800
003800
003800
003800
003800
003800
003800
003800
003800
FFFFFF
FFFFFF
FFFFFF
ENDCHAR
STARTCHAR J262b
ENCODING 9532
SWIDTH 1059 0
DWIDTH 24 0
BBX 24 24 0 -2
BITMAP
001000
001000
001000
001000
001000
001000
001000
001000
001000
001000
001000
FFFFFF
001000
001000
001000
001000
001000
001000
001000
001000
001000
001000
001000
001000
ENDCHAR
STARTCHAR J2659
ENCODING 9533
SWIDTH 1059 0
DWIDTH 24 0
BBX 24 24 0 -2
BITMAP
001000
001000
001000
001000
001000
001000
001000
001000
001000
001000
FFF000
FFFFFF
FFF000
001000
001000
001000
001000
001000
001000
001000
001000
001000
001000
001000
ENDCHAR
STARTCHAR J265a
ENCODING 9534
SWIDTH 1059 0
DWIDTH 24 0
BBX 24 24 0 -2
BITMAP
001000
001000
001000
001000
001000
001000
001000
001000
001000
001000
001FFF
FFFFFF
001FFF
001000
001000
001000
001000
001000
001000
001000
001000
001000
001000
001000
ENDCHAR
STARTCHAR J263b
ENCODING 9535
SWIDTH 1059 0
DWIDTH 24 0
BBX 24 24 0 -2
BITMAP
001000
001000
001000
001000
001000
001000
001000
001000
001000
001000
FFFFFF
FFFFFF
FFFFFF
001000
001000
001000
001000
001000
001000
001000
001000
001000
001000
001000
ENDCHAR
STARTCHAR J265b
ENCODING 9536
SWIDTH 1059 0
DWIDTH 24 0
BBX 24 24 0 -2
BITMAP
003800
003800
003800
003800
003800
003800
003800
003800
003800
003800
003800
FFFFFF
001000
001000
001000
001000
001000
001000
001000
001000
001000
001000
001000
001000
ENDCHAR
STARTCHAR J265c
ENCODING 9537
SWIDTH 1059 0
DWIDTH 24 0
BBX 24 24 0 -2
BITMAP
001000
001000
001000
001000
001000
001000
001000
001000
001000
001000
001000
FFFFFF
003800
003800
003800
003800
003800
003800
003800
003800
003800
003800
003800
003800
ENDCHAR
STARTCHAR J2640
ENCODING 9538
SWIDTH 1059 0
DWIDTH 24 0
BBX 24 24 0 -2
BITMAP
003800
003800
003800
003800
003800
003800
003800
003800
003800
003800
003800
FFFFFF
003800
003800
003800
003800
003800
003800
003800
003800
003800
003800
003800
003800
ENDCHAR
STARTCHAR J265d
ENCODING 9539
SWIDTH 1059 0
DWIDTH 24 0
BBX 24 24 0 -2
BITMAP
003800
003800
003800
003800
003800
003800
003800
003800
003800
003800
FFF800
FFFFFF
FFF000
001000
001000
001000
001000
001000
001000
001000
001000
001000
001000
001000
ENDCHAR
STARTCHAR J265e
ENCODING 9540
SWIDTH 1059 0
DWIDTH 24 0
BBX 24 24 0 -2
BITMAP
003800
003800
003800
003800
003800
003800
003800
003800
003800
003800
003FFF
FFFFFF
001FFF
001000
001000
001000
001000
001000
001000
001000
001000
001000
001000
001000
ENDCHAR
STARTCHAR J265f
ENCODING 9541
SWIDTH 1059 0
DWIDTH 24 0
BBX 24 24 0 -2
BITMAP
001000
001000
001000
001000
001000
001000
001000
001000
001000
001000
FFF000
FFFFFF
FFF800
003800
003800
003800
003800
003800
003800
003800
003800
003800
003800
003800
ENDCHAR
STARTCHAR J2660
ENCODING 9542
SWIDTH 1059 0
DWIDTH 24 0
BBX 24 24 0 -2
BITMAP
001000
001000
001000
001000
001000
001000
001000
001000
001000
001000
001FFF
FFFFFF
003FFF
003800
003800
003800
003800
003800
003800
003800
003800
003800
003800
003800
ENDCHAR
STARTCHAR J2661
ENCODING 9543
SWIDTH 1059 0
DWIDTH 24 0
BBX 24 24 0 -2
BITMAP
003800
003800
003800
003800
003800
003800
003800
003800
003800
003800
FFFFFF
FFFFFF
FFFFFF
001000
001000
001000
001000
001000
001000
001000
001000
001000
001000
001000
ENDCHAR
STARTCHAR J2662
ENCODING 9544
SWIDTH 1059 0
DWIDTH 24 0
BBX 24 24 0 -2
BITMAP
001000
001000
001000
001000
001000
001000
001000
001000
001000
001000
FFFFFF
FFFFFF
FFFFFF
003800
003800
003800
003800
003800
003800
003800
003800
003800
003800
003800
ENDCHAR
STARTCHAR J2663
ENCODING 9545
SWIDTH 1059 0
DWIDTH 24 0
BBX 24 24 0 -2
BITMAP
003800
003800
003800
003800
003800
003800
003800
003800
003800
003800
FFF800
FFFFFF
FFF800
003800
003800
003800
003800
003800
003800
003800
003800
003800
003800
003800
ENDCHAR
STARTCHAR J2664
ENCODING 9546
SWIDTH 1059 0
DWIDTH 24 0
BBX 24 24 0 -2
BITMAP
003800
003800
003800
003800
003800
003800
003800
003800
003800
003800
003FFF
FFFFFF
003FFF
003800
003800
003800
003800
003800
003800
003800
003800
003800
003800
003800
ENDCHAR
STARTCHAR J2636
ENCODING 9547
SWIDTH 1059 0
DWIDTH 24 0
BBX 24 24 0 -2
BITMAP
003800
003800
003800
003800
003800
003800
003800
003800
003800
003800
FFFFFF
FFFFFF
FFFFFF
003800
003800
003800
003800
003800
003800
003800
003800
003800
003800
003800
ENDCHAR
STARTCHAR J2246
ENCODING 9618
SWIDTH 1059 0
DWIDTH 24 0
BBX 16 16 4 3
BITMAP
FFFF
8001
A4A5
8001
9045
8001
A4A9
8001
A105
8001
9249
8001
A021
8489
8001
FFFF
ENDCHAR
STARTCHAR J2161
ENCODING 9632
SWIDTH 1059 0
DWIDTH 24 0
BBX 16 16 4 3
BITMAP
FFFF
FFFF
FFFF
FFFF
FFFF
FFFF
FFFF
FFFF
FFFF
FFFF
FFFF
FFFF
FFFF
FFFF
FFFF
FFFF
ENDCHAR
STARTCHAR J2160
ENCODING 9633
SWIDTH 1059 0
DWIDTH 24 0
BBX 16 16 4 3
BITMAP
FFFF
8001
8001
8001
8001
8001
8001
8001
8001
8001
8001
8001
8001
8001
8001
FFFF
ENDCHAR
STARTCHAR J2243
ENCODING 9635
SWIDTH 1059 0
DWIDTH 24 0
BBX 16 16 4 3
BITMAP
FFFF
8001
8001
8001
8FF1
8FF1
8FF1
8FF1
8FF1
8FF1
8FF1
8FF1
8001
8001
8001
FFFF
ENDCHAR
STARTCHAR J2247
ENCODING 9636
SWIDTH 1059 0
DWIDTH 24 0
BBX 16 16 4 3
BITMAP
FFFF
8001
8001
FFFF
8001
8001
FFFF
8001
8001
FFFF
8001
8001
FFFF
8001
8001
FFFF
ENDCHAR
STARTCHAR J2248
ENCODING 9637
SWIDTH 1059 0
DWIDTH 24 0
BBX 16 16 4 3
BITMAP
FFFF
9249
9249
9249
9249
9249
9249
9249
9249
9249
9249
9249
9249
9249
9249
FFFF
ENDCHAR
STARTCHAR J224b
ENCODING 9638
SWIDTH 1059 0
DWIDTH 24 0
BBX 16 16 4 3
BITMAP
FFFF
9249
9249
FFFF
9249
9249
FFFF
9249
9249
FFFF
9249
9249
FFFF
9249
9249
FFFF
ENDCHAR
STARTCHAR J224a
ENCODING 9639
SWIDTH 1059 0
DWIDTH 24 0
BBX 16 16 4 3
BITMAP
FFFF
C041
A021
9011
8809
8405
8203
8101
8081
C041
A021
9011
8809
8405
8203
FFFF
ENDCHAR
STARTCHAR J2249
ENCODING 9640
SWIDTH 1059 0
DWIDTH 24 0
BBX 16 16 4 3
BITMAP
FFFF
8203
8405
8809
9011
A021
C041
8081
8101
8203
8405
8809
9011
A021
C041
FFFF
ENDCHAR
STARTCHAR J224c
ENCODING 9641
SWIDTH 1059 0
DWIDTH 24 0
BBX 16 16 4 3
BITMAP
FFFF
C243
A425
9819
9819
A425
C243
8181
8181
C243
A425
9819
9819
A425
C243
FFFF
ENDCHAR
STARTCHAR J2163
ENCODING 9650
SWIDTH 1059 0
DWIDTH 24 0
BBX 21 16 1 3
BITMAP
002000
007000
007000
00F800
00F800
01FC00
03FE00
03FE00
07FF00
0FFF80
0FFF80
1FFFC0
3FFFE0
3FFFE0
7FFFF0
FFFFF8
ENDCHAR
STARTCHAR J2162
ENCODING 9651
SWIDTH 1059 0
DWIDTH 24 0
BBX 21 16 1 3
BITMAP
002000
007000
007000
00D800
018C00
018C00
030600
030600
060300
0C0180
0C0180
1800C0
300060
300060
600030
FFFFF8
ENDCHAR
STARTCHAR J223a
ENCODING 9654
SWIDTH 1059 0
DWIDTH 24 0
BBX 18 19 3 1
BITMAP
800000
E00000
F80000
FE0000
FF8000
FFE000
FFF800
FFFE00
FFFF80
FFFFC0
FFFF80
FFFE00
FFF800
FFE000
FF8000
FE0000
F80000
E00000
800000
ENDCHAR
STARTCHAR J2239
ENCODING 9655
SWIDTH 1059 0
DWIDTH 24 0
BBX 18 19 3 1
BITMAP
800000
E00000
F80000
CE0000
C38000
C0E000
C03800
C00E00
C00380
C000C0
C00380
C00E00
C03800
C0E000
C38000
CE0000
F80000
E00000
800000
ENDCHAR
STARTCHAR J2165
ENCODING 9660
SWIDTH 1059 0
DWIDTH 24 0
BBX 21 16 1 3
BITMAP
FFFFF8
7FFFF0
3FFFE0
3FFFE0
1FFFC0
0FFF80
0FFF80
07FF00
03FE00
03FE00
01FC00
00F800
00F800
007000
007000
002000
ENDCHAR
STARTCHAR J2164
ENCODING 9661
SWIDTH 1059 0
DWIDTH 24 0
BBX 21 16 1 3
BITMAP
FFFFF8
600030
300060
300060
1800C0
0C0180
0C0180
060300
030600
030600
018C00
018C00
00D800
007000
007000
002000
ENDCHAR
STARTCHAR J2238
ENCODING 9664
SWIDTH 1059 0
DWIDTH 24 0
BBX 18 19 3 1
BITMAP
000040
0001C0
0007C0
001FC0
007FC0
01FFC0
07FFC0
1FFFC0
7FFFC0
FFFFC0
7FFFC0
1FFFC0
07FFC0
01FFC0
007FC0
001FC0
0007C0
0001C0
000040
ENDCHAR
STARTCHAR J2237
ENCODING 9665
SWIDTH 1059 0
DWIDTH 24 0
BBX 18 19 3 1
BITMAP
000040
0001C0
0007C0
001CC0
0070C0
01C0C0
0700C0
1C00C0
7000C0
E000C0
7000C0
1C00C0
0700C0
01C0C0
0070C0
001CC0
0007C0
0001C0
000040
ENDCHAR
STARTCHAR J215f
ENCODING 9670
SWIDTH 1059 0
DWIDTH 24 0
BBX 19 20 2 1
BITMAP
004000
00E000
01F000
03F800
07FC00
0FFE00
1FFF00
3FFF80
7FFFC0
FFFFE0
FFFFE0
7FFFC0
3FFF80
1FFF00
0FFE00
07FC00
03F800
01F000
00E000
004000
ENDCHAR
STARTCHAR J215e
ENCODING 9671
SWIDTH 1059 0
DWIDTH 24 0
BBX 19 20 2 1
BITMAP
004000
00E000
01B000
031800
060C00
0C0600
180300
300180
6000C0
C00060
C00060
6000C0
300180
180300
0C0600
060C00
031800
01B000
00E000
004000
ENDCHAR
STARTCHAR J2242
ENCODING 9672
SWIDTH 1059 0
DWIDTH 24 0
BBX 19 20 2 1
BITMAP
004000
00E000
01B000
031800
060C00
0C4600
18E300
31F180
63F8C0
C7FC60
C7FC60
63F8C0
31F180
18E300
0C4600
060C00
031800
01B000
00E000
004000
ENDCHAR
STARTCHAR J215b
ENCODING 9675
SWIDTH 1059 0
DWIDTH 24 0
BBX 20 18 2 2
BITMAP
03FC00
0E0700
180180
3000C0
600060
600060
C00030
C00030
C00030
C00030
C00030
C00030
600060
600060
3000C0
180180
0E0700
03FC00
ENDCHAR
STARTCHAR J215d
ENCODING 9678
SWIDTH 1059 0
DWIDTH 24 0
BBX 20 18 2 2
BITMAP
03FC00
0E0700
180180
3000C0
600060
61F860
C30C30
C60630
C60630
C60630
C60630
C30C30
61F860
600060
3000C0
180180
0E0700
03FC00
ENDCHAR
STARTCHAR J215c
ENCODING 9679
SWIDTH 1059 0
DWIDTH 24 0
BBX 20 18 2 2
BITMAP
03FC00
0FFF00
1FFF80
3FFFC0
7FFFE0
7FFFE0
FFFFF0
FFFFF0
FFFFF0
FFFFF0
FFFFF0
FFFFF0
7FFFE0
7FFFE0
3FFFC0
1FFF80
0FFF00
03FC00
ENDCHAR
STARTCHAR J2244
ENCODING 9680
SWIDTH 1059 0
DWIDTH 24 0
BBX 20 18 2 2
BITMAP
03FC00
0FC700
1FC180
3FC0C0
7FC060
7FC060
FFC030
FFC030
FFC030
FFC030
FFC030
FFC030
7FC060
7FC060
3FC0C0
1FC180
0FC700
03FC00
ENDCHAR
STARTCHAR J2245
ENCODING 9681
SWIDTH 1059 0
DWIDTH 24 0
BBX 20 18 2 2
BITMAP
03FC00
0E3F00
183F80
303FC0
603FE0
603FE0
C03FF0
C03FF0
C03FF0
C03FF0
C03FF0
C03FF0
603FE0
603FE0
303FC0
183F80
0E3F00
03FC00
ENDCHAR
STARTCHAR J215a
ENCODING 9733
SWIDTH 1059 0
DWIDTH 24 0
BBX 19 17 2 2
BITMAP
004000
004000
00E000
00E000
01F000
01F000
FFFFE0
7FFFC0
1FFF00
07FC00
03F800
07FC00
07FC00
0F1E00
0E0E00
180300
300180
ENDCHAR
STARTCHAR J2159
ENCODING 9734
SWIDTH 1059 0
DWIDTH 24 0
BBX 19 17 2 2
BITMAP
004000
004000
00A000
01A000
011000
031800
FE0FE0
6000C0
300180
0C0300
060C00
060C00
0CE400
09B200
160A00
180700
200100
ENDCHAR
STARTCHAR J224f
ENCODING 9742
SWIDTH 1059 0
DWIDTH 24 0
BBX 22 16 1 3
BITMAP
0FFFC0
3FFFF0
7FFFF8
F9867C
F1863C
018600
03FF00
0FFFC0
1FFFE0
3F87F0
3F03F0
7F03F8
7F87F8
7FFFF8
7FFFF8
7FFFF8
ENDCHAR
STARTCHAR J224e
ENCODING 9743
SWIDTH 1059 0
DWIDTH 24 0
BBX 22 16 1 3
BITMAP
1FFFE0
600018
87FF84
898644
F1FE3C
01FE00
038700
0F87C0
18FC60
300030
307830
60FC18
60FC18
607818
7FFFF8
7FFFF8
ENDCHAR
STARTCHAR J2250
ENCODING 9756
SWIDTH 1059 0
DWIDTH 24 0
BBX 22 17 1 2
BITMAP
00003C
000024
7FFFE4
800024
800024
7FF024
040024
040024
03F024
010024
010024
00F024
004024
004024
003FE4
000024
00003C
ENDCHAR
STARTCHAR J2251
ENCODING 9758
SWIDTH 1059 0
DWIDTH 24 0
BBX 22 17 1 2
BITMAP
F00000
900000
9FFFF8
900004
900004
903FF8
900100
900100
903E00
900200
900200
903C00
900400
900400
9FF800
900000
F00000
ENDCHAR
STARTCHAR J214f
ENCODING 9792
SWIDTH 1059 0
DWIDTH 24 0
BBX 20 20 2 1
BITMAP
01F800
070E00
0C0300
180180
180180
180180
0C0300
070E00
01F800
006000
006000
006000
FFFFF0
006000
006000
006000
006000
006000
006000
006000
ENDCHAR
STARTCHAR J214e
ENCODING 9794
SWIDTH 1059 0
DWIDTH 24 0
BBX 16 20 4 1
BITMAP
0180
03C0
07E0
0DB0
1998
318C
6186
C183
0180
0180
0180
07E0
1C38
300C
6006
6006
6006
300C
1C38
07E0
ENDCHAR
STARTCHAR J223c
ENCODING 9824
SWIDTH 1059 0
DWIDTH 24 0
BBX 22 21 1 0
BITMAP
003000
007800
00FC00
01FE00
03FF00
07FF80
0FFFC0
1FFFE0
3FFFF0
7FFFF8
7FFFF8
FFFFFC
FFFFFC
FFFFFC
FFFFFC
7FB7F8
3F33F0
003000
003000
003000
003000
ENDCHAR
STARTCHAR J223d
ENCODING 9825
SWIDTH 1059 0
DWIDTH 24 0
BBX 21 19 1 1
BITMAP
1F07C0
318C60
60D830
C07018
C02018
C00018
C00018
C00018
600030
600030
300060
1800C0
0C0180
060300
030600
018C00
00D800
007000
002000
ENDCHAR
STARTCHAR J2240
ENCODING 9827
SWIDTH 1059 0
DWIDTH 24 0
BBX 22 21 1 0
BITMAP
00FC00
01FE00
03FF00
03FF00
03FF00
03FF00
01FE00
00FC00
3C78F0
7F7BF8
FFFFFC
FFFFFC
FFFFFC
FFFFFC
FF33FC
7F33F8
3E31F0
003000
003000
003000
003000
ENDCHAR
STARTCHAR J223b
ENCODING 9828
SWIDTH 1059 0
DWIDTH 24 0
BBX 22 21 1 0
BITMAP
003000
007800
00CC00
018600
030300
060180
0C00C0
180060
300030
600018
600018
C0000C
C0300C
C0780C
C0FC0C
63B718
3E31F0
003000
003000
003000
003000
ENDCHAR
STARTCHAR J223e
ENCODING 9829
SWIDTH 1059 0
DWIDTH 24 0
BBX 21 19 1 1
BITMAP
1F07C0
3F8FE0
7FDFF0
FFFFF8
FFFFF8
FFFFF8
FFFFF8
FFFFF8
7FFFF0
7FFFF0
3FFFE0
1FFFC0
0FFF80
07FF00
03FE00
01FC00
00F800
007000
002000
ENDCHAR
STARTCHAR J223f
ENCODING 9831
SWIDTH 1059 0
DWIDTH 24 0
BBX 22 21 1 0
BITMAP
00FC00
018600
030300
030300
030300
030300
018600
00CC00
3C48F0
674B18
C1C60C
C0000C
C0000C
C0CC0C
C1320C
633318
3C31F0
003000
003000
003000
003000
ENDCHAR
STARTCHAR J224d
ENCODING 9832
SWIDTH 1059 0
DWIDTH 24 0
BBX 21 16 1 3
BITMAP
042080
042080
084100
108200
108200
108200
108200
084100
042100
442110
842108
842108
842108
884208
600030
3FFFE0
ENDCHAR
STARTCHAR J225b
ENCODING 9833
SWIDTH 1059 0
DWIDTH 24 0
BBX 9 20 7 1
BITMAP
0180
0180
0180
0180
0180
0180
0180
0180
0180
0180
0180
0180
0180
0180
0180
1F80
7F00
FF00
FE00
7800
ENDCHAR
STARTCHAR J225c
ENCODING 9834
SWIDTH 1059 0
DWIDTH 24 0
BBX 15 20 4 1
BITMAP
0180
01C0
01E0
01B0
0198
018C
018C
0186
0186
0186
018C
018C
0198
01B0
0180
1F80
7F00
FF00
FE00
7800
ENDCHAR
STARTCHAR J225d
ENCODING 9836
SWIDTH 1059 0
DWIDTH 24 0
BBX 22 20 1 1
BITMAP
03FFFC
03FFFC
03000C
03000C
03000C
03FFFC
03000C
03000C
03000C
03000C
03000C
03000C
03000C
03000C
03000C
1F007C
7E01F8
FE03F8
FC03F0
7001C0
ENDCHAR
STARTCHAR J225a
ENCODING 9837
SWIDTH 1059 0
DWIDTH 24 0
BBX 9 20 7 1
BITMAP
C000
C000
C000
C000
C000
C000
C000
C000
C000
C000
DF00
E080
C080
C080
C100
C100
C200
C400
D800
E000
ENDCHAR
STARTCHAR J2121
ENCODING 12288
SWIDTH 1059 0
DWIDTH 24 0
BBX 1 1 23 -2
BITMAP
00
ENDCHAR
STARTCHAR J2122
ENCODING 12289
SWIDTH 1059 0
DWIDTH 24 0
BBX 5 6 18 15
BITMAP
80
60
30
38
38
18
ENDCHAR
STARTCHAR J2123
ENCODING 12290
SWIDTH 1059 0
DWIDTH 24 0
BBX 5 4 18 17
BITMAP
70
88
88
70
ENDCHAR
STARTCHAR J2128
ENCODING 12291
SWIDTH 1059 0
DWIDTH 24 0
BBX 15 12 4 4
BITMAP
0306
070E
070E
0E1C
0C18
1C38
1830
3060
3060
60C0
60C0
C180
ENDCHAR
STARTCHAR J2134
ENCODING 12296
SWIDTH 1059 0
DWIDTH 24 0
BBX 12 22 11 -1
BITMAP
0030
0060
00C0
0180
0300
0600
0C00
1800
3000
6000
C000
C000
6000
3000
1800
0C00
0600
0300
0180
00C0
0060
0030
ENDCHAR
STARTCHAR J2135
ENCODING 12297
SWIDTH 1059 0
DWIDTH 24 0
BBX 12 22 1 -1
BITMAP
C000
6000
3000
1800
0C00
0600
0300
0180
00C0
0060
0030
0030
0060
00C0
0180
0300
0600
0C00
1800
3000
6000
C000
ENDCHAR
STARTCHAR J2136
ENCODING 12298
SWIDTH 1059 0
DWIDTH 24 0
BBX 12 22 10 -1
BITMAP
0630
0630
0C60
0C60
18C0
18C0
3180
3180
6300
6300
C600
C600
6300
6300
3180
3180
18C0
18C0
0C60
0C60
0630
0630
ENDCHAR
STARTCHAR J2137
ENCODING 12299
SWIDTH 1059 0
DWIDTH 24 0
BBX 12 22 2 -1
BITMAP
C600
C600
6300
6300
3180
3180
18C0
18C0
0C60
0C60
0630
0630
0C60
0C60
18C0
18C0
3180
3180
6300
6300
C600
C600
ENDCHAR
STARTCHAR J2138
ENCODING 12300
SWIDTH 1059 0
DWIDTH 24 0
BBX 8 19 14 2
BITMAP
FF
C0
C0
C0
C0
C0
C0
C0
C0
C0
C0
C0
C0
C0
C0
C0
C0
C0
C0
ENDCHAR
STARTCHAR J2139
ENCODING 12301
SWIDTH 1059 0
DWIDTH 24 0
BBX 8 18 2 -1
BITMAP
03
03
03
03
03
03
03
03
03
03
03
03
03
03
03
03
03
FF
ENDCHAR
STARTCHAR J213a
ENCODING 12302
SWIDTH 1059 0
DWIDTH 24 0
BBX 10 16 12 5
BITMAP
FFC0
C0C0
C0C0
CFC0
CC00
CC00
CC00
CC00
CC00
CC00
CC00
CC00
CC00
CC00
FC00
FC00
ENDCHAR
STARTCHAR J213b
ENCODING 12303
SWIDTH 1059 0
DWIDTH 24 0
BBX 10 16 2 0
BITMAP
0FC0
0FC0
0CC0
0CC0
0CC0
0CC0
0CC0
0CC0
0CC0
0CC0
0CC0
0CC0
FCC0
C0C0
C0C0
FFC0
ENDCHAR
STARTCHAR J213c
ENCODING 12304
SWIDTH 1059 0
DWIDTH 24 0
BBX 9 22 14 -1
BITMAP
FF80
FE00
FC00
F800
F800
F000
F000
E000
E000
E000
E000
E000
E000
E000
E000
F000
F000
F800
F800
FC00
FE00
FF80
ENDCHAR
STARTCHAR J213d
ENCODING 12305
SWIDTH 1059 0
DWIDTH 24 0
BBX 9 22 1 -1
BITMAP
FF80
3F80
1F80
0F80
0F80
0780
0780
0380
0380
0380
0380
0380
0380
0380
0380
0780
0780
0F80
0F80
1F80
3F80
FF80
ENDCHAR
STARTCHAR J216b
ENCODING 12307
SWIDTH 1059 0
DWIDTH 24 0
BBX 20 9 2 6
BITMAP
FFFFF0
FFFFF0
000000
000000
000000
000000
000000
FFFFF0
FFFFF0
ENDCHAR
STARTCHAR J2132
ENCODING 12308
SWIDTH 1059 0
DWIDTH 24 0
BBX 7 22 16 -1
BITMAP
06
1C
70
E0
C0
C0
C0
C0
C0
C0
C0
C0
C0
C0
C0
C0
C0
C0
E0
70
1C
06
ENDCHAR
STARTCHAR J2133
ENCODING 12309
SWIDTH 1059 0
DWIDTH 24 0
BBX 7 22 1 -1
BITMAP
C0
70
1C
0E
06
06
06
06
06
06
06
06
06
06
06
06
06
06
0E
1C
70
C0
ENDCHAR
STARTCHAR J2a21
ENCODING 12353
SWIDTH 1059 0
DWIDTH 24 0
BBX 17 17 4 -1
BITMAP
030000
018000
01BC00
7FFC00
3FC000
033000
033000
0FFE00
1E6300
366180
66C180
C38180
C30180
CF8380
7D0700
301C00
00F800
ENDCHAR
STARTCHAR J2a22
ENCODING 12354
SWIDTH 1059 0
DWIDTH 24 0
BBX 20 21 2 -1
BITMAP
00C000
006000
1061C0
187FC0
0FFE00
07C000
00C600
00C600
07FF80
0FFDC0
198C60
319830
61B030
C0F030
C0E030
C0C030
C1C030
FF6060
7E00C0
000780
003F00
ENDCHAR
STARTCHAR J2a23
ENCODING 12355
SWIDTH 1059 0
DWIDTH 24 0
BBX 18 14 3 -1
BITMAP
C00000
600600
600300
600300
600180
600180
6000C0
6000C0
6100C0
6300C0
6600C0
3C0000
1C0000
0C0000
ENDCHAR
STARTCHAR J2a24
ENCODING 12356
SWIDTH 1059 0
DWIDTH 24 0
BBX 20 19 2 -1
BITMAP
E00000
700300
700180
6000C0
600060
600060
600030
600030
600030
600030
600030
600030
308030
318030
330000
3E0000
1C0000
1C0000
0C0000
ENDCHAR
STARTCHAR J2a25
ENCODING 12357
SWIDTH 1059 0
DWIDTH 24 0
BBX 18 17 3 -1
BITMAP
060000
03FC00
01F800
000000
000000
00FE00
CFFF00
7F0180
3000C0
0000C0
0000C0
0000C0
000180
000700
000E00
00F800
03F000
ENDCHAR
STARTCHAR J2a26
ENCODING 12358
SWIDTH 1059 0
DWIDTH 24 0
BBX 20 22 2 -1
BITMAP
0C0000
060000
03FF00
00FE00
000000
000000
000000
007F00
C3FFC0
7F80E0
3C0070
000030
000030
000030
000030
000030
000060
0000E0
0001C0
000F00
007E00
03F000
ENDCHAR
STARTCHAR J2a27
ENCODING 12359
SWIDTH 1059 0
DWIDTH 24 0
BBX 18 17 3 -1
BITMAP
180000
0C0000
07F000
03F800
000000
C01800
7FFC00
3FF000
006000
00C000
01E000
037000
063000
0C3000
183000
703FC0
601FC0
ENDCHAR
STARTCHAR J2a28
ENCODING 12360
SWIDTH 1059 0
DWIDTH 24 0
BBX 21 21 2 -1
BITMAP
300000
1C0000
0FF000
03F800
000000
000000
000600
00FF00
CFFE00
7F3800
307000
00E000
01E000
03B000
071800
0E1800
1C1800
381800
701800
E01FF8
C00FF8
ENDCHAR
STARTCHAR J2a29
ENCODING 12361
SWIDTH 1059 0
DWIDTH 24 0
BBX 18 16 3 -1
BITMAP
060000
030600
030300
E37180
7FF0C0
1F80C0
030000
03FE00
07FF00
1F0180
330180
630180
630180
660300
3C0E00
183C00
ENDCHAR
STARTCHAR J2a2a
ENCODING 12362
SWIDTH 1059 0
DWIDTH 24 0
BBX 21 20 2 0
BITMAP
0C0000
060080
0300C0
033860
FFF830
7FC030
0301F8
030018
033E00
03FF80
0FC1E0
1F0060
330030
630030
C30030
C30030
C30060
C301C0
7E0380
1C1E00
ENDCHAR
STARTCHAR J2a2b
ENCODING 12363
SWIDTH 1059 0
DWIDTH 24 0
BBX 22 20 1 0
BITMAP
01C000
00E000
00C000
00C060
41F030
7FF818
3F0C18
030C18
030C0C
060C0C
060C0C
060C0C
0C0CFC
180C3C
180C0C
301800
321800
613800
C1F000
80C000
ENDCHAR
STARTCHAR J2a2c
ENCODING 12364
SWIDTH 1059 0
DWIDTH 24 0
BBX 22 22 1 -1
BITMAP
000010
018198
00C0CC
00C06C
00C000
0180C0
4FF860
7FFC30
330C30
030C18
060C18
060C0C
0C0C0C
0C0C0C
180CFC
180C3C
30180C
321800
633800
C1F000
C0E000
00C000
ENDCHAR
STARTCHAR J2a2d
ENCODING 12365
SWIDTH 1059 0
DWIDTH 24 0
BBX 21 22 2 -1
BITMAP
00C000
006000
003000
0033C0
003FC0
3FFC00
1FF000
001878
001FF8
E1FF80
3FFC00
1E0C00
000600
000600
800300
803F00
800F80
C00180
600000
380000
1FFF00
07FF00
ENDCHAR
STARTCHAR J2a2e
ENCODING 12366
SWIDTH 1059 0
DWIDTH 24 0
BBX 21 22 2 -1
BITMAP
000030
018198
00C0D8
0060C0
007F00
3FFE00
1FF018
003078
001FE0
61FF80
3FF800
1E0C00
000600
000600
000300
807F00
801F00
C00300
600000
300000
1FFE00
0FFE00
ENDCHAR
STARTCHAR J2a2f
ENCODING 12367
SWIDTH 1059 0
DWIDTH 24 0
BBX 14 22 6 -1
BITMAP
0060
0030
0038
0070
01E0
0380
0E00
1C00
3000
6000
C000
C000
C000
6000
3800
1E00
0700
03C0
00F0
0078
001C
000C
ENDCHAR
STARTCHAR J2a30
ENCODING 12368
SWIDTH 1059 0
DWIDTH 24 0
BBX 19 22 4 -1
BITMAP
0000C0
006660
003360
006300
00C300
018000
030000
0E0000
1C0000
300000
600000
C00000
C00000
600000
380000
1C0000
070000
03C000
00E000
007000
003C00
000C00
ENDCHAR
STARTCHAR J2a31
ENCODING 12369
SWIDTH 1059 0
DWIDTH 24 0
BBX 21 21 2 0
BITMAP
000C00
400600
600300
600300
600300
600318
63FFF8
C1FFE0
C00300
C00300
C00300
C00300
C00300
C40300
CC0300
D80300
F00300
F00600
700C00
301800
303000
ENDCHAR
STARTCHAR J2a32
ENCODING 12370
SWIDTH 1059 0
DWIDTH 24 0
BBX 21 22 2 -1
BITMAP
001830
200C98
6006D8
6006C0
600600
600600
6007F0
C7FFF8
C3FE00
C00600
C00600
C00600
C00600
CC0600
D80600
D00600
F00600
700600
600C00
601800
207000
00E000
ENDCHAR
STARTCHAR J2a33
ENCODING 12371
SWIDTH 1059 0
DWIDTH 24 0
BBX 20 19 2 0
BITMAP
300000
1FFF80
0FFFC0
001E00
003800
002000
000000
000000
000000
000000
000000
000000
C00000
C00000
600000
300000
1C0070
0FFFF0
03FF80
ENDCHAR
STARTCHAR J2a34
ENCODING 12372
SWIDTH 1059 0
DWIDTH 24 0
BBX 20 21 3 0
BITMAP
000020
000130
0001B0
7FFCC0
3FFCC0
003800
00E000
008000
000000
000000
000000
000000
000000
000000
800000
800000
C00000
C00000
700060
3FFFF0
0FFF80
ENDCHAR
STARTCHAR J2a35
ENCODING 12373
SWIDTH 1059 0
DWIDTH 24 0
BBX 20 21 2 -1
BITMAP
004000
00E000
003000
0018F0
703FF0
3FFF00
0FCC00
000600
000300
000300
000180
800180
C030C0
C00FC0
C001E0
600000
600000
300000
1F0000
0FFFC0
00FFC0
ENDCHAR
STARTCHAR J2a36
ENCODING 12374
SWIDTH 1059 0
DWIDTH 24 0
BBX 21 21 2 -1
BITMAP
018330
00C198
006098
003000
403FC0
7FFFE0
3FF800
000C00
000600
000600
000600
800300
800300
803F00
801F00
C00300
C00000
600000
380000
1FFF80
07FF80
ENDCHAR
STARTCHAR J2a37
ENCODING 12375
SWIDTH 1059 0
DWIDTH 24 0
BBX 18 22 4 -1
BITMAP
600000
F00000
300000
300000
300000
300000
300000
300000
300000
600000
600000
600000
600040
600040
6000C0
6000C0
600180
300300
300600
381C00
1FF800
07E000
ENDCHAR
STARTCHAR J2a38
ENCODING 12376
SWIDTH 1059 0
DWIDTH 24 0
BBX 19 22 4 -1
BITMAP
603000
F11800
318C00
30CC00
30C000
300000
300000
300000
300000
300000
300000
300000
300020
300020
300060
3000C0
300180
300300
180600
181C00
1FF800
0FE000
ENDCHAR
STARTCHAR J2a39
ENCODING 12377
SWIDTH 1059 0
DWIDTH 24 0
BBX 21 22 2 -1
BITMAP
007000
003800
001800
001800
001800
8FFFF8
FFFFF8
701800
01D800
03F800
063800
0C1800
0C1800
0C1800
063800
03F800
01D800
001800
003000
00E000
07C000
3F0000
ENDCHAR
STARTCHAR J2a3a
ENCODING 12378
SWIDTH 1059 0
DWIDTH 24 0
BBX 21 22 2 -1
BITMAP
006160
0031B0
001998
001880
001800
87FFF0
FFFFF8
781800
001800
03F800
07F800
0C1800
0C1800
0C1800
07F800
03F800
001800
003000
006000
00C000
078000
3F0000
ENDCHAR
STARTCHAR J2a3b
ENCODING 12379
SWIDTH 1059 0
DWIDTH 24 0
BBX 22 19 1 0
BITMAP
0E0300
070180
030180
030180
030180
031FFC
CFFFFC
7FE180
330180
030180
030180
030180
031D80
030780
030380
030000
018000
01FFF0
007FF0
ENDCHAR
STARTCHAR J2a3c
ENCODING 12380
SWIDTH 1059 0
DWIDTH 24 0
BBX 21 21 2 -1
BITMAP
000190
1018D8
380CD8
0C0600
0C0600
0C0600
0C0600
0CFFF0
BFFFF8
FF0600
4C0600
0C0600
0C0600
0C7600
0C3E00
0C0C00
0C0000
0C0000
0F0000
07FFC0
00FFC0
ENDCHAR
STARTCHAR J2a3d
ENCODING 12381
SWIDTH 1059 0
DWIDTH 24 0
BBX 22 22 1 -1
BITMAP
000200
000F00
1DFF00
0FEE00
061C00
003800
007000
00E000
01C1F8
031FFC
07FE00
3FE000
F8C000
C18000
018000
018000
018000
018000
00C000
00F000
007FE0
000FE0
ENDCHAR
STARTCHAR J2a3e
ENCODING 12382
SWIDTH 1059 0
DWIDTH 24 0
BBX 22 21 1 -1
BITMAP
001E00
18FE00
0FEC30
071898
0030CC
006060
00C060
018018
07FFF8
0FFFE0
386000
F0C000
C18000
018000
030000
030000
030000
038000
01C000
00FFE0
007FE0
ENDCHAR
STARTCHAR J2a3f
ENCODING 12383
SWIDTH 1059 0
DWIDTH 24 0
BBX 21 21 2 0
BITMAP
060000
070000
038000
030000
031000
83F000
FFE000
7E1FF0
063FF8
0C0000
0C0000
0C0000
180000
180000
300000
318000
318000
61C000
60E000
E07FF8
C03FF8
ENDCHAR
STARTCHAR J2a40
ENCODING 12384
SWIDTH 1059 0
DWIDTH 24 0
BBX 21 22 2 -1
BITMAP
000060
0C0230
060318
060198
060180
87E000
FFC780
7C3FF0
0C7870
180000
180000
180000
300000
300000
600000
620000
630000
C18000
C0C000
C07FF0
C03FF0
C00000
ENDCHAR
STARTCHAR J2a41
ENCODING 12385
SWIDTH 1059 0
DWIDTH 24 0
BBX 20 21 3 -1
BITMAP
070000
038000
018380
819F80
FFFC00
7FE000
030000
060000
0C3F00
0CFFC0
0FC0E0
1F0030
380030
300030
600030
600030
000060
0000C0
000780
007F00
03F800
ENDCHAR
STARTCHAR J2a42
ENCODING 12386
SWIDTH 1059 0
DWIDTH 24 0
BBX 21 22 2 -1
BITMAP
030030
018318
018198
0180D8
0186C0
FFFE00
7FF800
060000
060000
0C0000
0C3F80
0DFFC0
1FC060
1E0030
380030
700030
600030
000060
0000E0
000380
001F00
01FC00
ENDCHAR
STARTCHAR J2a43
ENCODING 12387
SWIDTH 1059 0
DWIDTH 24 0
BBX 17 13 4 0
BITMAP
07FC00
8FFE00
F80300
700180
000180
000180
000180
000180
000300
000E00
003C00
03F000
07C000
ENDCHAR
STARTCHAR J2a44
ENCODING 12388
SWIDTH 1059 0
DWIDTH 24 0
BBX 21 17 2 0
BITMAP
00FF80
03FFC0
9F0060
FC0030
700030
000018
000018
000018
000018
000030
000030
000070
0000E0
0001C0
000F80
00FE00
03F000
ENDCHAR
STARTCHAR J2a45
ENCODING 12389
SWIDTH 1059 0
DWIDTH 24 0
BBX 21 20 2 0
BITMAP
000190
0000D8
0000D8
000000
01FFC0
87FFE0
FE0030
780030
000018
000018
000018
000018
000018
000018
000038
000070
0000E0
0003C0
003F00
03FC00
ENDCHAR
STARTCHAR J2a46
ENCODING 12390
SWIDTH 1059 0
DWIDTH 24 0
BBX 22 20 1 0
BITMAP
000018
0007FC
C3FFFC
7FFC00
3C3800
007000
006000
00C000
018000
018000
018000
018000
018000
018000
00C000
00C000
006000
007C00
001FF0
0003F0
ENDCHAR
STARTCHAR J2a47
ENCODING 12391
SWIDTH 1059 0
DWIDTH 24 0
BBX 21 19 2 -1
BITMAP
001FF0
8FFFF0
FF6000
70C260
018330
018198
030180
060000
060000
060000
060000
060000
060000
060000
030000
038000
01E000
007F80
001F80
ENDCHAR
STARTCHAR J2a48
ENCODING 12392
SWIDTH 1059 0
DWIDTH 24 0
BBX 18 22 4 -1
BITMAP
0E0000
070000
030000
030000
030000
030600
030300
030F80
03FF00
03F000
070000
1C0000
380000
600000
C00000
C00000
C00000
C00000
C00000
600000
7FFFC0
1FFF80
ENDCHAR
STARTCHAR J2a49
ENCODING 12393
SWIDTH 1059 0
DWIDTH 24 0
BBX 21 21 2 -1
BITMAP
038330
018198
018198
018000
018000
018180
0187C0
01FF00
01F800
038000
0E0000
1C0000
300000
600000
C00000
C00000
C00000
600000
300000
1FFFE0
0FFFE0
ENDCHAR
STARTCHAR J2a4a
ENCODING 12394
SWIDTH 1059 0
DWIDTH 24 0
BBX 22 22 1 -1
BITMAP
030000
018000
018000
018000
01B600
7FF3C0
3FC0F0
030138
03010C
060100
060180
060180
0C0180
0C0180
180180
183F80
30FFC0
30C1E0
6181B8
C1831C
C0FE0C
007C00
ENDCHAR
STARTCHAR J2a4b
ENCODING 12395
SWIDTH 1059 0
DWIDTH 24 0
BBX 21 21 2 -1
BITMAP
600000
700000
301F80
307FE0
30E060
600000
600000
C00000
C00000
C00000
C00000
C00000
C00000
CA0000
DB0000
D18000
F0C000
60E000
607FF8
601FF8
200000
ENDCHAR
STARTCHAR J2a4c
ENCODING 12396
SWIDTH 1059 0
DWIDTH 24 0
BBX 21 22 2 -1
BITMAP
00C000
006000
006000
606000
306000
31FF00
37FF80
1E60C0
186060
38C030
78C030
CCC030
CCC018
C6C018
C38018
C38F30
C19FB0
C330E0
C66070
7C60F0
383F98
001F18
ENDCHAR
STARTCHAR J2a4d
ENCODING 12397
SWIDTH 1059 0
DWIDTH 24 0
BBX 22 22 1 -1
BITMAP
0E0000
070000
030000
0307C0
030FE0
039830
CFA030
7FC030
738030
070030
060030
0E0030
0E0030
1E0030
361FF0
663FF0
663038
5E303C
0E30EC
0E1FC0
060F00
060000
ENDCHAR
STARTCHAR J2a4e
ENCODING 12398
SWIDTH 1059 0
DWIDTH 24 0
BBX 22 20 1 -1
BITMAP
01FF80
07FFC0
0E3060
183030
303018
303018
60300C
60300C
C0600C
C0600C
C0600C
C0C00C
40C00C
60C018
318038
1B0030
1F0060
0601C0
000F80
001E00
ENDCHAR
STARTCHAR J2a4f
ENCODING 12399
SWIDTH 1059 0
DWIDTH 24 0
BBX 21 21 2 -1
BITMAP
000E00
100700
300300
300300
300370
631FF8
61FF80
60E300
C00300
C00300
C00300
C00300
C00300
C47B00
CCFF80
D983E0
F18370
E18318
E0FE08
70FC00
300000
ENDCHAR
STARTCHAR J2a50
ENCODING 12400
SWIDTH 1059 0
DWIDTH 24 0
BBX 22 21 1 -1
BITMAP
000018
200C4C
20066C
300360
300300
600338
639FF8
C1FFC0
C06300
C00300
C00300
C00300
C00300
C00300
C80300
D8FF00
D1FFC0
F183F0
618738
60FE18
20F800
ENDCHAR
STARTCHAR J2a51
ENCODING 12401
SWIDTH 1059 0
DWIDTH 24 0
BBX 22 22 1 -1
BITMAP
000030
000078
200CCC
6006CC
600678
600630
660600
63FFC0
61FFC0
C00600
C00600
C00600
C00600
C00600
C00600
C87E00
D8FF80
F187C0
E30670
630638
61FE18
60F800
ENDCHAR
STARTCHAR J2a52
ENCODING 12402
SWIDTH 1059 0
DWIDTH 24 0
BBX 22 20 1 0
BITMAP
006020
CFE060
7F8060
318060
030060
060060
0C0060
0C0070
1800F0
1800F0
1800D8
3000D8
3000CC
30018C
180180
180380
0C0700
0E0E00
07FC00
01F800
ENDCHAR
STARTCHAR J2a53
ENCODING 12403
SWIDTH 1059 0
DWIDTH 24 0
BBX 22 21 1 -1
BITMAP
000048
00406C
CFE02C
7FC080
3180C0
0300C0
0600C0
0C00C0
1C00E0
1800E0
1801B0
3001B0
300198
300198
30018C
30018C
300300
180700
1C0E00
0FFC00
03F000
ENDCHAR
STARTCHAR J2a54
ENCODING 12404
SWIDTH 1059 0
DWIDTH 24 0
BBX 22 22 1 -1
BITMAP
000030
000078
0000CC
8380CC
FF0078
6601B0
0C0180
0C0180
180180
3001C0
3001C0
600160
600160
600130
600118
600318
60030C
30030C
300600
180E00
0FFC00
07F000
ENDCHAR
STARTCHAR J2a55
ENCODING 12405
SWIDTH 1059 0
DWIDTH 24 0
BBX 21 22 2 -1
BITMAP
010000
018000
00C000
006000
003000
00F800
03D800
000000
020000
030000
018000
00C300
006180
0030C0
031860
061830
0C0C18
1C0C18
B60C18
E39800
C1F000
006000
ENDCHAR
STARTCHAR J2a56
ENCODING 12406
SWIDTH 1059 0
DWIDTH 24 0
BBX 22 21 1 -1
BITMAP
00C030
006098
0030CC
0038CC
006C60
01C000
000000
030000
018000
00C000
006300
003180
0018C0
010C60
030C30
060C18
CC0C0C
780C0C
318C00
00FC00
007800
ENDCHAR
STARTCHAR J2a57
ENCODING 12407
SWIDTH 1059 0
DWIDTH 24 0
BBX 22 22 1 -1
BITMAP
000030
00C078
0060CC
0030CC
001878
00FC30
01C000
000000
010000
018000
00C000
006300
003180
0018C0
018C60
030C30
060618
8C060C
DB0604
71CC00
60FC00
003800
ENDCHAR
STARTCHAR J2a58
ENCODING 12408
SWIDTH 1059 0
DWIDTH 24 0
BBX 22 15 1 3
BITMAP
00C000
01E000
033000
061800
0C0C00
180600
F00600
600300
000180
0000C0
000060
000030
000018
00000C
000004
ENDCHAR
STARTCHAR J2a59
ENCODING 12409
SWIDTH 1059 0
DWIDTH 24 0
BBX 22 18 1 1
BITMAP
000010
000098
0080CC
01C06C
036060
063000
0C1800
180C00
F00600
600300
000180
0000C0
000060
000030
000038
00001C
00000C
00000C
ENDCHAR
STARTCHAR J2a5a
ENCODING 12410
SWIDTH 1059 0
DWIDTH 24 0
BBX 21 19 2 1
BITMAP
0000E0
0001F0
000318
018318
03C1F0
0660E0
0C3000
181800
300C00
E00C00
C00600
000300
000380
0001C0
0000C0
000060
000030
000038
000018
ENDCHAR
STARTCHAR J2a5b
ENCODING 12411
SWIDTH 1059 0
DWIDTH 24 0
BBX 21 21 2 -1
BITMAP
6001C0
33FFE0
30FE00
300200
600200
600210
6403F0
C7FFE0
C3FF00
C00300
C00300
C00300
C00300
C87F00
D1FF80
F183E0
E30370
E18618
E1FE08
60F800
600000
ENDCHAR
STARTCHAR J2a5c
ENCODING 12412
SWIDTH 1059 0
DWIDTH 24 0
BBX 22 22 1 -1
BITMAP
000018
20004C
63FF6C
61FF60
600600
C00600
C00600
C407F8
C7FFF0
C3FE00
C00600
C00600
C00600
C80600
C8FE00
D1FF80
F387C0
E30670
E18E38
60FC18
60F000
200000
ENDCHAR
STARTCHAR J2a5d
ENCODING 12413
SWIDTH 1059 0
DWIDTH 24 0
BBX 22 22 1 -1
BITMAP
000030
000078
2000CC
63FFCC
61FE78
600630
600600
600618
6607F8
C3FFE0
C1FE00
C00600
C00600
C00600
C00600
C87E00
D9FF80
F387C0
F30670
E30638
61FC08
60F800
ENDCHAR
STARTCHAR J2a5e
ENCODING 12414
SWIDTH 1059 0
DWIDTH 24 0
BBX 20 21 2 -1
BITMAP
00E000
007000
003070
0031F0
FFFF80
7FFE00
003000
0030C0
303FE0
1FFF00
0FF000
003000
003000
003000
1FF800
3FFE00
303780
3031E0
306070
1FE010
0F8000
ENDCHAR
STARTCHAR J2a5f
ENCODING 12415
SWIDTH 1059 0
DWIDTH 24 0
BBX 21 21 2 -1
BITMAP
007000
33F800
1FB000
1C3000
0061C0
0060C0
00C0C0
00C0C0
0180C0
0180C0
3FFD80
7FFF80
C303C0
C601E0
C60330
CC0318
CC0608
F80C00
701800
003000
006000
ENDCHAR
STARTCHAR J2a60
ENCODING 12416
SWIDTH 1059 0
DWIDTH 24 0
BBX 21 21 2 -1
BITMAP
1C0000
0E0100
060180
0670C0
FFF060
7F8030
060018
0600D8
3E0038
7E0018
C60098
C60080
C60080
C600C0
7E00C0
3E00C0
0600C0
0601C0
060380
07FF00
03FC00
ENDCHAR
STARTCHAR J2a61
ENCODING 12417
SWIDTH 1059 0
DWIDTH 24 0
BBX 22 21 1 -1
BITMAP
003800
381C00
181800
0C1800
0C1800
0DFF00
0FFFC0
1E30E0
363030
663018
E6600C
C6600C
C3C00C
C1800C
C1800C
C3C018
C6C030
7C0060
3801C0
000780
003E00
ENDCHAR
STARTCHAR J2a62
ENCODING 12418
SWIDTH 1059 0
DWIDTH 24 0
BBX 21 22 2 -1
BITMAP
030000
018000
018000
018000
018000
318000
1FFE00
0FFC00
0300C0
830060
C30060
7FFF60
3FFE30
030030
030018
030018
030018
030018
030030
038060
01FFC0
007F80
ENDCHAR
STARTCHAR J2a63
ENCODING 12419
SWIDTH 1059 0
DWIDTH 24 0
BBX 19 16 3 -1
BITMAP
006000
003000
303000
181800
0C7F80
0DFCC0
078C60
C60060
7E0060
3300C0
033380
018F00
018000
018000
00C000
00C000
ENDCHAR
STARTCHAR J2a64
ENCODING 12420
SWIDTH 1059 0
DWIDTH 24 0
BBX 22 22 1 -1
BITMAP
006000
003000
181800
301800
301FC0
303FF0
18EC38
0FCC0C
0F000C
1E000C
F6000C
660018
033070
031FE0
018F80
018000
018000
00C000
00C000
00C000
00C000
004000
ENDCHAR
STARTCHAR J2a65
ENCODING 12421
SWIDTH 1059 0
DWIDTH 24 0
BBX 17 16 4 -1
BITMAP
018000
40C000
60C000
60C000
47FE00
CCC300
C8C180
D0C180
E0C180
C0C180
CCC300
C68700
C3FE00
41F800
030000
0E0000
ENDCHAR
STARTCHAR J2a66
ENCODING 12422
SWIDTH 1059 0
DWIDTH 24 0
BBX 21 22 2 -1
BITMAP
006000
007000
403800
601800
301F00
30FFC0
61F8E0
631830
661830
CC1818
CC1818
D81818
F01818
E01818
C31818
C1B030
C0F060
607FC0
306F80
00C000
038000
0F0000
ENDCHAR
STARTCHAR J2a67
ENCODING 12423
SWIDTH 1059 0
DWIDTH 24 0
BBX 17 16 4 -1
BITMAP
038000
01C000
00C000
00C380
00FF80
00FC00
00C000
00C000
00C000
00C000
3FC000
7FF800
C0FE00
C1C780
7F8180
3E0000
ENDCHAR
STARTCHAR J2a68
ENCODING 12424
SWIDTH 1059 0
DWIDTH 24 0
BBX 20 21 3 -1
BITMAP
01C000
00E000
006000
006000
0060E0
007FE0
007F00
006000
006000
006000
006000
006000
006000
3FF000
7FFC00
C06F00
C06380
C0C0E0
618070
7F0010
1E0000
ENDCHAR
STARTCHAR J2a69
ENCODING 12425
SWIDTH 1059 0
DWIDTH 24 0
BBX 19 21 3 -1
BITMAP
070000
03F800
70FC00
600000
600000
600000
600000
607C00
61FF00
638380
6E00C0
7C0060
700060
600060
C00060
C00060
C000C0
000180
000700
007E00
07F800
ENDCHAR
STARTCHAR J2a6a
ENCODING 12426
SWIDTH 1059 0
DWIDTH 24 0
BBX 13 21 6 -1
BITMAP
4060
6030
6018
C018
C018
C018
C018
C018
C818
D818
D818
F018
E018
E018
C018
4030
0060
00C0
0180
0700
1E00
ENDCHAR
STARTCHAR J2a6b
ENCODING 12427
SWIDTH 1059 0
DWIDTH 24 0
BBX 21 21 2 -1
BITMAP
001F80
18FF00
0FE600
070C00
001800
003000
006000
00C000
01FF00
03FFC0
0700E0
0E0030
1C0018
39E018
F3F018
E61818
061818
031830
0311E0
03FFC0
01FE00
ENDCHAR
STARTCHAR J2a6c
ENCODING 12428
SWIDTH 1059 0
DWIDTH 24 0
BBX 22 22 1 -1
BITMAP
0C0000
060000
030000
030700
030F80
0398C0
8FB0C0
FF60C0
73C0C0
0380C0
0300C0
070180
0F0180
1B0180
1B0184
330184
730184
CB018C
CF00D8
0700F8
030070
030000
ENDCHAR
STARTCHAR J2a6d
ENCODING 12429
SWIDTH 1059 0
DWIDTH 24 0
BBX 21 21 2 -1
BITMAP
000E00
18FF00
0FFE00
071C00
003800
007000
00E000
01DF00
03FFC0
0700E0
0E0030
1C0018
380018
700018
E00018
C00018
000030
000060
0001C0
001F80
01FE00
ENDCHAR
STARTCHAR J2a6e
ENCODING 12430
SWIDTH 1059 0
DWIDTH 24 0
BBX 17 15 4 -1
BITMAP
1C0000
0C0000
0C0000
0E3C00
1EFF00
FFC380
6F0180
0C0180
1C0180
3C0180
6C0180
6C0380
CC0700
0C1E00
1CF800
ENDCHAR
STARTCHAR J2a6f
ENCODING 12431
SWIDTH 1059 0
DWIDTH 24 0
BBX 21 21 2 -1
BITMAP
180000
0C0000
060000
060000
060000
071F80
0E7FC0
3EE060
F78030
C70018
060018
0E0018
1E0018
160018
360018
660018
C60030
E60060
B600C0
1E0780
061F00
ENDCHAR
STARTCHAR J2a70
ENCODING 12432
SWIDTH 1059 0
DWIDTH 24 0
BBX 22 21 1 -1
BITMAP
007800
03FC00
1F9800
0C3000
003000
003000
007F00
07FFC0
0FE0F0
18C038
30C018
61800C
61800C
61800C
C3000C
C31E0C
C63F18
C66198
7C61B0
387FE0
003FC0
ENDCHAR
STARTCHAR J2a71
ENCODING 12433
SWIDTH 1059 0
DWIDTH 24 0
BBX 22 22 1 -1
BITMAP
000600
0CFE00
07FC00
031800
003000
006700
00FFC0
0180E0
070030
0E7030
18F830
119870
0318E0
01F3C0
01FF80
030000
0601E0
0C07F8
3F0C1C
71980C
E0F83C
C07038
ENDCHAR
STARTCHAR J2a72
ENCODING 12434
SWIDTH 1059 0
DWIDTH 24 0
BBX 21 22 2 -1
BITMAP
00C000
006000
006000
206380
30FF00
1FFC00
0F8000
018000
01C000
036030
063078
0C33C0
387F80
F0FC00
C1B000
033000
063000
0C3000
0C3000
060000
07FFF0
03FFF0
ENDCHAR
STARTCHAR J2a73
ENCODING 12435
SWIDTH 1059 0
DWIDTH 24 0
BBX 22 22 1 -1
BITMAP
01E000
006000
006000
00C000
00C000
018000
018000
018000
030000
030000
060000
060000
060000
0DF800
0F0C0C
1C0C0C
180C18
300C18
300C30
600C60
600CC0
C00780
ENDCHAR
STARTCHAR J2b21
ENCODING 12449
SWIDTH 1059 0
DWIDTH 24 0
BBX 16 15 4 -1
BITMAP
07FE
FFFF
7806
000C
0398
01F0
01C0
0180
0100
0300
0300
0600
0C00
1800
3000
ENDCHAR
STARTCHAR J2b22
ENCODING 12450
SWIDTH 1059 0
DWIDTH 24 0
BBX 20 19 2 -1
BITMAP
007FF0
CFFFF0
7F80E0
3001C0
00C300
00EE00
007000
006000
006000
006000
006000
00C000
00C000
018000
030000
060000
0C0000
180000
300000
ENDCHAR
STARTCHAR J2b23
ENCODING 12451
SWIDTH 1059 0
DWIDTH 24 0
BBX 12 16 6 -1
BITMAP
0040
0060
0030
00E0
01C0
0380
0780
1D80
3980
6180
C180
0180
0180
0180
0180
0180
ENDCHAR
STARTCHAR J2b24
ENCODING 12452
SWIDTH 1059 0
DWIDTH 24 0
BBX 18 21 2 -1
BITMAP
000300
000180
0001C0
000380
000700
000E00
001C00
003800
007000
00F000
03B000
0F3000
3C3000
703000
C03000
003000
003000
003000
003000
003000
003000
ENDCHAR
STARTCHAR J2b25
ENCODING 12453
SWIDTH 1059 0
DWIDTH 24 0
BBX 13 16 5 -1
BITMAP
0600
0300
0300
8318
FFF8
FFF8
C018
C018
C018
C030
0060
00C0
0180
0300
0600
0C00
ENDCHAR
STARTCHAR J2b26
ENCODING 12454
SWIDTH 1059 0
DWIDTH 24 0
BBX 18 22 3 -1
BITMAP
018000
00C000
00C000
00C000
80C180
FFFFC0
7FFF80
600380
600380
600380
600380
600300
600700
600600
600C00
001C00
003800
007000
00E000
01C000
078000
1E0000
ENDCHAR
STARTCHAR J2b27
ENCODING 12455
SWIDTH 1059 0
DWIDTH 24 0
BBX 17 11 4 0
BITMAP
7FF800
7FFC00
018000
018000
018000
018000
018000
018000
018000
FFFF80
7FFF80
ENDCHAR
STARTCHAR J2b28
ENCODING 12456
SWIDTH 1059 0
DWIDTH 24 0
BBX 22 15 1 -1
BITMAP
100FE0
1FFFE0
0FF000
003000
003000
003000
003000
003000
003000
003000
003000
003018
C1FFFC
7FFFFC
3E0000
ENDCHAR
STARTCHAR J2b29
ENCODING 12457
SWIDTH 1059 0
DWIDTH 24 0
BBX 16 15 4 -1
BITMAP
00C0
0060
0060
0060
FFFF
FFFF
01E0
0360
0660
0C60
1860
3060
6060
83E0
00C0
ENDCHAR
STARTCHAR J2b2a
ENCODING 12458
SWIDTH 1059 0
DWIDTH 24 0
BBX 22 21 1 -1
BITMAP
003000
001800
000C00
000C00
000C00
000C00
400FFC
7FFFFC
3FFE00
000E00
001E00
003600
006600
00C600
018600
030600
060600
0C4600
387E00
703E00
C00C00
ENDCHAR
STARTCHAR J2b2b
ENCODING 12459
SWIDTH 1059 0
DWIDTH 24 0
BBX 20 22 2 -1
BITMAP
018000
00C000
006000
006000
006000
007FE0
83FFF0
FFE060
7C6060
006060
00C060
00C060
00C060
00C060
018060
0180C0
0300C0
0630C0
0C1980
180F00
700600
E00000
ENDCHAR
STARTCHAR J2b2c
ENCODING 12460
SWIDTH 1059 0
DWIDTH 24 0
BBX 21 22 2 -1
BITMAP
00C020
006130
006198
0060D8
0060C0
006020
81FFF0
FFFFE0
7E6060
006060
006060
00C060
00C060
00C060
018060
0180C0
0300C0
0630C0
0C19C0
180F80
700600
E00000
ENDCHAR
STARTCHAR J2b2d
ENCODING 12461
SWIDTH 1059 0
DWIDTH 24 0
BBX 22 21 1 -1
BITMAP
018000
00C000
006000
006000
006000
007FE0
67FFC0
3F3000
183000
003000
003000
0031FC
00FFFC
FFFE00
7F1800
001800
001800
001800
001800
001800
001800
ENDCHAR
STARTCHAR J2b2e
ENCODING 12462
SWIDTH 1059 0
DWIDTH 24 0
BBX 21 21 2 -1
BITMAP
018230
03C318
00C198
00C180
00C000
00CFC0
03FFC0
7FF000
3C6000
006000
006000
0061F8
007FF8
87FE00
FFE000
783000
003000
003000
003000
001800
001800
ENDCHAR
STARTCHAR J2b2f
ENCODING 12463
SWIDTH 1059 0
DWIDTH 24 0
BBX 19 21 2 -1
BITMAP
006000
007000
006000
00C0C0
01FFE0
01FFE0
0300C0
060180
0C0300
180300
300600
600C00
C00C00
001800
003000
006000
01C000
038000
0E0000
3C0000
F00000
ENDCHAR
STARTCHAR J2b30
ENCODING 12464
SWIDTH 1059 0
DWIDTH 24 0
BBX 21 22 2 -1
BITMAP
000030
00C118
00E198
00C0C0
018000
03FF00
07FF80
060180
0C0180
180300
300600
600C00
C01800
003000
006000
00C000
018000
030000
060000
0C0000
380000
F00000
ENDCHAR
STARTCHAR J2b31
ENCODING 12465
SWIDTH 1059 0
DWIDTH 24 0
BBX 21 22 2 -1
BITMAP
030000
018000
01C000
018000
030000
030000
0607F8
0FFFF8
0FF800
181800
301800
601800
C01800
801800
003000
003000
006000
00C000
018000
030000
060000
0C0000
ENDCHAR
STARTCHAR J2b32
ENCODING 12466
SWIDTH 1059 0
DWIDTH 24 0
BBX 21 21 2 -1
BITMAP
000060
038330
038198
0300C0
060000
0C0000
0C07E0
1FFFF0
1FF800
301800
601800
C01800
003000
003000
006000
006000
00C000
018000
070000
0E0000
180000
ENDCHAR
STARTCHAR J2b33
ENCODING 12467
SWIDTH 1059 0
DWIDTH 24 0
BBX 18 15 3 1
BITMAP
C00180
7FFFC0
3FFFC0
000180
000180
000180
000180
000180
000180
000180
000300
000300
000300
FFFF80
7FFF80
ENDCHAR
STARTCHAR J2b34
ENCODING 12468
SWIDTH 1059 0
DWIDTH 24 0
BBX 21 19 2 1
BITMAP
000060
000030
000198
0000C0
000360
FFFF80
7FFF00
000300
000300
000300
000300
000300
000300
000300
000300
000300
800300
FFFF80
7FFF80
ENDCHAR
STARTCHAR J2b35
ENCODING 12469
SWIDTH 1059 0
DWIDTH 24 0
BBX 21 22 2 -1
BITMAP
000C00
000E00
1C0600
0E0600
060600
060600
060600
0607F0
FFFFF8
7FFE00
060600
060600
060600
060600
060600
060600
060C00
000C00
001800
003000
00E000
01C000
ENDCHAR
STARTCHAR J2b36
ENCODING 12470
SWIDTH 1059 0
DWIDTH 24 0
BBX 22 21 1 -1
BITMAP
000C00
0C0618
0606CC
06066C
060660
060600
0607F8
FFFFF8
7FFE00
060600
060600
060600
060600
060600
060600
020600
000C00
001800
003000
006000
01C000
ENDCHAR
STARTCHAR J2b37
ENCODING 12471
SWIDTH 1059 0
DWIDTH 24 0
BBX 20 19 3 0
BITMAP
300000
180000
0C0000
060000
000010
800030
E00060
7800C0
1C0180
0C0300
000600
000C00
001800
007000
01E000
638000
3F0000
3E0000
1C0000
ENDCHAR
STARTCHAR J2b38
ENCODING 12472
SWIDTH 1059 0
DWIDTH 24 0
BBX 21 22 2 -1
BITMAP
000100
000180
0000C0
180CC0
0C0600
060300
030000
018008
000018
E00030
380060
1C00C0
060180
000300
000600
000C00
003800
007000
31C000
1F8000
0F0000
060000
ENDCHAR
STARTCHAR J2b39
ENCODING 12473
SWIDTH 1059 0
DWIDTH 24 0
BBX 20 19 2 0
BITMAP
100FC0
1FFFE0
0FF0C0
0000C0
000180
000300
000300
000600
000C00
001800
003000
007E00
00C700
018180
0300C0
0E0060
1C0070
700030
E00000
ENDCHAR
STARTCHAR J2b3a
ENCODING 12474
SWIDTH 1059 0
DWIDTH 24 0
BBX 21 22 2 -1
BITMAP
000060
000030
000198
0000C0
01FF60
7FFF80
3E0380
000700
000E00
000C00
001800
003800
003000
006000
00F800
018C00
030600
060300
0C0180
3800C0
700060
C00000
ENDCHAR
STARTCHAR J2b3b
ENCODING 12475
SWIDTH 1059 0
DWIDTH 24 0
BBX 22 19 1 0
BITMAP
018000
00C000
00C000
00C000
00C018
00FFFC
87FFF0
FFC060
78C0C0
00C180
00C300
00C600
00CC00
00C000
00C000
00C000
00E000
007FFC
003FFC
ENDCHAR
STARTCHAR J2b3c
ENCODING 12476
SWIDTH 1059 0
DWIDTH 24 0
BBX 22 21 1 -1
BITMAP
000010
000098
00E0CC
00C06C
00C060
00C000
00C000
00FFF8
00FFF8
FFC070
7FC0E0
00C1C0
00C180
00C300
00C600
00C000
00C000
00C000
00C000
00FFF8
007FF0
ENDCHAR
STARTCHAR J2b3d
ENCODING 12477
SWIDTH 1059 0
DWIDTH 24 0
BBX 17 19 4 0
BITMAP
800700
C00380
600300
300300
180600
180600
180600
180C00
000C00
001800
003000
006000
00C000
018000
030000
060000
0C0000
180000
300000
ENDCHAR
STARTCHAR J2b3e
ENCODING 12478
SWIDTH 1059 0
DWIDTH 24 0
BBX 21 22 2 -1
BITMAP
000060
000330
000198
0000C0
800E00
C00700
600700
300700
380700
1C0600
1C0600
0C0600
000C00
001800
001800
003000
006000
01C000
038000
0E0000
3C0000
700000
ENDCHAR
STARTCHAR J2b3f
ENCODING 12479
SWIDTH 1059 0
DWIDTH 24 0
BBX 18 21 2 -1
BITMAP
00C000
00C000
00C180
00FFC0
01FFC0
030180
060300
0E0600
1A0600
338C00
61EC00
C07800
003800
006C00
00CC00
018000
030000
060000
1C0000
780000
E00000
ENDCHAR
STARTCHAR J2b40
ENCODING 12480
SWIDTH 1059 0
DWIDTH 24 0
BBX 21 22 2 -1
BITMAP
000030
000018
030198
0300C0
030260
07FF00
0FFF00
0C0700
180E00
3C0C00
661800
C33800
01B000
00E000
00E000
01B000
031800
060000
0C0000
180000
700000
E00000
ENDCHAR
STARTCHAR J2b41
ENCODING 12481
SWIDTH 1059 0
DWIDTH 24 0
BBX 20 20 2 -1
BITMAP
000380
01FFC0
1FFC00
7E3000
003000
003000
003000
003FF0
8FFFF0
FFE000
706000
006000
006000
006000
00C000
018000
030000
060000
1C0000
380000
ENDCHAR
STARTCHAR J2b42
ENCODING 12482
SWIDTH 1059 0
DWIDTH 24 0
BBX 22 21 1 -1
BITMAP
000380
003FC0
03FC18
3FF04C
00306C
003060
003000
003008
FFFFFC
7FFFFC
003000
003000
003000
003000
006000
00C000
018000
030000
060000
0C0000
180000
ENDCHAR
STARTCHAR J2b43
ENCODING 12483
SWIDTH 1059 0
DWIDTH 24 0
BBX 16 16 4 -1
BITMAP
0400
8600
C306
6187
30C6
30C6
18C6
080C
0008
0018
0030
0060
00C0
0180
0700
1E00
ENDCHAR
STARTCHAR J2b44
ENCODING 12484
SWIDTH 1059 0
DWIDTH 24 0
BBX 20 21 2 -1
BITMAP
010000
8180E0
C0C070
60C070
306070
187070
187070
1C7060
1C30C0
0001C0
000180
000380
000300
000600
000C00
001800
007000
00E000
038000
0F0000
1C0000
ENDCHAR
STARTCHAR J2b45
ENCODING 12485
SWIDTH 1059 0
DWIDTH 24 0
BBX 21 22 2 -1
BITMAP
000060
000330
000198
0200C0
030000
8180E0
C180C0
60C0C0
3060C0
1860C0
186180
186180
180300
000300
000600
000C00
001800
003000
00E000
01C000
070000
1E0000
ENDCHAR
STARTCHAR J2b46
ENCODING 12486
SWIDTH 1059 0
DWIDTH 24 0
BBX 22 21 1 -1
BITMAP
1801C0
0FFFC0
07FE00
000000
000000
000000
C7FFFC
7FFFFC
381800
001800
001800
001800
003000
003000
006000
00C000
018000
030000
0E0000
1C0000
300000
ENDCHAR
STARTCHAR J2b47
ENCODING 12487
SWIDTH 1059 0
DWIDTH 24 0
BBX 22 21 1 -1
BITMAP
0FFE10
07FE18
00004C
000060
000030
000000
000FF8
FFFFFC
7FF800
001800
001800
001800
003000
006000
00C000
018000
030000
060000
0C0000
180000
300000
ENDCHAR
STARTCHAR J2b48
ENCODING 12488
SWIDTH 1059 0
DWIDTH 24 0
BBX 12 21 8 -1
BITMAP
E000
7000
6000
6000
6000
6000
6000
7E00
6F80
61E0
6070
6010
6000
6000
6000
6000
6000
6000
6000
6000
6000
ENDCHAR
STARTCHAR J2b49
ENCODING 12489
SWIDTH 1059 0
DWIDTH 24 0
BBX 14 22 9 -1
BITMAP
0030
E018
C198
C0CC
C060
C000
C000
C000
F800
DF00
C7C0
C0F0
C038
C008
C000
C000
C000
C000
C000
C000
C000
C000
ENDCHAR
STARTCHAR J2b4a
ENCODING 12490
SWIDTH 1059 0
DWIDTH 24 0
BBX 21 20 2 0
BITMAP
00E000
007000
003000
003000
003000
003000
803FF0
FFFFF8
7FE000
006000
006000
006000
006000
006000
00C000
00C000
018000
030000
0E0000
1C0000
ENDCHAR
STARTCHAR J2b4b
ENCODING 12491
SWIDTH 1059 0
DWIDTH 24 0
BBX 21 13 2 2
BITMAP
3FFF80
1FFF00
000000
000000
000000
000000
000000
000000
000000
000000
83FFF8
FFFFF8
7C0000
ENDCHAR
STARTCHAR J2b4c
ENCODING 12492
SWIDTH 1059 0
DWIDTH 24 0
BBX 21 19 2 -1
BITMAP
307FC0
1FFFE0
0F80C0
0000C0
000180
000380
060300
038600
01CC00
00F800
007C00
006600
00C300
018180
0300C0
0E0070
1C0038
700018
E00000
ENDCHAR
STARTCHAR J2b4d
ENCODING 12493
SWIDTH 1059 0
DWIDTH 24 0
BBX 22 22 1 -1
BITMAP
018000
00C000
007000
003000
000100
003F80
21FF00
3FC700
1E0E00
001C00
003800
007C00
00F700
03B3C0
0F30F0
7C3038
F0301C
00300C
003000
003000
003000
003000
ENDCHAR
STARTCHAR J2b4e
ENCODING 12494
SWIDTH 1059 0
DWIDTH 24 0
BBX 17 20 2 -1
BITMAP
000700
000380
000380
000380
000300
000600
000600
000C00
001C00
001800
003000
006000
00C000
018000
030000
060000
0C0000
180000
300000
E00000
ENDCHAR
STARTCHAR J2b4f
ENCODING 12495
SWIDTH 1059 0
DWIDTH 24 0
BBX 22 19 1 0
BITMAP
000800
038C00
01C600
01C300
018180
0180C0
0300C0
030060
030030
060030
060018
0C0018
0C0018
180018
180018
30000C
60000C
C00000
800000
ENDCHAR
STARTCHAR J2b50
ENCODING 12496
SWIDTH 1059 0
DWIDTH 24 0
BBX 22 21 1 -1
BITMAP
000030
000018
0008CC
00CC60
00C630
018300
018180
0180C0
018060
030060
030030
030030
060018
0C0018
0C001C
0C000C
18000C
30000C
600004
C00000
800000
ENDCHAR
STARTCHAR J2b51
ENCODING 12497
SWIDTH 1059 0
DWIDTH 24 0
BBX 21 20 2 1
BITMAP
000060
0000F0
000198
001998
038CF0
030660
030600
030300
030180
030180
0600C0
060060
0C0060
080030
180030
180030
300018
600018
C00018
800000
ENDCHAR
STARTCHAR J2b52
ENCODING 12498
SWIDTH 1059 0
DWIDTH 24 0
BBX 19 19 3 -1
BITMAP
E00000
700000
600000
600000
600780
601F80
60F800
6FE000
7F0000
600000
600000
600000
600000
600000
600000
600000
7000C0
3FFFE0
0FFFC0
ENDCHAR
STARTCHAR J2b53
ENCODING 12499
SWIDTH 1059 0
DWIDTH 24 0
BBX 19 20 3 0
BITMAP
000180
0000C0
E00660
C00300
C00180
C00000
C00600
C03F00
C1F800
FFC000
C00000
C00000
C00000
C00000
C00000
C00000
C00080
C00080
FFFFC0
7FFFC0
ENDCHAR
STARTCHAR J2b54
ENCODING 12500
SWIDTH 1059 0
DWIDTH 24 0
BBX 20 21 3 0
BITMAP
0000C0
0001E0
000330
E00330
C001E0
C000C0
C00600
C00F00
C03800
C1F000
DFC000
FE0000
C00000
C00000
C00000
C00000
C00000
C00000
C00000
FFFFC0
7FFF80
ENDCHAR
STARTCHAR J2b55
ENCODING 12501
SWIDTH 1059 0
DWIDTH 24 0
BBX 18 20 3 -1
BITMAP
000080
87FFC0
FFFFC0
780380
000380
000380
000380
000700
000700
000E00
001C00
001800
003000
006000
00C000
018000
030000
060000
1C0000
380000
ENDCHAR
STARTCHAR J2b56
ENCODING 12502
SWIDTH 1059 0
DWIDTH 24 0
BBX 21 22 2 -1
BITMAP
000060
000330
000198
0000C0
800300
FFFF80
7FFF80
000180
000180
000300
000600
000600
000C00
001800
003000
006000
00C000
018000
030000
0E0000
1C0000
700000
ENDCHAR
STARTCHAR J2b57
ENCODING 12503
SWIDTH 1059 0
DWIDTH 24 0
BBX 22 22 1 -1
BITMAP
000030
000078
0000CC
0006CC
FFFF78
FFFF30
000600
000600
000600
000600
000C00
000C00
001800
001800
003000
006000
00C000
018000
030000
060000
0C0000
380000
ENDCHAR
STARTCHAR J2b58
ENCODING 12504
SWIDTH 1059 0
DWIDTH 24 0
BBX 21 15 2 2
BITMAP
018000
03C000
066000
063000
0C1800
180C00
300600
E00300
400180
0000C0
000060
000070
000038
000038
000018
ENDCHAR
STARTCHAR J2b59
ENCODING 12505
SWIDTH 1059 0
DWIDTH 24 0
BBX 21 17 2 2
BITMAP
000060
000030
000198
01C0C0
03E060
063000
0C1800
181800
300C00
E00600
C00300
000180
0000C0
000060
000070
000038
000018
ENDCHAR
STARTCHAR J2b5a
ENCODING 12506
SWIDTH 1059 0
DWIDTH 24 0
BBX 22 18 1 2
BITMAP
000060
0000F0
000198
000198
00C0F0
01E060
033000
061800
0C0C00
180600
F00300
600180
0000C0
000060
000030
000038
00001C
00000C
ENDCHAR
STARTCHAR J2b5b
ENCODING 12507
SWIDTH 1059 0
DWIDTH 24 0
BBX 22 21 1 -1
BITMAP
00E000
007000
003000
003000
403FFC
7FFFFC
3FF000
003000
023200
063180
0630C0
0C3060
0C3030
183030
703018
E03018
C33018
01B000
00F000
007000
002000
ENDCHAR
STARTCHAR J2b5c
ENCODING 12508
SWIDTH 1059 0
DWIDTH 24 0
BBX 22 21 1 0
BITMAP
000010
006098
0030CC
003060
003060
003008
FFFFFC
7FFFFC
003000
023200
023300
063180
0C30C0
183060
303030
603018
C03018
C03018
01B000
00F000
006000
ENDCHAR
STARTCHAR J2b5d
ENCODING 12509
SWIDTH 1059 0
DWIDTH 24 0
BBX 21 22 2 -1
BITMAP
000060
0000F0
007198
006198
0060F0
006060
006000
007FF0
FFFFF0
7FE000
006000
006200
046300
0C6180
1860C0
306060
606030
C06018
C06018
01E000
00E000
006000
ENDCHAR
STARTCHAR J2b5e
ENCODING 12510
SWIDTH 1059 0
DWIDTH 24 0
BBX 21 16 2 1
BITMAP
001FF0
9FFFF8
FFE078
6000E0
0001C0
000380
000700
300600
1C0C00
0F1800
03F000
00F000
003800
001C00
000E00
000600
ENDCHAR
STARTCHAR J2b5f
ENCODING 12511
SWIDTH 1059 0
DWIDTH 24 0
BBX 17 22 4 -1
BITMAP
E00000
FF8000
1FF000
007E00
000F80
000180
000000
780000
3F8000
07E000
007C00
001E00
000600
000000
000000
FC0000
7F8000
03E000
007800
001E00
000700
000100
ENDCHAR
STARTCHAR J2b60
ENCODING 12512
SWIDTH 1059 0
DWIDTH 24 0
BBX 21 21 2 -1
BITMAP
01C000
00E000
00E000
00E000
00C000
00C000
018000
018000
030800
030C00
060600
060300
060180
0C01C0
1800E0
183FF0
FFFFF0
FFC038
E00038
000038
000018
ENDCHAR
STARTCHAR J2b61
ENCODING 12513
SWIDTH 1059 0
DWIDTH 24 0
BBX 17 21 4 -1
BITMAP
001800
000C00
000700
000700
000600
000600
180C00
0E0C00
079800
01F000
007000
003800
006C00
00C600
018300
030180
060000
0C0000
180000
700000
E00000
ENDCHAR
STARTCHAR J2b62
ENCODING 12514
SWIDTH 1059 0
DWIDTH 24 0
BBX 22 18 1 0
BITMAP
000180
1FFFC0
0FFE00
006000
006000
006000
006000
007FF8
C7FFF8
7FE000
386000
006000
006000
006000
006000
006000
007FFC
003FFC
ENDCHAR
STARTCHAR J2b63
ENCODING 12515
SWIDTH 1059 0
DWIDTH 24 0
BBX 18 15 2 -1
BITMAP
030000
018000
018100
01FF80
01FFC0
FFC180
3FC300
00C600
00CC00
00C000
00C000
006000
006000
006000
006000
ENDCHAR
STARTCHAR J2b64
ENCODING 12516
SWIDTH 1059 0
DWIDTH 24 0
BBX 21 22 2 -1
BITMAP
060000
030000
030000
030000
030000
0181F8
01BFF8
01FE30
9FC060
FEC0C0
60C0C0
00C180
00C300
00C600
006C00
006000
006000
003000
003000
003000
003000
003000
ENDCHAR
STARTCHAR J2b65
ENCODING 12517
SWIDTH 1059 0
DWIDTH 24 0
BBX 18 11 3 -1
BITMAP
000C00
1FFE00
0FFC00
000C00
000C00
000C00
000C00
000C00
000C00
FFFF80
FFFFC0
ENDCHAR
STARTCHAR J2b66
ENCODING 12518
SWIDTH 1059 0
DWIDTH 24 0
BBX 22 14 1 -1
BITMAP
000300
3FFF80
1FFF80
000300
000300
000300
000300
000300
000600
000600
000600
C00600
7FFFFC
3FFFFC
ENDCHAR
STARTCHAR J2b67
ENCODING 12519
SWIDTH 1059 0
DWIDTH 24 0
BBX 15 14 5 -1
BITMAP
000C
FFFC
7FFE
000C
000C
000C
7FFC
7FF8
0018
0018
0018
0018
FFFC
7FFC
ENDCHAR
STARTCHAR J2b68
ENCODING 12520
SWIDTH 1059 0
DWIDTH 24 0
BBX 20 18 2 -1
BITMAP
600060
3FFFF0
1FFFF0
000060
000060
000060
000060
000060
000060
1FFFE0
0FFFC0
0000C0
0000C0
0000C0
0000C0
0000C0
FFFFF0
7FFFF0
ENDCHAR
STARTCHAR J2b69
ENCODING 12521
SWIDTH 1059 0
DWIDTH 24 0
BBX 21 21 1 -1
BITMAP
0FFFC0
07FFC0
000000
000000
000000
000000
C1FFF0
7FFFF8
3E0070
000070
0000E0
0001C0
000380
000700
000E00
001800
003000
006000
01C000
078000
0E0000
ENDCHAR
STARTCHAR J2b6a
ENCODING 12522
SWIDTH 1059 0
DWIDTH 24 0
BBX 13 21 5 -1
BITMAP
C030
6018
6018
6018
6018
6018
6018
6018
6018
6018
6018
6018
6018
4018
0030
0030
0030
0060
01C0
0F80
1E00
ENDCHAR
STARTCHAR J2b6b
ENCODING 12523
SWIDTH 1059 0
DWIDTH 24 0
BBX 21 21 2 -1
BITMAP
004000
00E000
1C6000
0E6000
0C6000
0C6000
0C6000
0C6000
0C6000
0C6008
0C6018
0C6030
0C6060
0C60C0
0C6180
186300
186600
306E00
607C00
C07800
803000
ENDCHAR
STARTCHAR J2b6c
ENCODING 12524
SWIDTH 1059 0
DWIDTH 24 0
BBX 19 19 4 -1
BITMAP
C00000
600000
600000
600000
600020
600060
6000C0
600180
600300
600600
600C00
601800
603000
60E000
61C000
630000
7E0000
7C0000
300000
ENDCHAR
STARTCHAR J2b6d
ENCODING 12525
SWIDTH 1059 0
DWIDTH 24 0
BBX 16 16 4 1
BITMAP
8002
FFFF
FFFF
6006
6006
6006
6006
6006
6006
6006
6006
6006
7FFF
7FFF
6000
6000
ENDCHAR
STARTCHAR J2b6e
ENCODING 12526
SWIDTH 1059 0
DWIDTH 24 0
BBX 13 15 5 -1
BITMAP
C018
FFF8
FFF8
C018
C018
C018
C030
C030
0060
0060
00C0
0180
0300
0600
0C00
ENDCHAR
STARTCHAR J2b6f
ENCODING 12527
SWIDTH 1059 0
DWIDTH 24 0
BBX 18 20 3 -1
BITMAP
C00180
FFFFC0
7FFFC0
600380
600380
600380
600380
600380
600700
600700
000700
000600
000C00
000C00
001800
003000
006000
00C000
018000
030000
ENDCHAR
STARTCHAR J2b70
ENCODING 12528
SWIDTH 1059 0
DWIDTH 24 0
BBX 22 22 1 -1
BITMAP
003800
001800
001800
001800
001800
001800
3FFFE0
1FFFE0
061800
061800
061800
061800
0618FC
FFFFFC
FFFF00
001800
001800
001800
001800
001800
001800
001800
ENDCHAR
STARTCHAR J2b71
ENCODING 12529
SWIDTH 1059 0
DWIDTH 24 0
BBX 21 15 2 1
BITMAP
007F80
7FFFC0
3F8300
000600
001C00
00F800
006000
006000
006000
006000
006000
006000
8FFFF8
FFFFF8
700000
ENDCHAR
STARTCHAR J2b72
ENCODING 12530
SWIDTH 1059 0
DWIDTH 24 0
BBX 19 20 2 -1
BITMAP
0000C0
FFFFE0
7FFFE0
0001C0
0001C0
0001C0
0001C0
3FFF80
3FFF80
000380
000700
000700
000E00
001C00
003800
007000
00E000
01C000
070000
0E0000
ENDCHAR
STARTCHAR J2b73
ENCODING 12531
SWIDTH 1059 0
DWIDTH 24 0
BBX 19 19 3 -1
BITMAP
C00000
600000
300000
180000
1C0020
1C0060
0C00C0
000180
000300
000600
000C00
001800
003000
00E000
03C000
470000
7E0000
7C0000
380000
ENDCHAR
STARTCHAR J2b74
ENCODING 12532
SWIDTH 1059 0
DWIDTH 24 0
BBX 20 22 3 -1
BITMAP
0000C0
030260
018330
018180
018000
C18180
FFFFC0
7FFFC0
6001C0
600380
600380
600700
600600
600C00
600C00
001800
003000
006000
00C000
018000
030000
060000
ENDCHAR
STARTCHAR J2b75
ENCODING 12533
SWIDTH 1059 0
DWIDTH 24 0
BBX 15 15 4 -1
BITMAP
0300
0180
0180
01FC
FFFE
7F0C
030C
030C
030C
060C
060C
0C0C
18D8
3078
6030
ENDCHAR
STARTCHAR J2b76
ENCODING 12534
SWIDTH 1059 0
DWIDTH 24 0
BBX 17 14 3 -1
BITMAP
060000
060000
0C0000
0C1F00
1FFF80
1FF000
303000
606000
C06000
006000
00C000
018000
030000
060000
ENDCHAR
STARTCHAR J2421
ENCODING 12593
SWIDTH 1059 0
DWIDTH 24 0
BBX 15 14 4 3
BITMAP
800C
7FFE
200C
000C
000C
000C
000C
000C
000C
000C
000C
000C
000C
0008
ENDCHAR
STARTCHAR J2422
ENCODING 12594
SWIDTH 1059 0
DWIDTH 24 0
BBX 18 14 3 3
BITMAP
80C180
7FFFC0
20C180
00C180
00C180
00C180
00C180
00C180
00C180
00C180
00C180
00C180
00C180
008100
ENDCHAR
STARTCHAR J2423
ENCODING 12595
SWIDTH 1059 0
DWIDTH 24 0
BBX 22 15 1 3
BITMAP
000700
80C1C0
7FE180
20C180
00C180
00C180
00C300
00C300
00C380
00C640
00C660
00CC30
00C818
00D01C
00A00C
ENDCHAR
STARTCHAR J2424
ENCODING 12596
SWIDTH 1059 0
DWIDTH 24 0
BBX 16 10 4 5
BITMAP
C000
7000
3000
3000
3000
3000
3000
3000
3006
1FFF
ENDCHAR
STARTCHAR J2425
ENCODING 12597
SWIDTH 1059 0
DWIDTH 24 0
BBX 21 12 1 4
BITMAP
C10060
70FFF0
304600
300600
300600
300700
300C80
300C40
30D860
3F3030
1C6038
018018
ENDCHAR
STARTCHAR J2426
ENCODING 12598
SWIDTH 1059 0
DWIDTH 24 0
BBX 21 15 1 3
BITMAP
002080
001FC0
000000
C10030
70FFF8
304000
300000
300700
3018C0
303060
303060
30F060
3F3060
1C18C0
000700
ENDCHAR
STARTCHAR J2427
ENCODING 12599
SWIDTH 1059 0
DWIDTH 24 0
BBX 16 12 4 4
BITMAP
E00C
3FFE
3000
3000
3000
3000
3000
3000
3000
3000
3006
1FFF
ENDCHAR
STARTCHAR J2428
ENCODING 12600
SWIDTH 1059 0
DWIDTH 24 0
BBX 19 12 2 4
BITMAP
E16180
3FBFC0
303000
303000
303000
303000
303000
303000
307000
31B000
3F30C0
1C1FE0
ENDCHAR
STARTCHAR J2429
ENCODING 12601
SWIDTH 1059 0
DWIDTH 24 0
BBX 15 14 4 3
BITMAP
8018
7FFC
2018
0018
0010
E010
3FFC
3000
3000
3000
3000
3000
300C
1FFE
ENDCHAR
STARTCHAR J242a
ENCODING 12602
SWIDTH 1059 0
DWIDTH 24 0
BBX 20 14 1 3
BITMAP
81A060
7FDFF0
218860
018060
010060
010060
7F8060
300060
300060
306060
31C060
3F0060
1C0060
000040
ENDCHAR
STARTCHAR J242b
ENCODING 12603
SWIDTH 1059 0
DWIDTH 24 0
BBX 21 14 1 3
BITMAP
81B830
7FCFF8
218C30
018C30
010C30
010C30
FF8C30
300C30
300C30
300C20
300C20
30EC20
3F8FF8
1C0C00
ENDCHAR
STARTCHAR J242c
ENCODING 12604
SWIDTH 1059 0
DWIDTH 24 0
BBX 20 14 1 3
BITMAP
8180C0
7FF070
219C30
018C30
010C30
010C30
FF8FF0
300C30
300C30
300C30
300C30
30EC30
3F8FF0
1C0820
ENDCHAR
STARTCHAR J242d
ENCODING 12605
SWIDTH 1059 0
DWIDTH 24 0
BBX 21 14 1 4
BITMAP
000C00
818700
7FC380
218300
018300
018300
010300
7F8680
300640
300C60
300C30
30D830
3F3018
1CC018
ENDCHAR
STARTCHAR J242e
ENCODING 12606
SWIDTH 1059 0
DWIDTH 24 0
BBX 21 14 1 3
BITMAP
81B860
7FCFF0
218C00
018C00
010C00
010C60
FF8FF0
300C00
300C00
300C00
300C00
31CC00
3F0C30
1C07F8
ENDCHAR
STARTCHAR J242f
ENCODING 12607
SWIDTH 1059 0
DWIDTH 24 0
BBX 21 14 1 3
BITMAP
818060
7FDFF0
218000
018000
011030
010830
FF8C30
300C60
300640
300640
300640
30C030
3F3FF8
1C1000
ENDCHAR
STARTCHAR J2430
ENCODING 12608
SWIDTH 1059 0
DWIDTH 24 0
BBX 21 14 1 3
BITMAP
818840
7FC7E0
218000
01C030
013FF8
011000
7F8000
300380
300C60
301830
301830
30D830
3F0C60
1C0380
ENDCHAR
STARTCHAR J2431
ENCODING 12609
SWIDTH 1059 0
DWIDTH 24 0
BBX 15 13 4 4
BITMAP
E00C
3FFE
300C
300C
300C
300C
300C
3008
3008
3008
3008
3FFE
3000
ENDCHAR
STARTCHAR J2432
ENCODING 12610
SWIDTH 1059 0
DWIDTH 24 0
BBX 14 15 5 3
BITMAP
0030
C01C
700C
300C
300C
300C
3FFC
300C
300C
300C
300C
300C
300C
3FFC
2008
ENDCHAR
STARTCHAR J2433
ENCODING 12611
SWIDTH 1059 0
DWIDTH 24 0
BBX 18 15 3 3
BITMAP
000300
0001C0
0660C0
C3B8C0
7198C0
3198C0
3198C0
3F9FC0
3198C0
3198C0
3198C0
3198C0
3198C0
3F9FC0
211080
ENDCHAR
STARTCHAR J2434
ENCODING 12612
SWIDTH 1059 0
DWIDTH 24 0
BBX 22 14 1 3
BITMAP
000700
0301C0
C1C180
70C180
30C180
30C180
3FC180
30C340
30C320
30C630
30C610
30CC18
3FD80C
20A00C
ENDCHAR
STARTCHAR J2435
ENCODING 12613
SWIDTH 1059 0
DWIDTH 24 0
BBX 17 15 3 3
BITMAP
030000
01C000
00E000
00C000
00C000
00C000
00C000
01A000
019000
030800
060C00
0C0600
180300
300380
C00180
ENDCHAR
STARTCHAR J2436
ENCODING 12614
SWIDTH 1059 0
DWIDTH 24 0
BBX 22 15 1 3
BITMAP
000600
060380
0381C0
01C180
018180
018180
030300
030300
068680
066640
0C3C20
181830
303018
C0601C
01800C
ENDCHAR
STARTCHAR J2437
ENCODING 12615
SWIDTH 1059 0
DWIDTH 24 0
BBX 13 14 5 3
BITMAP
0C00
0600
0F80
38E0
6030
C018
C018
C018
C018
C018
C018
6030
38E0
0F80
ENDCHAR
STARTCHAR J2438
ENCODING 12616
SWIDTH 1059 0
DWIDTH 24 0
BBX 17 14 3 3
BITMAP
800300
7FFF80
20C000
00C000
00C000
00C000
01A000
019000
030800
060C00
0C0600
180300
300380
C00180
ENDCHAR
STARTCHAR J2439
ENCODING 12617
SWIDTH 1059 0
DWIDTH 24 0
BBX 22 14 1 3
BITMAP
406030
3FFFF8
130300
030300
030300
030300
068300
064680
0C6640
186C20
301830
603018
80601C
01800C
ENDCHAR
STARTCHAR J243a
ENCODING 12618
SWIDTH 1059 0
DWIDTH 24 0
BBX 16 15 4 3
BITMAP
0820
07F0
0000
8006
7FFF
2180
0180
0180
0340
0320
0610
0C18
180C
300E
C006
ENDCHAR
STARTCHAR J243b
ENCODING 12619
SWIDTH 1059 0
DWIDTH 24 0
BBX 16 14 4 3
BITMAP
4006
3FFF
1006
0006
0006
0006
003E
83C6
7E06
3006
0006
0006
0006
0004
ENDCHAR
STARTCHAR J243c
ENCODING 12620
SWIDTH 1059 0
DWIDTH 24 0
BBX 15 14 4 3
BITMAP
E018
3FFC
3000
3000
3000
3000
3030
3FF8
3000
3000
3000
3000
300C
1FFE
ENDCHAR
STARTCHAR J243d
ENCODING 12621
SWIDTH 1059 0
DWIDTH 24 0
BBX 18 14 3 3
BITMAP
400600
3FFF00
100000
000000
080600
040600
060C00
020C00
030800
030800
031000
801180
7FFFC0
200000
ENDCHAR
STARTCHAR J243e
ENCODING 12622
SWIDTH 1059 0
DWIDTH 24 0
BBX 18 15 3 2
BITMAP
030000
01F000
000000
800180
7FFFC0
210000
00C000
03F000
0E1C00
180600
180600
180600
0C0C00
073800
01E000
ENDCHAR
STARTCHAR J243f
ENCODING 12623
SWIDTH 1059 0
DWIDTH 24 0
BBX 10 22 9 -1
BITMAP
C000
7000
3000
3000
3000
3000
3000
3000
3000
3000
3180
3FC0
3000
3000
3000
3000
3000
3000
3000
3000
3000
2000
ENDCHAR
STARTCHAR J2440
ENCODING 12624
SWIDTH 1059 0
DWIDTH 24 0
BBX 9 22 6 -1
BITMAP
0600
0380
C180
7180
3180
3180
3180
3180
3180
3180
3180
3F80
3180
3180
3180
3180
3180
3180
3180
2180
0180
0100
ENDCHAR
STARTCHAR J2441
ENCODING 12625
SWIDTH 1059 0
DWIDTH 24 0
BBX 9 22 9 -1
BITMAP
C000
7000
3000
3000
3000
3000
3000
3300
3F80
3000
3000
3000
3300
3F80
3000
3000
3000
3000
3000
3000
3000
2000
ENDCHAR
STARTCHAR J2442
ENCODING 12626
SWIDTH 1059 0
DWIDTH 24 0
BBX 9 22 6 -1
BITMAP
0600
0380
C180
7180
3180
3180
3180
3F80
3180
3180
3180
3180
3180
3F80
3180
3180
3180
3180
3180
2180
0180
0100
ENDCHAR
STARTCHAR J2443
ENCODING 12627
SWIDTH 1059 0
DWIDTH 24 0
BBX 9 22 8 -1
BITMAP
0600
0380
0180
0180
0180
0180
0180
0180
0180
0180
0180
FF80
7180
0180
0180
0180
0180
0180
0180
0180
0180
0100
ENDCHAR
STARTCHAR J2444
ENCODING 12628
SWIDTH 1059 0
DWIDTH 24 0
BBX 12 22 6 -1
BITMAP
00C0
0070
1830
0E30
0630
0630
0630
0630
0630
0630
FE30
6630
0630
0630
0630
0630
0630
0630
0630
0430
0030
0020
ENDCHAR
STARTCHAR J2445
ENCODING 12629
SWIDTH 1059 0
DWIDTH 24 0
BBX 9 22 8 -1
BITMAP
0600
0380
0180
0180
0180
0180
0180
FF80
7180
0180
0180
0180
FF80
7180
0180
0180
0180
0180
0180
0180
0180
0100
ENDCHAR
STARTCHAR J2446
ENCODING 12630
SWIDTH 1059 0
DWIDTH 24 0
BBX 12 22 6 -1
BITMAP
00C0
0070
1830
0E30
0630
0630
0630
0630
FE30
6630
0630
0630
FE30
6630
0630
0630
0630
0630
0630
0430
0030
0020
ENDCHAR
STARTCHAR J2447
ENCODING 12631
SWIDTH 1059 0
DWIDTH 24 0
BBX 22 10 1 5
BITMAP
003000
001800
001800
001800
001800
001800
001800
801818
7FFFFC
200000
ENDCHAR
STARTCHAR J2448
ENCODING 12632
SWIDTH 1059 0
DWIDTH 24 0
BBX 22 22 1 -1
BITMAP
000300
0001C0
0000C0
0000C0
0000C0
0000C0
0180C0
00C0C0
00C0C0
00C0D8
00C0FC
00C0C0
00C0C0
00C7C0
81F8C0
7F80C0
3800C0
0000C0
0000C0
0000C0
0000C0
000080
ENDCHAR
STARTCHAR J2449
ENCODING 12633
SWIDTH 1059 0
DWIDTH 24 0
BBX 19 22 1 -1
BITMAP
000180
0000E0
001860
000E60
000660
030660
018660
018660
018660
018660
018660
0187E0
018660
81F660
7F8660
380660
000660
000660
000660
000460
000060
000040
ENDCHAR
STARTCHAR J244a
ENCODING 12634
SWIDTH 1059 0
DWIDTH 24 0
BBX 19 22 1 -1
BITMAP
000180
0000E0
000060
000060
000060
000060
018060
00C060
00C060
00C060
00C060
00C060
00C060
00C760
81F860
7F8060
380060
000060
000060
000060
000060
000040
ENDCHAR
STARTCHAR J244b
ENCODING 12635
SWIDTH 1059 0
DWIDTH 24 0
BBX 22 10 1 5
BITMAP
000C00
000600
030600
018600
018600
018600
018600
818618
7FFFFC
200000
ENDCHAR
STARTCHAR J244c
ENCODING 12636
SWIDTH 1059 0
DWIDTH 24 0
BBX 22 14 1 1
BITMAP
800018
7FFFFC
203000
003000
003000
003000
003000
003000
003000
003000
003000
003000
003000
002000
ENDCHAR
STARTCHAR J244d
ENCODING 12637
SWIDTH 1059 0
DWIDTH 24 0
BBX 19 22 1 -1
BITMAP
000180
0000E0
000060
000060
000060
000060
000060
000060
000760
807860
7FC060
398060
018060
01BFE0
018C60
018060
018060
018060
018060
010060
000060
000040
ENDCHAR
STARTCHAR J244e
ENCODING 12638
SWIDTH 1059 0
DWIDTH 24 0
BBX 19 22 1 -1
BITMAP
000180
0000E0
001860
000E60
000660
000660
000660
000660
000660
83F660
7F0660
330660
030660
037E60
032660
030660
030660
030660
020460
000060
000060
000040
ENDCHAR
STARTCHAR J244f
ENCODING 12639
SWIDTH 1059 0
DWIDTH 24 0
BBX 19 22 1 -1
BITMAP
000180
0000E0
000060
000060
000060
000060
000060
000060
000060
000760
80F860
7FC060
38C060
00C060
00C060
00C060
00C060
00C060
00C060
008060
000060
000040
ENDCHAR
STARTCHAR J2450
ENCODING 12640
SWIDTH 1059 0
DWIDTH 24 0
BBX 22 14 1 1
BITMAP
800018
7FFFFC
218600
018600
018600
018600
018600
018600
018600
018600
018600
010600
000600
000400
ENDCHAR
STARTCHAR J2451
ENCODING 12641
SWIDTH 1059 0
DWIDTH 24 0
BBX 21 3 2 8
BITMAP
800030
7FFFF8
200000
ENDCHAR
STARTCHAR J2452
ENCODING 12642
SWIDTH 1059 0
DWIDTH 24 0
BBX 19 22 1 -1
BITMAP
000180
0000E0
000060
000060
000060
000060
000060
000060
000060
000060
000060
000760
80F860
7FC060
380060
000060
000060
000060
000060
000060
000060
000040
ENDCHAR
STARTCHAR J2453
ENCODING 12643
SWIDTH 1059 0
DWIDTH 24 0
BBX 4 22 9 -1
BITMAP
C0
70
30
30
30
30
30
30
30
30
30
30
30
30
30
30
30
30
30
30
30
20
ENDCHAR
STARTCHAR J2454
ENCODING 12644
SWIDTH 1059 0
DWIDTH 24 0
BBX 1 1 23 -2
BITMAP
00
ENDCHAR
STARTCHAR J2455
ENCODING 12645
SWIDTH 1059 0
DWIDTH 24 0
BBX 21 11 1 5
BITMAP
C06000
703800
301800
301800
301800
301800
301800
301800
30D800
3F1830
1C0FF8
ENDCHAR
STARTCHAR J2456
ENCODING 12646
SWIDTH 1059 0
DWIDTH 24 0
BBX 21 11 1 5
BITMAP
C03060
701FF0
301800
301800
301800
301800
301800
301800
30D800
3F1830
1C0FF8
ENDCHAR
STARTCHAR J2457
ENCODING 12647
SWIDTH 1059 0
DWIDTH 24 0
BBX 22 14 1 3
BITMAP
000700
0001C0
C00180
600180
300180
300300
300300
300680
300640
300C60
31D830
3F1018
1C201C
00400C
ENDCHAR
STARTCHAR J2458
ENCODING 12648
SWIDTH 1059 0
DWIDTH 24 0
BBX 22 13 1 4
BITMAP
000100
C00100
700380
300280
3006C0
300440
300C60
300820
301830
301010
31F018
3F2008
1C7FFC
ENDCHAR
STARTCHAR J2459
ENCODING 12649
SWIDTH 1059 0
DWIDTH 24 0
BBX 24 14 0 3
BITMAP
0000C0
868670
7F7F38
262630
060630
060630
040630
7E0670
300668
3006C4
300CC6
330C86
3C0903
181603
ENDCHAR
STARTCHAR J245a
ENCODING 12650
SWIDTH 1059 0
DWIDTH 24 0
BBX 22 14 1 3
BITMAP
819830
7FCFF8
218C00
018C00
010C00
010C00
FF8C00
300C00
300C00
300C00
300C00
30CC18
3F07FC
1C0000
ENDCHAR
STARTCHAR J245b
ENCODING 12651
SWIDTH 1059 0
DWIDTH 24 0
BBX 24 14 0 3
BITMAP
0018C0
868E70
7F6638
266630
066630
066630
047E30
7E6670
306668
3066C4
3066C6
336686
3C7D03
184603
ENDCHAR
STARTCHAR J245c
ENCODING 12652
SWIDTH 1059 0
DWIDTH 24 0
BBX 22 14 1 3
BITMAP
818100
7FC100
218380
018280
0106C0
010440
FF8C60
300820
301830
301010
303018
31E008
3F3FFC
1C0000
ENDCHAR
STARTCHAR J245d
ENCODING 12653
SWIDTH 1059 0
DWIDTH 24 0
BBX 21 14 1 3
BITMAP
818000
7FC000
218000
01C030
013FF8
011000
7F8000
300380
300C60
301830
301830
30D830
3F0C60
1C0380
ENDCHAR
STARTCHAR J245e
ENCODING 12654
SWIDTH 1059 0
DWIDTH 24 0
BBX 20 14 2 3
BITMAP
0000C0
C1B070
7FDC30
618C30
618C30
618C30
618FF0
618C30
618C30
610C30
610C30
610C30
7F8FF0
400820
ENDCHAR
STARTCHAR J245f
ENCODING 12655
SWIDTH 1059 0
DWIDTH 24 0
BBX 21 14 1 4
BITMAP
000C00
C18700
7FC380
618300
618300
618300
618300
618680
610640
610C60
610C30
7FD830
403018
00C018
ENDCHAR
STARTCHAR J2460
ENCODING 12656
SWIDTH 1059 0
DWIDTH 24 0
BBX 22 13 1 4
BITMAP
C18100
7FC100
618380
618280
6186C0
618440
610C60
610820
611830
611010
613018
7FA008
407FFC
ENDCHAR
STARTCHAR J2461
ENCODING 12657
SWIDTH 1059 0
DWIDTH 24 0
BBX 18 20 3 0
BITMAP
C00000
7FFFC0
600180
600180
600180
600100
600100
7FFF80
400000
018000
00C000
07F800
1C0E00
300300
600180
600180
600180
300300
1C0E00
07F800
ENDCHAR
STARTCHAR J2462
ENCODING 12658
SWIDTH 1059 0
DWIDTH 24 0
BBX 21 14 1 3
BITMAP
030000
C1D030
70CFF8
30C430
30C030
30C030
3FC030
30C030
30C030
30C030
30C030
30C030
3FC030
208020
ENDCHAR
STARTCHAR J2463
ENCODING 12659
SWIDTH 1059 0
DWIDTH 24 0
BBX 21 14 1 3
BITMAP
030000
C1D860
70CFF0
30CC00
30CC00
30CC00
3FCC00
30CC00
30CC00
30CC00
30CC00
30CC30
3FC7F8
208000
ENDCHAR
STARTCHAR J2464
ENCODING 12660
SWIDTH 1059 0
DWIDTH 24 0
BBX 22 14 1 3
BITMAP
18C000
8E7418
663BFC
663118
663018
663018
7E3018
667018
666818
66C418
66C618
668618
7D0318
460310
ENDCHAR
STARTCHAR J2465
ENCODING 12661
SWIDTH 1059 0
DWIDTH 24 0
BBX 23 14 0 3
BITMAP
18C000
8E7198
6638FC
6630C0
6630C0
6630C0
7E30C0
6670C0
6668C0
66C4C0
66C6C0
6686CC
7D037E
460300
ENDCHAR
STARTCHAR J2466
ENCODING 12662
SWIDTH 1059 0
DWIDTH 24 0
BBX 22 13 1 4
BITMAP
064018
C3BFFC
619300
618300
7F8300
618300
618680
618680
618C40
618C60
7F9830
61B038
414018
ENDCHAR
STARTCHAR J2467
ENCODING 12663
SWIDTH 1059 0
DWIDTH 24 0
BBX 21 14 1 3
BITMAP
030000
C1D860
70CFF0
30CC00
30CC00
30CC00
3FCC30
30CFF8
30CC00
30CC00
30CC00
30CC30
3FC7F8
208000
ENDCHAR
STARTCHAR J2468
ENCODING 12664
SWIDTH 1059 0
DWIDTH 24 0
BBX 17 21 3 0
BITMAP
000600
C00380
600180
600180
7FFF80
600180
600180
600180
7FFF80
400100
018000
00C000
07F800
1C0E00
300300
600180
600180
600180
300300
1C0E00
07F800
ENDCHAR
STARTCHAR J2469
ENCODING 12665
SWIDTH 1059 0
DWIDTH 24 0
BBX 17 21 3 0
BITMAP
0C0600
C76380
633180
633180
7F3F80
633180
633180
633180
7F3F80
422100
018000
00C000
07F800
1C0E00
300300
600180
600180
600180
300300
1C0E00
07F800
ENDCHAR
STARTCHAR J246a
ENCODING 12666
SWIDTH 1059 0
DWIDTH 24 0
BBX 22 15 1 3
BITMAP
0E0000
03A018
031FFC
030818
030018
030018
060018
060018
0D0018
0C8018
18C018
306018
203018
403810
801810
ENDCHAR
STARTCHAR J246b
ENCODING 12667
SWIDTH 1059 0
DWIDTH 24 0
BBX 23 15 0 3
BITMAP
0E0000
03C000
019800
018E00
030600
030600
060600
060600
0D0600
0C8600
18C600
306600
20360C
403BFE
801800
ENDCHAR
STARTCHAR J246c
ENCODING 12668
SWIDTH 1059 0
DWIDTH 24 0
BBX 23 15 0 3
BITMAP
0E0000
038000
030C18
0307FC
030600
030600
060600
060600
0D0600
0C8600
18C600
306600
20360C
403BFE
801800
ENDCHAR
STARTCHAR J246d
ENCODING 12669
SWIDTH 1059 0
DWIDTH 24 0
BBX 23 15 0 3
BITMAP
0E0018
03800E
030606
030306
030306
030306
060306
0603FE
0D0306
0C8306
18C306
306306
203306
403BFE
801A04
ENDCHAR
STARTCHAR J246e
ENCODING 12670
SWIDTH 1059 0
DWIDTH 24 0
BBX 23 15 0 3
BITMAP
0E0000
038000
03200C
031FFE
0308C0
0300C0
0600C0
0600C0
0D0180
0C81A0
18C310
306318
20360C
403406
801806
ENDCHAR
STARTCHAR J246f
ENCODING 12671
SWIDTH 1059 0
DWIDTH 24 0
BBX 16 14 4 3
BITMAP
0180
0180
0240
0240
0660
0420
0C30
0810
1818
1008
300C
2004
6006
FFFF
ENDCHAR
STARTCHAR J2470
ENCODING 12672
SWIDTH 1059 0
DWIDTH 24 0
BBX 22 14 1 3
BITMAP
180180
0C00C0
3F03F0
618618
C0CC0C
C0CC0C
C0CC0C
C0CC0C
C0CC0C
C0CC0C
C0CC0C
C0CC0C
618618
3F03F0
ENDCHAR
STARTCHAR J2471
ENCODING 12673
SWIDTH 1059 0
DWIDTH 24 0
BBX 16 18 4 1
BITMAP
0700
0180
0180
07E0
1C38
300C
6006
C003
C003
C003
C003
C003
C003
C003
6006
300C
1C38
07E0
ENDCHAR
STARTCHAR J2472
ENCODING 12674
SWIDTH 1059 0
DWIDTH 24 0
BBX 22 15 1 3
BITMAP
180700
0C01C0
3F0180
618180
C0C180
C0C180
C0C300
C0C300
C0C680
C0C640
C0CC60
C0CC30
C0D818
61B01C
3F400C
ENDCHAR
STARTCHAR J2473
ENCODING 12675
SWIDTH 1059 0
DWIDTH 24 0
BBX 22 15 1 3
BITMAP
180000
0C0100
3F0100
618380
C0C280
C0C6C0
C0C440
C0C440
C0CC60
C0C820
C0C820
C0D830
C0D010
61B018
3F7FFC
ENDCHAR
STARTCHAR J2474
ENCODING 12676
SWIDTH 1059 0
DWIDTH 24 0
BBX 18 20 2 0
BITMAP
400300
3FFF80
100000
001C00
180E00
0E0C00
861980
7FFFC0
200000
00C000
006000
03FC00
0E0700
180180
3000C0
3000C0
3000C0
180180
0E0700
03FC00
ENDCHAR
STARTCHAR J2475
ENCODING 12677
SWIDTH 1059 0
DWIDTH 24 0
BBX 22 14 1 3
BITMAP
420420
3F03F0
000000
80D018
7FEFFC
200400
000000
0E01C0
318630
60CC18
60CC18
60CC18
318630
0E01C0
ENDCHAR
STARTCHAR J2476
ENCODING 12678
SWIDTH 1059 0
DWIDTH 24 0
BBX 18 14 3 3
BITMAP
800180
7FFFC0
200000
000000
00C000
006000
01F800
060600
0C0300
0C0300
0C0300
0C0300
060600
01F800
ENDCHAR
STARTCHAR J2477
ENCODING 12679
SWIDTH 1059 0
DWIDTH 24 0
BBX 22 22 1 -1
BITMAP
000300
0001C0
0000C0
0000C0
0000C0
0000C0
0060C0
0030C0
0030D8
0C30FC
0630C0
0630C0
0630D8
0637FC
87F8C0
7F80C0
3800C0
0000C0
0000C0
0000C0
0000C0
000080
ENDCHAR
STARTCHAR J2478
ENCODING 12680
SWIDTH 1059 0
DWIDTH 24 0
BBX 19 22 1 -1
BITMAP
000180
0000E0
001860
000E60
000660
018660
00C660
00C660
18C7E0
0CC660
0CC660
0CC660
0CC7E0
8DF660
7F8660
380660
000660
000660
000660
000460
000060
000040
ENDCHAR
STARTCHAR J2479
ENCODING 12681
SWIDTH 1059 0
DWIDTH 24 0
BBX 19 22 1 -1
BITMAP
000180
0000E0
000060
000060
000060
000060
00C060
006060
006060
0C6060
066060
066060
066060
066760
87F860
7F8060
380060
000060
000060
000060
000060
000040
ENDCHAR
STARTCHAR J247a
ENCODING 12682
SWIDTH 1059 0
DWIDTH 24 0
BBX 19 22 1 -1
BITMAP
000180
0000E0
000060
000060
000060
000060
000060
000060
000760
80F860
7FB060
3337E0
033360
033060
0337E0
033360
033060
033060
033060
022060
000060
000040
ENDCHAR
STARTCHAR J247b
ENCODING 12683
SWIDTH 1059 0
DWIDTH 24 0
BBX 19 22 1 -1
BITMAP
000180
0000E0
001860
000E60
000660
000660
000660
000660
000660
83F660
7EC660
2CFE60
0CD660
0CC660
0CFE60
0CD660
0CC660
0CC660
088460
000060
000060
000040
ENDCHAR
STARTCHAR J247c
ENCODING 12684
SWIDTH 1059 0
DWIDTH 24 0
BBX 19 22 1 -1
BITMAP
000180
0000E0
000060
000060
000060
000060
000060
000060
000060
000760
80F860
7FD860
331860
031860
031860
031860
031860
031860
031860
021060
000060
000040
ENDCHAR
STARTCHAR J247d
ENCODING 12685
SWIDTH 1059 0
DWIDTH 24 0
BBX 5 3 9 9
BITMAP
70
F8
70
ENDCHAR
STARTCHAR J247e
ENCODING 12686
SWIDTH 1059 0
DWIDTH 24 0
BBX 11 22 6 -1
BITMAP
0180
00E0
0060
0060
0060
0060
0060
0060
0060
0060
0060
0060
7060
F860
7060
0060
0060
0060
0060
0060
0060
0040
ENDCHAR
STARTCHAR J2931
ENCODING 12800
SWIDTH 1059 0
DWIDTH 24 0
BBX 22 21 1 0
BITMAP
060180
180060
300030
600018
600018
C8030C
C7FF8C
C2030C
C0030C
C0030C
C0030C
C0030C
C0030C
C0030C
C0030C
C0030C
600218
600018
300030
180060
060180
ENDCHAR
STARTCHAR J2932
ENCODING 12801
SWIDTH 1059 0
DWIDTH 24 0
BBX 22 21 1 0
BITMAP
060180
180060
300030
600018
600018
C0000C
CC000C
C7000C
C3000C
C3000C
C3000C
C3000C
C3000C
C3000C
C3018C
C1FFCC
600018
600018
300030
180060
060180
ENDCHAR
STARTCHAR J2933
ENCODING 12802
SWIDTH 1059 0
DWIDTH 24 0
BBX 22 21 1 0
BITMAP
060180
180060
300030
600018
600018
CE030C
C3FF8C
C3000C
C3000C
C3000C
C3000C
C3000C
C3000C
C3018C
C1FFCC
C0000C
600018
600018
300030
180060
060180
ENDCHAR
STARTCHAR J2934
ENCODING 12803
SWIDTH 1059 0
DWIDTH 24 0
BBX 22 21 1 0
BITMAP
060180
180060
300030
600018
680318
C7FF8C
C2030C
C0030C
C0020C
C0020C
CFFF0C
C3000C
C3000C
C3000C
C3030C
C1FF8C
600018
600018
300030
180060
060180
ENDCHAR
STARTCHAR J2935
ENCODING 12804
SWIDTH 1059 0
DWIDTH 24 0
BBX 22 21 1 0
BITMAP
060180
180060
300030
600018
600018
DC018C
C7FFCC
C6018C
C6018C
C6018C
C6018C
C6010C
C6010C
C6010C
C7FF8C
C4000C
600018
600018
300030
180060
060180
ENDCHAR
STARTCHAR J2936
ENCODING 12805
SWIDTH 1059 0
DWIDTH 24 0
BBX 22 21 1 0
BITMAP
060180
180060
300030
600618
600398
CC018C
C7018C
C3018C
C3FF8C
C3018C
C3018C
C3018C
C3018C
C3018C
C3FF8C
C2010C
600018
600018
300030
180060
060180
ENDCHAR
STARTCHAR J2937
ENCODING 12806
SWIDTH 1059 0
DWIDTH 24 0
BBX 22 21 1 0
BITMAP
060180
180060
300030
607018
601C18
C0180C
C0180C
C0180C
C0300C
C0380C
C0660C
C0638C
C0C1CC
C180EC
C3006C
C4000C
600018
600018
300030
180060
060180
ENDCHAR
STARTCHAR J2938
ENCODING 12807
SWIDTH 1059 0
DWIDTH 24 0
BBX 22 21 1 0
BITMAP
060180
180060
300030
606018
603018
C0FC0C
C3870C
C6018C
CC00CC
CC00CC
CC00CC
CC00CC
CC00CC
C6018C
C3870C
C0FC0C
600018
600018
300030
180060
060180
ENDCHAR
STARTCHAR J2939
ENCODING 12808
SWIDTH 1059 0
DWIDTH 24 0
BBX 22 21 1 0
BITMAP
060180
180060
300030
600018
6800D8
C7FFEC
C2180C
C0180C
C0300C
C0380C
C0640C
C0630C
C0C18C
C181CC
C300CC
C4000C
600018
600018
300030
180060
060180
ENDCHAR
STARTCHAR J293a
ENCODING 12809
SWIDTH 1059 0
DWIDTH 24 0
BBX 22 21 1 0
BITMAP
060180
180060
300030
610218
60FF18
C0400C
C800CC
C7FFEC
C2180C
C0180C
C0380C
C0360C
C0638C
C0C1CC
C180CC
C6000C
600018
600018
300030
180060
060180
ENDCHAR
STARTCHAR J293b
ENCODING 12810
SWIDTH 1059 0
DWIDTH 24 0
BBX 22 21 1 0
BITMAP
060180
180060
300030
600018
680318
C7FF8C
C2030C
C0030C
C0030C
D03F0C
CFC30C
C6060C
C0060C
C0060C
C00C0C
60080C
601018
300018
180030
0E0060
03FD80
ENDCHAR
STARTCHAR J293c
ENCODING 12811
SWIDTH 1059 0
DWIDTH 24 0
BBX 22 21 1 0
BITMAP
060180
180060
300030
600018
600018
CE030C
C3FF8C
C3000C
C3000C
C3030C
C3FF8C
C3000C
C3000C
C3000C
C3018C
C1FFCC
600018
600018
300030
180060
060180
ENDCHAR
STARTCHAR J293d
ENCODING 12812
SWIDTH 1059 0
DWIDTH 24 0
BBX 22 21 1 0
BITMAP
060180
180060
300030
600018
600018
C0000C
C4030C
C3FF8C
C1000C
C0060C
C3038C
C1C30C
C0C60C
C0C60C
C8C68C
C7FFCC
620018
600018
300030
180060
060180
ENDCHAR
STARTCHAR J293e
ENCODING 12813
SWIDTH 1059 0
DWIDTH 24 0
BBX 22 21 1 0
BITMAP
060180
180060
300030
600018
610418
C0FE0C
C0000C
D000CC
CFFFEC
C4200C
C0300C
C0FC0C
C1860C
C3030C
C3030C
C1860C
60FC18
600018
300030
180060
060180
ENDCHAR
STARTCHAR J293f
ENCODING 12814
SWIDTH 1059 0
DWIDTH 24 0
BBX 22 21 1 0
BITMAP
060180
180060
300C30
600718
600318
D0330C
CFFB0C
C4330C
C0330C
C0636C
C063FC
C0C30C
C1830C
C3030C
C6030C
D8030C
600318
600318
300230
180060
060180
ENDCHAR
STARTCHAR J2940
ENCODING 12815
SWIDTH 1059 0
DWIDTH 24 0
BBX 22 21 1 0
BITMAP
060180
180060
300C30
600718
600318
C0030C
D8030C
CC030C
CC030C
CC036C
CC03FC
CC0F0C
CC730C
CFC30C
C7030C
C0030C
600318
600318
300330
180260
060180
ENDCHAR
STARTCHAR J2941
ENCODING 12816
SWIDTH 1059 0
DWIDTH 24 0
BBX 22 21 1 0
BITMAP
060180
180060
300C30
600718
600318
D8330C
CFFB0C
CC030C
CC030C
CC036C
CC03FC
CC030C
CC1B0C
CFE30C
C7030C
C0030C
600318
600318
300330
180260
060180
ENDCHAR
STARTCHAR J2942
ENCODING 12817
SWIDTH 1059 0
DWIDTH 24 0
BBX 22 21 1 0
BITMAP
060180
180C60
300730
600318
603318
DFFB0C
C8330C
C0330C
C0230C
DFF36C
CC03FC
CC030C
CC0B0C
CC330C
CFC30C
C7030C
600318
600318
300330
180260
060180
ENDCHAR
STARTCHAR J2943
ENCODING 12818
SWIDTH 1059 0
DWIDTH 24 0
BBX 22 21 1 0
BITMAP
060180
180C60
300730
600318
600318
D8330C
CFFB0C
CC330C
CC330C
CC336C
CC23FC
CC230C
CC230C
CFF30C
C8030C
C0030C
600318
600318
300330
180260
060180
ENDCHAR
STARTCHAR J2944
ENCODING 12819
SWIDTH 1059 0
DWIDTH 24 0
BBX 22 21 1 0
BITMAP
060180
180C60
300730
600318
60C318
C0730C
F0330C
DC330C
CC330C
CFF36C
CC33FC
CC330C
CC330C
CFF30C
C8230C
C0030C
600318
600318
300330
180260
060180
ENDCHAR
STARTCHAR J2945
ENCODING 12820
SWIDTH 1059 0
DWIDTH 24 0
BBX 22 21 1 0
BITMAP
060180
180C60
300730
600318
638318
C0C30C
C0C30C
C1830C
C3030C
C6836C
CC43FC
D8630C
E0630C
C0030C
C0030C
C0030C
600318
600318
300230
180060
060180
ENDCHAR
STARTCHAR J2946
ENCODING 12821
SWIDTH 1059 0
DWIDTH 24 0
BBX 22 21 1 0
BITMAP
060180
180C60
300730
600318
600318
C7C30C
CC630C
D8330C
D8330C
D8336C
D833FC
D8330C
CC630C
C7C30C
C0030C
C0030C
600318
600318
300330
180260
060180
ENDCHAR
STARTCHAR J2947
ENCODING 12822
SWIDTH 1059 0
DWIDTH 24 0
BBX 22 21 1 0
BITMAP
060180
180C60
300730
600318
600318
E0330C
DFFB0C
C8330C
C0630C
C0C36C
C183FC
C3430C
C6230C
CC330C
F0330C
C0030C
600318
600318
300330
180260
060180
ENDCHAR
STARTCHAR J2948
ENCODING 12823
SWIDTH 1059 0
DWIDTH 24 0
BBX 22 21 1 0
BITMAP
060180
180C60
300730
680318
67C318
C0030C
E0330C
DFFB0C
C8330C
C0636C
C0C3FC
C1C30C
C3230C
C6330C
CC330C
D0030C
600318
600318
300330
180260
060180
ENDCHAR
STARTCHAR J2949
ENCODING 12824
SWIDTH 1059 0
DWIDTH 24 0
BBX 22 21 1 0
BITMAP
060180
180C60
300730
600318
603318
DFFB0C
C8330C
C0330C
C3E36C
FE63FC
D0C30C
C1830C
C3030C
C6030C
CC030C
D0030C
600318
600318
300330
180260
060180
ENDCHAR
STARTCHAR J294a
ENCODING 12825
SWIDTH 1059 0
DWIDTH 24 0
BBX 22 21 1 0
BITMAP
060180
180C60
300730
600318
600318
D8330C
CFFB0C
CC030C
CC630C
CFF36C
CC03FC
CC030C
CC1B0C
CFE30C
C7030C
C00318
600318
600330
300330
180260
060180
ENDCHAR
STARTCHAR J294b
ENCODING 12826
SWIDTH 1059 0
DWIDTH 24 0
BBX 22 21 1 0
BITMAP
060180
180C60
300730
600318
600318
E0630C
DFF30C
C0030C
C8E30C
C4636C
C663FC
C6430C
C28B0C
C1F30C
FF030C
D0030C
600318
600318
300330
180260
060180
ENDCHAR
STARTCHAR J294c
ENCODING 12827
SWIDTH 1059 0
DWIDTH 24 0
BBX 22 21 1 0
BITMAP
060180
180C60
300730
680318
67E318
C0030C
E0330C
DFFB0C
C8030C
C1836C
C663FC
CC330C
CC330C
CC330C
C6630C
C1830C
600318
600318
300330
180260
060180
ENDCHAR
STARTCHAR J225f
ENCODING 12828
SWIDTH 1059 0
DWIDTH 24 0
BBX 22 21 1 0
BITMAP
1C00E0
300030
600618
67FF18
C2060C
C00C0C
C0380C
C0E70C
C381CC
CC000C
C0000C
E000CC
DFFFEC
C8300C
C0300C
C0300C
C0300C
603018
603018
303030
1C20E0
ENDCHAR
STARTCHAR J2831
ENCODING 12896
SWIDTH 1059 0
DWIDTH 24 0
BBX 22 21 1 0
BITMAP
03FF00
0E01C0
180060
300030
600018
680318
C7FF8C
C2030C
C0030C
C0030C
C0030C
C0030C
C0030C
C0030C
C0030C
600318
600218
300030
180060
0E01C0
03FF00
ENDCHAR
STARTCHAR J2832
ENCODING 12897
SWIDTH 1059 0
DWIDTH 24 0
BBX 22 21 1 0
BITMAP
03FF00
0E01C0
180060
300030
600018
600018
CC000C
C7000C
C3000C
C3000C
C3000C
C3000C
C3000C
C3000C
C3018C
61FFD8
600018
300030
180060
0E01C0
03FF00
ENDCHAR
STARTCHAR J2833
ENCODING 12898
SWIDTH 1059 0
DWIDTH 24 0
BBX 22 21 1 0
BITMAP
03FF00
0E01C0
180060
300030
600018
6E0318
C3FF8C
C3000C
C3000C
C3000C
C3000C
C3000C
C3000C
C3018C
C1FFCC
600018
600018
300030
180060
0E01C0
03FF00
ENDCHAR
STARTCHAR J2834
ENCODING 12899
SWIDTH 1059 0
DWIDTH 24 0
BBX 22 21 1 0
BITMAP
03FF00
0E01C0
180060
300030
680318
67FF98
C2030C
C0030C
C0020C
C0020C
CFFF0C
C3000C
C3000C
C3000C
C3030C
61FF98
600018
300030
180060
0E01C0
03FF00
ENDCHAR
STARTCHAR J2835
ENCODING 12900
SWIDTH 1059 0
DWIDTH 24 0
BBX 22 21 1 0
BITMAP
03FF00
0E01C0
180060
300030
600018
7C0198
C7FFCC
C6018C
C6018C
C6018C
C6018C
C6010C
C6010C
C6010C
C7FF8C
640018
600018
300030
180060
0E01C0
03FF00
ENDCHAR
STARTCHAR J2836
ENCODING 12901
SWIDTH 1059 0
DWIDTH 24 0
BBX 22 21 1 0
BITMAP
03FF00
0E01C0
180060
300630
600398
6C0198
C7018C
C3018C
C3FF8C
C3018C
C3018C
C3018C
C3018C
C3018C
C3FF8C
620118
600018
300030
180060
0E01C0
03FF00
ENDCHAR
STARTCHAR J2837
ENCODING 12902
SWIDTH 1059 0
DWIDTH 24 0
BBX 22 21 1 0
BITMAP
03FF00
0E01C0
180060
307030
601C18
601818
C0180C
C0180C
C0300C
C0380C
C0660C
C0638C
C0C1CC
C180EC
C3006C
640018
600018
300030
180060
0E01C0
03FF00
ENDCHAR
STARTCHAR J2838
ENCODING 12903
SWIDTH 1059 0
DWIDTH 24 0
BBX 22 21 1 0
BITMAP
03FF00
0E01C0
180060
306030
603018
60FC18
C3870C
C6018C
CC00CC
CC00CC
CC00CC
CC00CC
CC00CC
C6018C
C3870C
60FC18
600018
300030
180060
0E01C0
03FF00
ENDCHAR
STARTCHAR J2839
ENCODING 12904
SWIDTH 1059 0
DWIDTH 24 0
BBX 22 21 1 0
BITMAP
03FF00
0E01C0
180060
300030
6800D8
67FFF8
C2180C
C0180C
C0300C
C0380C
C0640C
C0630C
C0C18C
C181CC
C300CC
640018
600018
300030
180060
0E01C0
03FF00
ENDCHAR
STARTCHAR J283a
ENCODING 12905
SWIDTH 1059 0
DWIDTH 24 0
BBX 22 21 1 0
BITMAP
03FF00
0E01C0
180060
310230
60FF18
604018
C800CC
C7FFEC
C2180C
C0180C
C0380C
C0360C
C0638C
C0C1CC
C180CC
660018
600018
300030
180060
0E01C0
03FF00
ENDCHAR
STARTCHAR J283b
ENCODING 12906
SWIDTH 1059 0
DWIDTH 24 0
BBX 22 21 1 0
BITMAP
03FF00
0E01C0
180060
300030
680318
67FF98
C2030C
C0030C
C0030C
D03F0C
CFC30C
C6060C
C0060C
C0060C
C00C0C
600818
601018
300030
180060
0E01C0
03FF00
ENDCHAR
STARTCHAR J283c
ENCODING 12907
SWIDTH 1059 0
DWIDTH 24 0
BBX 22 21 1 0
BITMAP
03FF00
0E01C0
180060
300030
600018
6E0318
C3FF8C
C3000C
C3000C
C3030C
C3FF8C
C3000C
C3000C
C3000C
C3018C
61FFD8
600018
300030
180060
0E01C0
03FF00
ENDCHAR
STARTCHAR J283d
ENCODING 12908
SWIDTH 1059 0
DWIDTH 24 0
BBX 22 21 1 0
BITMAP
03FF00
0E01C0
180060
300030
600018
600018
C4030C
C3FF8C
C1000C
C0060C
C3038C
C1C30C
C0C60C
C0C60C
C8C68C
67FFD8
620018
300030
180060
0E01C0
03FF00
ENDCHAR
STARTCHAR J283e
ENCODING 12909
SWIDTH 1059 0
DWIDTH 24 0
BBX 22 21 1 0
BITMAP
03FF00
0E01C0
180060
300030
610418
60FE18
C0000C
D000CC
CFFFEC
C4200C
C0300C
C0FC0C
C1860C
C3030C
C3030C
618618
60FC18
300030
180060
0E01C0
03FF00
ENDCHAR
STARTCHAR J283f
ENCODING 12910
SWIDTH 1059 0
DWIDTH 24 0
BBX 22 21 1 0
BITMAP
07FF80
1C00E0
300C30
600718
600318
D0330C
CFFB0C
C4330C
C0330C
C0636C
C063FC
C0C30C
C1830C
C3030C
C6030C
D8030C
600318
600318
300230
1C00E0
07FF80
ENDCHAR
STARTCHAR J2840
ENCODING 12911
SWIDTH 1059 0
DWIDTH 24 0
BBX 22 21 1 0
BITMAP
07FF80
1C00E0
300C30
600718
600318
C0030C
D8030C
CC030C
CC030C
CC036C
CC03FC
CC0F0C
CC730C
CFC30C
C7030C
C0030C
600318
600318
300330
1C02E0
07FF80
ENDCHAR
STARTCHAR J2841
ENCODING 12912
SWIDTH 1059 0
DWIDTH 24 0
BBX 22 21 1 0
BITMAP
07FF80
1C00E0
300C30
600718
600318
D8330C
CFFB0C
CC030C
CC030C
CC036C
CC03FC
CC030C
CC1B0C
CFE30C
C7030C
C0030C
600318
600318
300330
1C02E0
07FF80
ENDCHAR
STARTCHAR J2842
ENCODING 12913
SWIDTH 1059 0
DWIDTH 24 0
BBX 22 21 1 0
BITMAP
07FF80
1C0CE0
300730
600318
603318
DFFB0C
C8330C
C0330C
C0230C
DFF36C
CC03FC
CC030C
CC0B0C
CC330C
CFC30C
C7030C
600318
600318
300330
1C02E0
07FF80
ENDCHAR
STARTCHAR J2843
ENCODING 12914
SWIDTH 1059 0
DWIDTH 24 0
BBX 22 21 1 0
BITMAP
07FF80
1C0CE0
300730
600318
600318
D8330C
CFFB0C
CC330C
CC330C
CC336C
CC23FC
CC230C
CC230C
CFF30C
C8030C
C0030C
600318
600318
300330
1C02E0
07FF80
ENDCHAR
STARTCHAR J2844
ENCODING 12915
SWIDTH 1059 0
DWIDTH 24 0
BBX 22 21 1 0
BITMAP
07FF80
1C0CE0
300730
600318
60C318
C0730C
F0330C
DC330C
CC330C
CFF36C
CC33FC
CC330C
CC330C
CFF30C
C8230C
C0030C
600318
600318
300330
1C02E0
07FF80
ENDCHAR
STARTCHAR J2845
ENCODING 12916
SWIDTH 1059 0
DWIDTH 24 0
BBX 22 21 1 0
BITMAP
07FF80
1C0CE0
300730
600318
638318
C0C30C
C0C30C
C1830C
C3030C
C6836C
CC43FC
D8630C
E0630C
C0030C
C0030C
C0030C
600318
600318
300230
1C00E0
07FF80
ENDCHAR
STARTCHAR J2846
ENCODING 12917
SWIDTH 1059 0
DWIDTH 24 0
BBX 22 21 1 0
BITMAP
07FF80
1C0CE0
300730
600318
600318
C7C30C
CC630C
D8330C
D8330C
D8336C
D833FC
D8330C
CC630C
C7C30C
C0030C
C0030C
600318
600318
300330
1C02E0
07FF80
ENDCHAR
STARTCHAR J2847
ENCODING 12918
SWIDTH 1059 0
DWIDTH 24 0
BBX 22 21 1 0
BITMAP
07FF80
1C0CE0
300730
600318
600318
E0330C
DFFB0C
C8330C
C0630C
C0C36C
C183FC
C3430C
C6230C
CC330C
F0330C
C0030C
600318
600318
300330
1C02E0
07FF80
ENDCHAR
STARTCHAR J2848
ENCODING 12919
SWIDTH 1059 0
DWIDTH 24 0
BBX 22 21 1 0
BITMAP
07FF80
1C0CE0
300730
680318
67C318
C0030C
E0330C
DFFB0C
C8330C
C0636C
C0C3FC
C1C30C
C3230C
C6330C
CC330C
D0030C
600318
600318
300330
1C02E0
07FF80
ENDCHAR
STARTCHAR J2849
ENCODING 12920
SWIDTH 1059 0
DWIDTH 24 0
BBX 22 21 1 0
BITMAP
07FF80
1C0CE0
300730
600318
603318
DFFB0C
C8330C
C0330C
C3E36C
FE63FC
D0C30C
C1830C
C3030C
C6030C
CC030C
D0030C
600318
600318
300330
1C02E0
07FF80
ENDCHAR
STARTCHAR J284a
ENCODING 12921
SWIDTH 1059 0
DWIDTH 24 0
BBX 22 21 1 0
BITMAP
07FF80
1C0CE0
300730
600318
600318
D8330C
CFFB0C
CC030C
CC630C
CFF36C
CC03FC
CC030C
CC1B0C
CFE30C
C7030C
C00318
600318
600330
300330
1C02E0
07FF80
ENDCHAR
STARTCHAR J284b
ENCODING 12922
SWIDTH 1059 0
DWIDTH 24 0
BBX 22 21 1 0
BITMAP
07FF80
1C0CE0
300730
600318
600318
E0630C
DFF30C
C0030C
C8E30C
C4636C
C663FC
C6430C
C28B0C
C1F30C
FF030C
D0030C
600318
600318
300330
1C02E0
07FF80
ENDCHAR
STARTCHAR J284c
ENCODING 12923
SWIDTH 1059 0
DWIDTH 24 0
BBX 22 21 1 0
BITMAP
07FF80
1C0CE0
300730
680318
67E318
C0030C
E0330C
DFFB0C
C8030C
C1836C
C663FC
CC330C
CC330C
CC330C
C6630C
C1830C
600318
600318
300330
1C02E0
07FF80
ENDCHAR
STARTCHAR J225e
ENCODING 12927
SWIDTH 1059 0
DWIDTH 24 0
BBX 22 20 1 1
BITMAP
03FF80
0E00E0
180030
300018
63CF8C
61860C
C18C00
C19800
C1B000
FDE0FC
01E00C
01B00C
C1980C
C18C0C
61860C
618318
33C7D8
180030
0E00E0
03FF80
ENDCHAR
STARTCHAR J2749
ENCODING 13184
SWIDTH 1059 0
DWIDTH 24 0
BBX 24 23 0 -2
BITMAP
0000C0
0000C0
0001E0
000160
000160
000330
000230
000230
638230
ECC618
706418
606418
6067F8
606C0C
60680C
60680C
60680C
78D806
6F9006
60380F
600000
600000
F00000
ENDCHAR
STARTCHAR J274a
ENCODING 13185
SWIDTH 1059 0
DWIDTH 24 0
BBX 24 20 0 1
BITMAP
0000C0
0000C0
0001E0
000160
000160
000330
000230
000230
678230
EFC618
78C418
60C418
60C7F8
60CC0C
60C80C
60C80C
60C80C
60D806
60D006
F1F80F
ENDCHAR
STARTCHAR J274b
ENCODING 13186
SWIDTH 1059 0
DWIDTH 24 0
BBX 24 23 0 -2
BITMAP
0000C0
0000C0
000160
000160
000160
000330
000230
000230
60C230
60C618
60C418
60C418
60C7F8
60CC0C
C1880C
C1880C
C1880C
C19806
E39006
FEF80F
C00000
C00000
C00000
ENDCHAR
STARTCHAR J274c
ENCODING 13187
SWIDTH 1059 0
DWIDTH 24 0
BBX 24 20 0 1
BITMAP
0000C0
0000C0
000160
000160
000160
000330
000230
000230
6EE230
F76218
666618
666418
6667F8
66640C
66640C
66640C
666C0C
666806
666806
F6FC0F
ENDCHAR
STARTCHAR J274d
ENCODING 13188
SWIDTH 1059 0
DWIDTH 24 0
BBX 24 20 0 1
BITMAP
6000C0
E000C0
600160
600160
600160
600330
600230
600230
61F230
60C218
618618
630418
6607F8
6E040C
7E040C
77040C
638C0C
61C806
60E806
F1FC0F
ENDCHAR
STARTCHAR J273a
ENCODING 13192
SWIDTH 1059 0
DWIDTH 24 0
BBX 22 20 1 1
BITMAP
000018
000038
000018
000018
000018
000018
000018
000018
3C1F18
637198
C36198
C00198
C00F98
C03198
C06198
C06198
C06198
C1E198
676398
3C3EFC
ENDCHAR
STARTCHAR J273b
ENCODING 13193
SWIDTH 1059 0
DWIDTH 24 0
BBX 24 20 0 1
BITMAP
600006
E0000E
600006
600006
600006
600006
600006
600006
67B8E6
636B36
66C736
6CC036
78C0F6
78C336
6CC336
6CC336
66C336
66C336
6367F6
F7B9DF
ENDCHAR
STARTCHAR J275c
ENCODING 13194
SWIDTH 1059 0
DWIDTH 24 0
BBX 23 23 0 -2
BITMAP
000FFC
00060C
000606
000606
000600
000600
000610
000610
6387F8
ECC608
706608
606600
606600
606600
606600
606600
606600
78C600
6F8600
600F00
600000
600000
F00000
ENDCHAR
STARTCHAR J275d
ENCODING 13195
SWIDTH 1059 0
DWIDTH 24 0
BBX 22 20 1 1
BITMAP
001FF8
000C18
000C0C
000C0C
000C00
000C00
000C20
000C20
670FF0
EF8C10
718C10
618C00
618C00
618C00
618C00
618C00
618C00
618C00
618C00
F3DE00
ENDCHAR
STARTCHAR J275e
ENCODING 13196
SWIDTH 1059 0
DWIDTH 24 0
BBX 22 23 1 -2
BITMAP
001FF8
000C18
000C0C
000C0C
000C00
000C00
000C20
000C30
618FF0
618C10
618C10
618C00
618C00
618C00
C30C00
C30C00
C30C00
C30C00
E70C00
FDDE00
C00000
C00000
C00000
ENDCHAR
STARTCHAR J2736
ENCODING 13197
SWIDTH 1059 0
DWIDTH 24 0
BBX 21 16 2 -2
BITMAP
000018
0003B8
6187E0
618C60
618C60
618CE0
6187C0
C30C00
C30FE0
C307F0
C31C38
E71818
FDD818
C01C38
C00FF0
C003C0
ENDCHAR
STARTCHAR J2737
ENCODING 13198
SWIDTH 1059 0
DWIDTH 24 0
BBX 22 16 1 -2
BITMAP
00000C
6EE1DC
F763F0
666630
666630
666670
6663E0
666600
6667F0
6663F8
666E1C
666C0C
EEFC0C
000E1C
0007F8
0001E0
ENDCHAR
STARTCHAR J2738
ENCODING 13199
SWIDTH 1059 0
DWIDTH 24 0
BBX 22 23 1 -2
BITMAP
600000
E00000
600000
600000
600000
600000
600000
60000C
63E1DC
6183F0
630630
660630
6C0630
7C03E0
6E0600
6707E0
6383F8
61C61C
60EC0C
F9FC0C
000E1C
0007F8
0003E0
ENDCHAR
STARTCHAR J2754
ENCODING 13200
SWIDTH 1059 0
DWIDTH 24 0
BBX 22 20 1 1
BITMAP
F0F000
606000
606000
606000
606000
606000
606000
606000
6063FC
7FE30C
606618
606030
606060
606060
6060C0
606180
606180
60630C
606618
F0F7F8
ENDCHAR
STARTCHAR J2755
ENCODING 13201
SWIDTH 1059 0
DWIDTH 24 0
BBX 24 20 0 1
BITMAP
60F3C0
E06180
606180
606180
606180
606180
606180
606180
63E1BF
617FB3
6261A3
646186
686186
78618C
78618C
6C6198
666198
6661B1
6361B3
F7F3BF
ENDCHAR
STARTCHAR J2756
ENCODING 13202
SWIDTH 1059 0
DWIDTH 24 0
BBX 24 20 0 1
BITMAP
E3FBC0
63B180
63B180
63B180
63B180
77B180
55B180
55B180
55B1BF
55BFB3
55B1A2
55B186
55B184
55B184
55B18C
5DB188
49B198
49B191
49B1B3
EBFBBF
ENDCHAR
STARTCHAR J2757
ENCODING 13203
SWIDTH 1059 0
DWIDTH 24 0
BBX 24 20 0 1
BITMAP
3E7BC0
633180
C13180
C03180
C03180
C03180
C03180
C03180
C031BF
C03FB3
C031A2
C7B186
C33184
C33184
C3318C
C33188
C33198
C33191
6731B3
3BBBBF
ENDCHAR
STARTCHAR J2758
ENCODING 13204
SWIDTH 1059 0
DWIDTH 24 0
BBX 24 20 0 1
BITMAP
FF7BC0
DB3180
993180
183180
183180
183180
183180
183180
1831BF
183FB3
1831A2
183186
183184
183184
18318C
183188
183198
183191
1831B3
3C3BBF
ENDCHAR
STARTCHAR J2721
ENCODING 13205
SWIDTH 1059 0
DWIDTH 24 0
BBX 20 23 2 -2
BITMAP
0001C0
000360
000360
000660
000660
000660
000660
000660
30C660
30CC60
30CCC0
30CCC0
30CCC0
618D80
618D90
618F10
618E30
618620
739E60
DCE3C0
C00000
C00000
C00000
ENDCHAR
STARTCHAR J2722
ENCODING 13206
SWIDTH 1059 0
DWIDTH 24 0
BBX 22 20 1 1
BITMAP
000070
0000D8
0000D8
000198
000198
000198
000198
000198
673998
EF7998
7399B0
6319B0
6319B0
6319E0
6319C4
6319C4
631984
63198C
6319F8
F7BE70
ENDCHAR
STARTCHAR J2723
ENCODING 13207
SWIDTH 1059 0
DWIDTH 24 0
BBX 21 20 1 1
BITMAP
00C1C0
01C360
00C360
00C660
00C660
00C660
00C660
00CC60
1ECC60
31CC60
60CCC0
C0CCC0
C0CCC0
C0CCC8
C0CD88
C0CD88
C0C718
60C618
31CFF0
1E79E0
ENDCHAR
STARTCHAR J2725
ENCODING 13208
SWIDTH 1059 0
DWIDTH 24 0
BBX 22 20 1 1
BITMAP
6000E0
E001B0
600330
600330
600330
600630
600630
600630
63E630
618630
630660
660660
6C0660
7E0664
7706C4
6386C4
61C38C
60E308
607F98
F0F8F0
ENDCHAR
STARTCHAR J272b
ENCODING 13209
SWIDTH 1059 0
DWIDTH 24 0
BBX 21 20 1 1
BITMAP
0E0000
1B8000
318000
300000
300000
300000
300000
300000
FEDCE0
31FFF0
30E730
30C630
30C630
30C630
30C630
30C630
30C630
30C630
30C630
79EF78
ENDCHAR
STARTCHAR J272c
ENCODING 13210
SWIDTH 1059 0
DWIDTH 24 0
BBX 23 12 0 1
BITMAP
6E3738
FF7FFC
7339CC
63318C
63318C
63318C
63318C
63318C
63318C
63318C
63318C
F77BDE
ENDCHAR
STARTCHAR J272d
ENCODING 13211
SWIDTH 1059 0
DWIDTH 24 0
BBX 23 15 0 -2
BITMAP
633738
637FFC
6339CC
63318C
63318C
63318C
C6318C
C6318C
C6318C
C6318C
CE318C
FBBBDE
C00000
C00000
C00000
ENDCHAR
STARTCHAR J272e
ENCODING 13212
SWIDTH 1059 0
DWIDTH 24 0
BBX 24 12 0 1
BITMAP
6EE6EE
F76F76
666666
666666
666666
666666
666666
666666
666666
666666
666666
EF7777
ENDCHAR
STARTCHAR J272f
ENCODING 13213
SWIDTH 1059 0
DWIDTH 24 0
BBX 22 12 1 1
BITMAP
3E1BB8
61BDD8
C19998
C01998
C01998
C01998
C01998
C01998
C01998
C0D998
639998
3E3BDC
ENDCHAR
STARTCHAR J2730
ENCODING 13214
SWIDTH 1059 0
DWIDTH 24 0
BBX 23 20 0 1
BITMAP
600000
E00000
600000
600000
600000
600000
600000
600000
61F9DC
60CEEC
618CCC
630CCC
660CCC
6E0CCC
7E0CCC
670CCC
638CCC
61CCCC
60ECCC
F1FDFE
ENDCHAR
STARTCHAR J2731
ENCODING 13215
SWIDTH 1059 0
DWIDTH 24 0
BBX 24 20 0 1
BITMAP
00001C
000022
000002
00000C
000010
000020
00003E
000000
6EE6EE
F76F76
666666
666666
666666
666666
666666
666666
666666
666666
666666
EF7777
ENDCHAR
STARTCHAR J2732
ENCODING 13216
SWIDTH 1059 0
DWIDTH 24 0
BBX 22 20 1 1
BITMAP
000038
000044
000004
000018
000020
000040
00007C
000000
3C3BB8
635DD8
C31998
C01998
C01998
C01998
C01998
C01998
C01998
C19998
671998
3C3BDC
ENDCHAR
STARTCHAR J2733
ENCODING 13217
SWIDTH 1059 0
DWIDTH 24 0
BBX 18 20 3 1
BITMAP
000380
000440
000040
000180
000200
000400
0007C0
000000
671C00
EFBE00
71C600
618600
618600
618600
618600
618600
618600
618600
618600
F3CF00
ENDCHAR
STARTCHAR J2734
ENCODING 13218
SWIDTH 1059 0
DWIDTH 24 0
BBX 23 20 0 1
BITMAP
60001C
E00022
600002
60000C
600010
600020
60003E
600000
61EDDC
60DEEC
618CCC
630CCC
660CCC
6E0CCC
7E0CCC
670CCC
638CCC
61CCCC
60ECCC
F1FDFE
ENDCHAR
STARTCHAR J2727
ENCODING 13219
SWIDTH 1059 0
DWIDTH 24 0
BBX 24 20 0 1
BITMAP
00001C
000022
000002
00000C
000002
000022
00001C
000000
6EE6EE
F76F76
666666
666666
666666
666666
666666
666666
666666
666666
666666
EF7777
ENDCHAR
STARTCHAR J2728
ENCODING 13220
SWIDTH 1059 0
DWIDTH 24 0
BBX 22 20 1 1
BITMAP
000038
000044
000004
000038
000004
000044
000038
000000
3C3BB8
635DD8
C31998
C01998
C01998
C01998
C01998
C01998
C01998
C19998
671998
3C3BDC
ENDCHAR
STARTCHAR J2729
ENCODING 13221
SWIDTH 1059 0
DWIDTH 24 0
BBX 18 20 3 1
BITMAP
000380
000440
000040
000380
000040
000440
000380
000000
671C00
EFBE00
71C600
618600
618600
618600
618600
618600
618600
618600
618600
F3CF00
ENDCHAR
STARTCHAR J272a
ENCODING 13222
SWIDTH 1059 0
DWIDTH 24 0
BBX 23 20 0 1
BITMAP
60001C
E00022
600002
60001C
600002
600022
60001C
600000
61EDDC
60DEEC
618CCC
630CCC
660CCC
6E0CCC
7E0CCC
670CCC
638CCC
61CCCC
60ECCC
F1FDFE
ENDCHAR
STARTCHAR J273d
ENCODING 13223
SWIDTH 1059 0
DWIDTH 24 0
BBX 23 23 0 -1
BITMAP
000006
6EE00C
F76018
666030
666030
666060
6660C0
666180
666300
666300
666600
666CFC
EF7B8C
001B02
003300
0061C0
00C070
00C01C
018006
030006
060206
0C038C
1802F8
ENDCHAR
STARTCHAR J273e
ENCODING 13224
SWIDTH 1059 0
DWIDTH 24 0
BBX 24 23 0 -1
BITMAP
000030
6EE030
F7606E
6660D1
6660C1
666186
666308
666310
66661F
666C00
666C00
6678FC
EF7B8C
003302
006300
0061C0
00C070
01801C
030006
030006
060206
0C038C
1802F8
ENDCHAR
STARTCHAR J2765
ENCODING 13225
SWIDTH 1059 0
DWIDTH 24 0
BBX 22 20 1 1
BITMAP
FF0000
618000
60C000
60C000
60C000
60C000
60C000
60C000
60C7E0
619C30
7F1830
600030
6000F0
600730
600C30
601830
601830
601870
601FF0
F00F9C
ENDCHAR
STARTCHAR J2766
ENCODING 13226
SWIDTH 1059 0
DWIDTH 24 0
BBX 24 20 0 1
BITMAP
607E00
E03300
603180
603180
603180
603180
603180
603180
67B1BC
633346
663EC6
6C3006
78301E
783066
7C30C6
6E3186
673186
63B186
61B18E
F1F8F3
ENDCHAR
STARTCHAR J2767
ENCODING 13227
SWIDTH 1059 0
DWIDTH 24 0
BBX 24 20 0 1
BITMAP
E3FE00
63B300
63B180
63B180
63B180
77B180
55B180
55B180
55B1BC
55B346
55BEC6
55B006
55B01E
55B066
5DB0C6
49B186
49B186
49B186
49B18E
EBF8F3
ENDCHAR
STARTCHAR J2768
ENCODING 13228
SWIDTH 1059 0
DWIDTH 24 0
BBX 24 20 0 1
BITMAP
1E7E00
633300
C1B180
C03180
C03180
C03180
C03180
C03180
C031BC
C03346
C03EC6
C03006
C7B01E
C33066
C330C6
C33186
C33186
C33186
67318E
3978F3
ENDCHAR
STARTCHAR J2761
ENCODING 13229
SWIDTH 1059 0
DWIDTH 24 0
BBX 24 20 0 1
BITMAP
000006
00000E
000006
000006
000006
000006
000006
000006
6EF876
F38CCE
618D86
600D86
600D86
607D86
618D86
630D86
630D86
630D86
633CCE
F1E677
ENDCHAR
STARTCHAR J2762
ENCODING 13230
SWIDTH 1059 0
DWIDTH 24 0
BBX 24 23 0 -1
BITMAP
000303
000706
000306
00030C
6D8F0C
F2DB18
66DB18
61DB30
66DB30
66DB60
66DB60
66DBC0
66CFDE
F3E3B1
0001B1
000330
000618
00060C
000C06
000C03
001823
003023
00601E
ENDCHAR
STARTCHAR J2763
ENCODING 13231
SWIDTH 1059 0
DWIDTH 24 0
BBX 24 23 0 -1
BITMAP
00030C
00070C
000318
000318
6D8F30
F2DB37
66DB69
61DB61
66DB62
66DBC4
66DBCF
66DBC0
66CFBE
F3E3E2
000361
000360
000638
00060C
000C06
000C03
001843
001823
00303E
ENDCHAR
STARTCHAR J273f
ENCODING 13232
SWIDTH 1059 0
DWIDTH 24 0
BBX 22 15 1 -2
BITMAP
6383F8
ECCE18
706C04
606C00
606F00
6063E0
6060F8
60601C
60600C
78C80C
6F8618
6007F0
600000
600000
F00000
ENDCHAR
STARTCHAR J2740
ENCODING 13233
SWIDTH 1059 0
DWIDTH 24 0
BBX 22 12 1 1
BITMAP
6783F8
FFCE18
70CC04
60CC00
60CF00
60C3E0
60C0F8
60C01C
60C00C
60C80C
60C618
F1E7F0
ENDCHAR
STARTCHAR J2741
ENCODING 13234
SWIDTH 1059 0
DWIDTH 24 0
BBX 21 15 2 -2
BITMAP
60C7F0
60DC30
60D808
60D800
60DE00
60C7C0
C181F0
C18038
C18018
C19018
E38C30
FEEFE0
C00000
C00000
C00000
ENDCHAR
STARTCHAR J2742
ENCODING 13235
SWIDTH 1059 0
DWIDTH 24 0
BBX 24 12 0 1
BITMAP
6F78FE
F39B86
631B01
631B00
631BC0
6318F8
63183E
631807
631803
631A03
631986
F7BDFC
ENDCHAR
STARTCHAR J2743
ENCODING 13236
SWIDTH 1059 0
DWIDTH 24 0
BBX 23 23 0 -2
BITMAP
00780E
003004
003004
00300C
001808
001808
001818
000C10
638C10
ECCC10
706C30
606620
606620
606620
606360
606340
606340
78C3C0
6F8180
600180
600000
600000
F00000
ENDCHAR
STARTCHAR J2744
ENCODING 13237
SWIDTH 1059 0
DWIDTH 24 0
BBX 22 20 1 1
BITMAP
00F01C
006008
006008
006018
003010
003010
003030
001820
639820
EFD820
70D860
60CC40
60CC40
60CC40
60C6C0
60C680
60C680
60C780
60C300
F1E300
ENDCHAR
STARTCHAR J2745
ENCODING 13238
SWIDTH 1059 0
DWIDTH 24 0
BBX 22 23 1 -2
BITMAP
00F01C
006008
006008
006018
003010
003010
003030
001820
60D820
60D820
60D860
60CC40
60CC40
C18C40
C186C0
C18680
C18680
C18780
E39300
FEE300
C00000
C00000
C00000
ENDCHAR
STARTCHAR J2746
ENCODING 13239
SWIDTH 1059 0
DWIDTH 24 0
BBX 23 20 0 1
BITMAP
00780E
003004
003004
00300C
001808
001808
001818
000C10
6EEC10
F76C10
666C30
666620
666620
666620
666360
666340
666340
6663C0
666180
F77180
ENDCHAR
STARTCHAR J2747
ENCODING 13240
SWIDTH 1059 0
DWIDTH 24 0
BBX 22 20 1 1
BITMAP
60F01C
E06008
606008
606018
603010
603010
603030
601820
63F820
619820
631860
660C40
6C0C40
7C0C40
7E06C0
670680
638680
61C780
60E300
F1FB00
ENDCHAR
STARTCHAR J2748
ENCODING 13241
SWIDTH 1059 0
DWIDTH 24 0
BBX 24 20 0 1
BITMAP
E03F07
707602
707602
707602
58F606
58B304
58B304
58B304
58B30C
593188
4D3188
4D3188
4D3198
4D30D0
4D30D0
4F30D0
4630F0
463060
463060
E67860
ENDCHAR
STARTCHAR J274e
ENCODING 13242
SWIDTH 1059 0
DWIDTH 24 0
BBX 24 23 0 -2
BITMAP
01E787
00C302
00C302
00C306
006184
006184
006184
00618C
673188
E9B188
70F0C8
60F0D8
60D8D0
60D9D0
60D9D0
60DAD0
60CE60
798C60
6F0C60
600C60
600000
600000
F00000
ENDCHAR
STARTCHAR J274f
ENCODING 13243
SWIDTH 1059 0
DWIDTH 24 0
BBX 24 20 0 1
BITMAP
01E787
00C302
00C302
00C306
006184
006184
006184
00618C
673188
EFB188
71B0C8
61B0D8
6198D0
6199D0
6199D0
619AD0
618E60
618C60
618C60
F3CC60
ENDCHAR
STARTCHAR J2750
ENCODING 13244
SWIDTH 1059 0
DWIDTH 24 0
BBX 24 23 0 -2
BITMAP
01E787
00C302
00C302
00C306
006184
006184
006184
00618C
61B188
61B188
61B0C8
61B0D8
6198D0
6199D0
6199D0
C31AD0
C30E60
C30C60
E78C60
FCEC60
C00000
C00000
C00000
ENDCHAR
STARTCHAR J2751
ENCODING 13245
SWIDTH 1059 0
DWIDTH 24 0
BBX 24 20 0 1
BITMAP
007BC7
003182
003182
003182
0018C6
0018C4
0018C4
0018C4
6EF8C4
F76CC4
666C6C
666C68
666C68
666CE8
666CE8
666D68
666730
666630
666630
F77630
ENDCHAR
STARTCHAR J2752
ENCODING 13246
SWIDTH 1059 0
DWIDTH 24 0
BBX 24 20 0 1
BITMAP
61E787
E0C302
60C302
60C306
606184
606184
606184
60618C
61F188
60F188
61B0C8
6330D8
6618D0
6C19D0
7C19D0
6E1AD0
670E60
638C60
61CC60
F1FC60
ENDCHAR
STARTCHAR J2753
ENCODING 13247
SWIDTH 1059 0
DWIDTH 24 0
BBX 24 20 0 1
BITMAP
E1FDE7
61D8C2
71D8C2
71D8C2
71D8C2
71D8C2
5AD8C2
5AD8C2
5AD866
5ACC64
5ACC64
4ECC64
4ECC64
4ECCE4
4ECCE4
4ECD3C
44C618
44C618
44C618
E5E618
ENDCHAR
STARTCHAR J275a
ENCODING 13248
SWIDTH 1059 0
DWIDTH 24 0
BBX 24 20 0 1
BITMAP
600000
E007E0
601C38
60381C
60700E
60700E
60700E
60700E
63F00E
61F00E
63700E
66700E
6C301C
781818
780C30
6C0660
664241
636243
61BE7E
F3FC3E
ENDCHAR
STARTCHAR J275b
ENCODING 13249
SWIDTH 1059 0
DWIDTH 24 0
BBX 24 20 0 1
BITMAP
E1E000
61C3F0
61C618
61CC0C
61D806
61D806
73D806
52D806
52D806
52D806
52D806
52D806
52D806
52CC0C
5EC618
4CC330
4CE121
4CF123
4CDF3E
EDFE1E
ENDCHAR
STARTCHAR J2263
ENCODING 13250
SWIDTH 1059 0
DWIDTH 24 0
BBX 24 12 0 1
BITMAP
1E0DDC
631EEC
C30CCC
C30CCC
0F0CCC
330CCC
630CCC
C30CCC
C30CCC
C30CCC
C76CCD
7B6EDD
ENDCHAR
STARTCHAR J276c
ENCODING 13251
SWIDTH 1059 0
DWIDTH 24 0
BBX 22 23 1 -2
BITMAP
FE0000
618000
60C000
60C000
60C000
60C000
60C000
60C000
6183D8
7F0638
60CC18
606C18
606C18
606C18
606C18
606C18
606C18
606638
60C3D8
FF0018
000018
000018
00003C
ENDCHAR
STARTCHAR J2726
ENCODING 13252
SWIDTH 1059 0
DWIDTH 24 0
BBX 22 12 1 1
BITMAP
3E03E0
618618
C18C18
C00C00
C00C00
C00C00
C00C00
C00C00
C00C00
C0CC0C
618638
3E03E0
ENDCHAR
STARTCHAR J2760
ENCODING 13253
SWIDTH 1059 0
DWIDTH 24 0
BBX 22 20 1 1
BITMAP
000018
000038
000018
000018
000018
000018
000018
000018
3F07D8
61CC78
C0D818
C01818
C01818
C01818
C01818
C01818
C01818
C07818
61CC78
3F07DC
ENDCHAR
STARTCHAR J276f
ENCODING 13254
SWIDTH 1059 0
DWIDTH 24 0
BBX 24 24 0 -2
BITMAP
0000C0
3C0180
660300
C30600
C00C00
C01800
C03000
C36000
62C000
3DB000
01F000
0333C7
06319C
0C3336
183636
303C1C
603C30
C03E38
00371E
0033B7
0031E3
0079E3
00003F
00001E
ENDCHAR
STARTCHAR J2261
ENCODING 13255
SWIDTH 1059 0
DWIDTH 24 0
BBX 22 18 1 1
BITMAP
1F4000
31C000
60C000
604000
C04000
C00000
C007C0
C00C60
C01830
C01830
C01830
C01830
C01830
C05830
605830
60D830
318C6C
1F07CC
ENDCHAR
STARTCHAR J273c
ENCODING 13256
SWIDTH 1059 0
DWIDTH 24 0
BBX 23 20 0 1
BITMAP
00DFF0
01CC18
00CC0C
00CC0C
00CC0C
00CC0C
00CC0C
00CC0C
3ECC18
63CFF8
C0CC1C
C0CC06
C0CC06
C0CC06
C0CC06
C0CC06
C0CC06
C0CC06
63CC0C
3CDFF8
ENDCHAR
STARTCHAR J276d
ENCODING 13257
SWIDTH 1059 0
DWIDTH 24 0
BBX 24 23 0 -2
BITMAP
0FA000
306000
603000
601000
C00000
C00000
C00000
C00000
C00F0F
C00602
C00306
C00304
C0798C
C03188
C030D8
C030D0
C03070
607070
30B020
1F3060
000040
000340
000380
ENDCHAR
STARTCHAR J2735
ENCODING 13258
SWIDTH 1059 0
DWIDTH 24 0
BBX 22 20 1 1
BITMAP
600000
E00000
600000
600000
600000
600000
600000
600000
6387E0
6FDC30
78D830
60C030
60C0F0
60C730
60CC30
60D830
60D830
60D870
60DFF0
F1EF9C
ENDCHAR
STARTCHAR J2739
ENCODING 13263
SWIDTH 1059 0
DWIDTH 24 0
BBX 22 20 1 1
BITMAP
600000
E00000
600000
600000
600080
600080
600080
600180
63E7E0
618180
630180
660180
6C0180
7C0180
6E0180
670180
638180
61C18C
60E1F8
F9F0E0
ENDCHAR
STARTCHAR J276a
ENCODING 13264
SWIDTH 1059 0
DWIDTH 24 0
BBX 21 20 2 1
BITMAP
600000
E00000
600000
600000
600000
600000
600000
600000
60CC60
61DEF0
60E730
60C630
60C630
60C630
60C630
60C630
60C630
60C630
60C630
F1EF78
ENDCHAR
STARTCHAR J276b
ENCODING 13267
SWIDTH 1059 0
DWIDTH 24 0
BBX 19 20 2 1
BITMAP
600000
E00000
600000
600000
600000
600000
600000
600000
61E0E0
60C040
606080
603100
601A00
600C00
600C00
601600
602300
604180
6080C0
F1C1E0
ENDCHAR
STARTCHAR J275f
ENCODING 13270
SWIDTH 1059 0
DWIDTH 24 0
BBX 24 20 0 1
BITMAP
000006
00000E
000006
000006
000006
000006
000006
000006
6EE7E6
F76C36
666C36
666C36
666C36
666C36
666C36
666C36
666C36
666C36
666C36
F777EF
ENDCHAR
STARTCHAR J2264
ENCODING 13272
SWIDTH 1059 0
DWIDTH 24 0
BBX 24 12 0 1
BITMAP
6F0DDC
F19EEC
60CCCC
60CCCC
60CCCC
60CCCC
60CCCC
718CCC
6F0CCC
600CCC
60CCCD
F0DEDD
ENDCHAR
STARTCHAR J2764
ENCODING 13275
SWIDTH 1059 0
DWIDTH 24 0
BBX 20 12 2 1
BITMAP
3D0630
630EF0
C08700
C00600
700600
1C0600
070600
018600
018600
818600
730600
5E0F00
ENDCHAR
STARTCHAR J276e
ENCODING 13276
SWIDTH 1059 0
DWIDTH 24 0
BBX 22 20 1 1
BITMAP
1FA000
606000
C03000
C01000
C00000
C00000
E00000
700000
3C1E1C
0F0C08
03CC08
00E610
007610
003310
003310
0031A0
8031A0
C031E0
7060C0
5F80C0
ENDCHAR
STARTCHAR J2769
ENCODING 13277
SWIDTH 1059 0
DWIDTH 24 0
BBX 23 20 0 1
BITMAP
F79F00
630B00
630B00
630B00
630B00
630B00
631B00
631300
319378
31938C
319306
31B306
33A306
33A306
35A306
1CE306
18C306
18C306
18C3CC
18C370
ENDCHAR
STARTCHAR J6c69
ENCODING 19968
SWIDTH 1059 0
DWIDTH 24 0
BBX 22 3 1 8
BITMAP
000010
000038
FFFFFC
ENDCHAR
STARTCHAR J6f4b
ENCODING 19969
SWIDTH 1059 0
DWIDTH 24 0
BBX 22 21 1 -1
BITMAP
000018
FFFFFC
003000
003000
003000
003000
003000
003000
003000
003000
003000
003000
003000
003000
003000
003000
003000
003000
003000
03F000
006000
ENDCHAR
STARTCHAR J7652
ENCODING 19971
SWIDTH 1059 0
DWIDTH 24 0
BBX 22 21 1 0
BITMAP
01C000
018000
018000
018000
018000
018000
018038
01807C
0187C0
01FC00
0F8000
F18000
018000
018000
018008
018008
018008
018008
01800C
01FFFC
00FFF8
ENDCHAR
STARTCHAR J5832
ENCODING 19975
SWIDTH 1059 0
DWIDTH 24 0
BBX 22 21 1 -1
BITMAP
000018
FFFFFC
00C000
00C000
00C000
00C000
00C030
00FFF8
018030
018030
018030
018030
030030
030030
030030
060060
060060
0C0060
1800C0
300FC0
C00180
ENDCHAR
STARTCHAR J6d5b
ENCODING 19976
SWIDTH 1059 0
DWIDTH 24 0
BBX 22 22 1 -1
BITMAP
001C00
001800
001800
001810
001838
FFFFFC
001800
041800
041800
0E1800
1A1800
311800
019800
00D800
007800
003000
003800
006C00
00C600
018380
0600FC
380038
ENDCHAR
STARTCHAR J5f32
ENCODING 19977
SWIDTH 1059 0
DWIDTH 24 0
BBX 22 19 1 1
BITMAP
000020
000070
7FFFF8
000000
000000
000000
000000
000000
000040
0000E0
3FFFF0
000000
000000
000000
000000
000000
000010
000038
FFFFFC
ENDCHAR
STARTCHAR J5f3e
ENCODING 19978
SWIDTH 1059 0
DWIDTH 24 0
BBX 22 20 1 0
BITMAP
007000
006000
006000
006000
006000
006000
006000
006060
007FF0
006000
006000
006000
006000
006000
006000
006000
006000
006010
006038
FFFFFC
ENDCHAR
STARTCHAR J793b
ENCODING 19979
SWIDTH 1059 0
DWIDTH 24 0
BBX 22 22 1 -1
BITMAP
000010
000038
FFFFFC
003000
003000
003000
003000
003800
003600
003300
003180
0030C0
0030C0
003000
003000
003000
003000
003000
003000
003000
003000
003000
ENDCHAR
STARTCHAR J5c74
ENCODING 19981
SWIDTH 1059 0
DWIDTH 24 0
BBX 22 22 1 -1
BITMAP
000010
000038
FFFFFC
003000
003000
007000
007000
00F000
01B300
01B080
033060
063030
0C3018
18301C
30300C
C03000
003000
003000
003000
003000
003000
003000
ENDCHAR
STARTCHAR J7564
ENCODING 19985
SWIDTH 1059 0
DWIDTH 24 0
BBX 22 20 1 0
BITMAP
000180
3FFFC0
018180
018180
018180
018180
018180
018180
030180
030198
FFFFFC
030180
030180
030180
030180
060180
060180
060180
060198
FFFFFC
ENDCHAR
STARTCHAR J7326
ENCODING 19988
SWIDTH 1059 0
DWIDTH 24 0
BBX 22 20 1 0
BITMAP
0800C0
0FFFE0
0C00C0
0C00C0
0C00C0
0C00C0
0C00C0
0FFFC0
0C00C0
0C00C0
0C00C0
0C00C0
0C00C0
0FFFC0
0C00C0
0C00C0
0C00C0
0C00C0
0C00D8
FFFFFC
ENDCHAR
STARTCHAR J5d60
ENCODING 19989
SWIDTH 1059 0
DWIDTH 24 0
BBX 22 21 1 -1
BITMAP
000010
000038
FFFFFC
000C00
001800
003000
007800
00F600
01B180
0330C0
063060
0C3030
303018
C03018
003000
003000
003000
003000
003010
000038
FFFFFC
ENDCHAR
STARTCHAR J6126
ENCODING 19990
SWIDTH 1059 0
DWIDTH 24 0
BBX 22 22 1 -1
BITMAP
38E1C0
30C180
30C180
30C180
30C180
30C180
30C180
30C198
FFFFFC
30C180
30C180
30C180
30C180
30C180
30C180
30FF80
30C180
30C000
300000
300030
3FFFF8
300000
ENDCHAR
STARTCHAR J4e78
ENCODING 19992
SWIDTH 1059 0
DWIDTH 24 0
BBX 22 20 1 0
BITMAP
0000C0
0007E0
087C00
0F8000
0C0000
0C0000
0C0000
0C0030
0FFFF8
0C0300
0C0300
0C0300
0C0300
0C0300
0C0300
0C0300
0C0300
0C0300
0C0318
FFFFFC
ENDCHAR
STARTCHAR J5c30
ENCODING 19993
SWIDTH 1059 0
DWIDTH 24 0
BBX 22 21 1 -1
BITMAP
000018
FFFFFC
003000
003000
203030
3FFFF8
303030
303030
306830
306430
30C230
318330
3301B0
3C01B0
300030
300030
300030
300030
300030
3003F0
300060
ENDCHAR
STARTCHAR J632a
ENCODING 19998
SWIDTH 1059 0
DWIDTH 24 0
BBX 22 21 1 0
BITMAP
0000C0
0FFFE0
0001C0
000700
003C0C
00181C
019C30
7FDC60
019A80
019A00
031900
031900
061880
0C18C0
181860
30183C
C01818
01F800
003000
000018
7FFFFC
ENDCHAR
STARTCHAR J7169
ENCODING 20013
SWIDTH 1059 0
DWIDTH 24 0
BBX 21 22 2 -1
BITMAP
007000
006000
006000
006000
806030
FFFFF8
C06030
C06030
C06030
C06030
C06030
C06030
C06030
FFFFF0
C06030
006000
006000
006000
006000
006000
006000
006000
ENDCHAR
STARTCHAR J4d7a
ENCODING 20018
SWIDTH 1059 0
DWIDTH 24 0
BBX 21 22 2 -1
BITMAP
007000
406060
7FFFF0
606060
606060
606060
606060
7FFFE0
606060
006000
006000
806030
FFFFF8
C06030
C06030
C06030
C06030
C06030
FFFFF0
C06030
006000
006000
ENDCHAR
STARTCHAR J7c2f
ENCODING 20024
SWIDTH 1059 0
DWIDTH 24 0
BBX 22 22 1 -1
BITMAP
00E000
00C000
00C000
00C000
00C180
7FFFC0
00C180
00C180
06C180
01C180
00E180
00D180
019980
018D80
018D80
030180
030188
060188
0C018C
1801FC
3000F8
C00000
ENDCHAR
STARTCHAR J5321
ENCODING 20025
SWIDTH 1059 0
DWIDTH 24 0
BBX 22 22 1 -1
BITMAP
0800C0
0FFFE0
0C00C0
0C40C0
0C20C0
0C30C0
0C18C0
0C18C0
0C00D8
FFFFFC
0C00C0
0C00C0
0C00C0
0C00C0
0C00C0
0800C0
1800C0
1000C0
3000C0
2000C0
400FC0
800180
ENDCHAR
STARTCHAR J712b
ENCODING 20027
SWIDTH 1059 0
DWIDTH 24 0
BBX 22 21 1 0
BITMAP
008000
004000
006000
003000
003030
7FFFF8
003000
003000
003000
003000
003000
003060
3FFFF0
003000
003000
003000
003000
003000
003000
003018
FFFFFC
ENDCHAR
STARTCHAR J6751
ENCODING 20034
SWIDTH 1059 0
DWIDTH 24 0
BBX 22 21 1 -1
BITMAP
0800E0
1000C0
2800C0
6800C0
040180
040180
020300
030300
010600
018600
00CC00
00CC00
007800
003000
007800
00CC00
018600
030300
0601C0
18007C
E00018
ENDCHAR
STARTCHAR J522c
ENCODING 20035
SWIDTH 1059 0
DWIDTH 24 0
BBX 22 22 1 -1
BITMAP
000600
7FFF00
030600
030600
030600
030600
030C18
030FFC
030C18
030018
030018
060018
060018
060018
0C0018
0C0030
180030
100030
200060
400060
800FC0
000180
ENDCHAR
STARTCHAR J4e79
ENCODING 20037
SWIDTH 1059 0
DWIDTH 24 0
BBX 22 21 1 -1
BITMAP
018000
018180
03FFC0
030180
060300
060300
0C0600
080600
100C00
200C00
401800
003400
003400
006200
00C200
018100
030180
0600C0
0C0060
30003C
C00018
ENDCHAR
STARTCHAR J717d
ENCODING 20043
SWIDTH 1059 0
DWIDTH 24 0
BBX 22 22 1 -1
BITMAP
003800
003000
003000
003000
003060
3FFFF0
000060
0000C0
0000C0
000180
000300
000600
000C00
001800
003000
006000
018000
260000
380000
2C0000
67FFFC
C1FFF0
ENDCHAR
STARTCHAR J5e3f
ENCODING 20045
SWIDTH 1059 0
DWIDTH 24 0
BBX 22 22 1 -1
BITMAP
060000
060000
0C0000
0C0018
1FFFFC
306000
206000
406000
8060C0
007FE0
006000
006000
006000
006018
007FFC
006000
006000
006000
006000
006000
006000
006000
ENDCHAR
STARTCHAR J7b3a
ENCODING 20046
SWIDTH 1059 0
DWIDTH 24 0
BBX 22 22 1 -1
BITMAP
0000E0
000FF0
01FC00
3F3000
103060
083060
0C30C0
063080
063100
063200
003018
FFFFFC
003000
003000
003000
003000
003000
003000
003000
003000
01F000
006000
ENDCHAR
STARTCHAR J7939
ENCODING 20047
SWIDTH 1059 0
DWIDTH 24 0
BBX 22 22 1 -1
BITMAP
0001C0
0007E0
00FC00
3FB800
003000
003000
003030
3FFFF8
000030
000060
0000C0
000180
000300
000600
000C00
003800
006000
018000
260000
7C0000
4FFFFC
C3FFF0
ENDCHAR
STARTCHAR J4e52
ENCODING 20054
SWIDTH 1059 0
DWIDTH 24 0
BBX 22 22 1 -1
BITMAP
0001C0
001FE0
1FF000
003000
003018
FFFFFC
003000
03B380
033300
033308
03333C
FF33C0
033300
033300
033308
033308
0F3308
3B330C
E333FC
C331F8
003000
003000
ENDCHAR
STARTCHAR J632b
ENCODING 20056
SWIDTH 1059 0
DWIDTH 24 0
BBX 22 22 1 -1
BITMAP
0001C0
001FE0
1FF000
003000
003018
FFFFFC
003000
03B380
033320
7F33F8
033308
03330C
0F3BFC
F379F8
60F400
01B200
033300
063180
0C30C0
183070
30303C
C0300C
ENDCHAR
STARTCHAR J6b60
ENCODING 20057
SWIDTH 1059 0
DWIDTH 24 0
BBX 21 20 2 0
BITMAP
000300
7FFF80
000300
000600
000C00
001800
003000
006000
00C000
018000
030000
060000
0C0000
180010
300010
600010
C00010
C00018
7FFFF8
1FFFF0
ENDCHAR
STARTCHAR J4e7a
ENCODING 20061
SWIDTH 1059 0
DWIDTH 24 0
BBX 22 22 1 -1
BITMAP
007000
006000
006000
006000
006180
3FFFC0
006180
006180
006180
006180
00C180
00C180
00C180
018180
018180
030188
030188
060188
0C0188
18018C
3001FC
C000F8
ENDCHAR
STARTCHAR J4b77
ENCODING 20062
SWIDTH 1059 0
DWIDTH 24 0
BBX 22 21 1 0
BITMAP
060000
060000
0C0018
0FFFFC
180000
300000
200000
400300
9FFF80
000300
000600
001C00
003000
00E000
018000
070008
0C0008
180008
30000C
3FFFFC
1FFFF8
ENDCHAR
STARTCHAR J6525
ENCODING 20063
SWIDTH 1059 0
DWIDTH 24 0
BBX 22 22 1 -1
BITMAP
007000
006000
006000
1C6000
186060
1860F0
186760
187860
1BE060
FC6060
186060
186060
186060
186060
1860C0
186FC0
186188
186008
186008
18000C
1FFFFC
0FFFF8
ENDCHAR
STARTCHAR J4a61
ENCODING 20075
SWIDTH 1059 0
DWIDTH 24 0
BBX 22 22 1 -1
BITMAP
0E0000
0C0830
0CCFF8
7FEC30
0CCC30
0CCC30
18CC30
18CC30
31CFF0
6F8C30
830000
000000
7FFFF0
000070
0003C0
001E00
00F000
038008
0E0008
38000C
7FFFFC
3FFFF8
ENDCHAR
STARTCHAR J544c
ENCODING 20077
SWIDTH 1059 0
DWIDTH 24 0
BBX 22 21 1 0
BITMAP
000018
FFFFFC
018000
030000
060030
0FFFF8
360030
C60030
060030
060030
07FFF0
060030
000300
3FFF80
000E00
007800
01C008
0F0008
38000C
7FFFFC
3FFFF8
ENDCHAR
STARTCHAR J6a61
ENCODING 20083
SWIDTH 1059 0
DWIDTH 24 0
BBX 22 22 1 -1
BITMAP
006380
01F300
0F4300
343300
321B00
631B00
430300
806300
7FF300
006300
00C300
010300
070300
033B00
03C300
FF0308
630308
030308
030308
03030C
3F03FC
0601F8
ENDCHAR
STARTCHAR J5c63
ENCODING 20086
SWIDTH 1059 0
DWIDTH 24 0
BBX 22 22 1 -1
BITMAP
003900
003080
0030D8
FFFFFC
003000
203030
3FFFF8
303030
3FFFF0
303030
3FFFF0
303030
3031F0
303060
000180
7FFFC0
000F00
007808
01C008
07000C
0FFFFC
07FFF8
ENDCHAR
STARTCHAR J5f2d
ENCODING 20087
SWIDTH 1059 0
DWIDTH 24 0
BBX 22 22 1 -1
BITMAP
420700
220640
347630
84661C
4CC60C
798600
19061C
320630
F03E60
700CC0
380300
381C00
33E000
0000C0
FFFFE0
001F00
01F008
0F0008
780008
C0000C
FFFFFC
7FFFF8
ENDCHAR
STARTCHAR J4b6b
ENCODING 20094
SWIDTH 1059 0
DWIDTH 24 0
BBX 22 22 1 -1
BITMAP
070300
060300
066300
FFF600
060618
466FFC
7FE800
607000
606030
7FEFF8
606030
606060
7FE0C0
666180
060300
060300
066608
FFFC08
061808
06180C
061FFC
060FF8
ENDCHAR
STARTCHAR J552f
ENCODING 20098
SWIDTH 1059 0
DWIDTH 24 0
BBX 22 22 1 -1
BITMAP
018700
0FC600
788600
644600
426600
836600
FFC600
018600
130600
0E0600
866600
FFF600
CC6600
D16600
FFE600
C1E600
FF6608
D26608
CC6608
DA660C
E3E7FC
C0C3F8
ENDCHAR
STARTCHAR J5675
ENCODING 20102
SWIDTH 1059 0
DWIDTH 24 0
BBX 20 21 2 -1
BITMAP
000060
FFFFF0
0000E0
000180
000600
003800
003000
003000
003000
003000
003000
003000
003000
003000
003000
003000
003000
003000
003000
03F000
006000
ENDCHAR
STARTCHAR J6578
ENCODING 20104
SWIDTH 1059 0
DWIDTH 24 0
BBX 22 22 1 -1
BITMAP
000060
1FFFF0
000060
0080C0
004180
003200
001C00
000C0C
FFFFFC
001818
001830
001840
001880
001800
001800
001800
001800
001800
001800
001800
01F800
003000
ENDCHAR
STARTCHAR J5e40
ENCODING 20107
SWIDTH 1059 0
DWIDTH 24 0
BBX 22 22 1 -1
BITMAP
003800
003000
003018
FFFFFC
103020
1FFFF0
183060
183060
1FFFE0
183060
003010
7FFFF8
003030
003030
FFFFFC
003030
003030
7FFFF0
003030
003000
03F000
00E000
ENDCHAR
STARTCHAR J6c23
ENCODING 20108
SWIDTH 1059 0
DWIDTH 24 0
BBX 22 16 1 2
BITMAP
000040
0000E0
7FFFF0
000000
000000
000000
000000
000000
000000
000000
000000
000000
000000
000010
000038
FFFFFC
ENDCHAR
STARTCHAR J694d
ENCODING 20110
SWIDTH 1059 0
DWIDTH 24 0
BBX 22 21 1 -1
BITMAP
000030
7FFFF8
003000
003000
003000
003000
003000
003000
003018
FFFFFC
003000
003000
003000
003000
003000
003000
003000
003000
003000
07F000
00E000
ENDCHAR
STARTCHAR J6a27
ENCODING 20112
SWIDTH 1059 0
DWIDTH 24 0
BBX 22 21 1 -1
BITMAP
000180
0FFFC0
00C000
00C000
018000
018018
FFFFFC
030000
060000
060030
0FFFF8
0C0030
000030
000030
000060
000060
000060
0000C0
0000C0
001F80
000300
ENDCHAR
STARTCHAR J6976
ENCODING 20113
SWIDTH 1059 0
DWIDTH 24 0
BBX 22 20 1 0
BITMAP
000060
1FFFF0
000000
000000
000000
000000
000018
FFFFFC
00C000
00C000
018000
018200
030100
030080
020040
060060
0403F0
083C38
7FC018
1C0000
ENDCHAR
STARTCHAR J7b3b
ENCODING 20114
SWIDTH 1059 0
DWIDTH 24 0
BBX 22 20 1 0
BITMAP
000030
7FFFF8
030000
030000
030000
060180
07FFC0
060180
060180
060180
0C0180
0C0180
0C0300
0FFF00
180300
180300
000300
000600
000618
FFFFFC
ENDCHAR
STARTCHAR J6769
ENCODING 20116
SWIDTH 1059 0
DWIDTH 24 0
BBX 22 19 1 1
BITMAP
000060
3FFFF0
006000
006000
006000
006000
006000
006180
3FFFC0
00C180
00C180
00C180
00C180
00C180
018180
018180
018180
018198
FFFFFC
ENDCHAR
STARTCHAR J6f4c
ENCODING 20117
SWIDTH 1059 0
DWIDTH 24 0
BBX 22 22 1 -1
BITMAP
038380
030300
030300
030300
030330
7FFFF8
030300
030300
030300
030300
030300
030318
FFFFFC
030300
030300
030300
060300
060300
0C0300
180300
300300
C00300
ENDCHAR
STARTCHAR J5066
ENCODING 20120
SWIDTH 1059 0
DWIDTH 24 0
BBX 22 20 1 0
BITMAP
000030
7FFFF8
000000
000000
0800C0
0FFFE0
0C00C0
0C00C0
0C00C0
0C00C0
0FFFC0
0C00C0
0C00C0
0C00C0
0C00C0
0FFFC0
0C00C0
000000
000018
FFFFFC
ENDCHAR
STARTCHAR J5e41
ENCODING 20123
SWIDTH 1059 0
DWIDTH 24 0
BBX 22 22 1 -1
BITMAP
070E00
060C00
060C30
760C78
660DC0
664E00
67EC00
660C08
660C08
660C0C
67CFFC
FC07F8
600000
000000
0000C0
1FFFE0
000000
000000
000000
000000
000018
FFFFFC
ENDCHAR
STARTCHAR J642c
ENCODING 20126
SWIDTH 1059 0
DWIDTH 24 0
BBX 22 20 1 0
BITMAP
000018
FFFFFC
018600
018600
018600
218630
3F87F8
318630
300030
300030
300030
300030
318430
3FC7F0
318630
018600
018600
018600
018618
FFFFFC
ENDCHAR
STARTCHAR J584c
ENCODING 20129
SWIDTH 1059 0
DWIDTH 24 0
BBX 22 21 1 0
BITMAP
003800
003000
003000
003010
003038
FFFFFC
180000
180000
180000
180000
180000
180000
180000
180000
180000
180000
180000
180000
180000
1FFFF8
0FFFF0
ENDCHAR
STARTCHAR J7971
ENCODING 20130
SWIDTH 1059 0
DWIDTH 24 0
BBX 22 22 1 -1
BITMAP
003800
003000
003000
003018
FFFFFC
000000
000000
040180
07FFC0
060180
060180
060180
060180
060180
060180
060180
060188
0C0188
0C0188
18018C
3001FC
C000F8
ENDCHAR
STARTCHAR J4e5f
ENCODING 20132
SWIDTH 1059 0
DWIDTH 24 0
BBX 22 22 1 -1
BITMAP
003800
003000
003000
003018
FFFFFC
000000
030200
030180
0600C0
0C0360
1A0338
210618
410600
008C00
00D800
007000
007000
00D800
018C00
030700
0C01F8
700070
ENDCHAR
STARTCHAR J7a24
ENCODING 20133
SWIDTH 1059 0
DWIDTH 24 0
BBX 22 22 1 -1
BITMAP
003800
003000
003000
003018
FFFFFC
006000
006000
00C380
008300
0D0600
030C00
019800
00F0E0
0060C0
00C180
030300
0C0600
700D00
0030C0
00C060
070030
780030
ENDCHAR
STARTCHAR J6632
ENCODING 20134
SWIDTH 1059 0
DWIDTH 24 0
BBX 22 22 1 -1
BITMAP
003800
003000
003000
003000
003018
FFFFFC
00CC00
00CC00
0CCC00
0CCD00
0CCC80
18CC40
18CC20
318C30
218C18
630C0C
430C0C
860C00
0C0C00
180C00
307C00
C01800
ENDCHAR
STARTCHAR J7a7b
ENCODING 20136
SWIDTH 1059 0
DWIDTH 24 0
BBX 22 22 1 -1
BITMAP
003800
003000
003018
FFFFFC
000000
0800C0
0FFFE0
0C00C0
0C00C0
0FFFC0
0C00C0
000060
7FFFF0
0001C0
000600
003800
003000
003000
003000
003000
03F000
006000
ENDCHAR
STARTCHAR J7a3d
ENCODING 20139
SWIDTH 1059 0
DWIDTH 24 0
BBX 22 22 1 -1
BITMAP
003800
003018
FFFFFC
000000
100060
1FFFF0
180060
180060
1FFFE0
180060
000000
000060
7FFFF0
000380
003C00
003018
FFFFFC
003000
003000
003000
03F000
006000
ENDCHAR
STARTCHAR J4c48
ENCODING 20140
SWIDTH 1059 0
DWIDTH 24 0
BBX 22 22 1 -1
BITMAP
003800
003000
003018
FFFFFC
000000
100060
1FFFF0
180060
180060
180060
180060
180060
1FFFE0
183060
003000
063100
063080
0C3040
183060
303030
41F018
806018
ENDCHAR
STARTCHAR J6f4d
ENCODING 20141
SWIDTH 1059 0
DWIDTH 24 0
BBX 22 22 1 -1
BITMAP
003800
003018
FFFFFC
000000
0800C0
0FFFE0
0C00C0
0C00C0
0FFFC0
0C00C0
40000C
7FFFFC
400008
C000D0
DFFFE0
003000
003000
003000
003000
003000
01F000
006000
ENDCHAR
STARTCHAR J5555
ENCODING 20142
SWIDTH 1059 0
DWIDTH 24 0
BBX 22 22 1 -1
BITMAP
003800
003018
FFFFFC
000000
0800C0
0FFFE0
0C00C0
0C00C0
0FFFC0
0C00C0
40000C
7FFFFC
400008
C1C710
C18600
018600
018600
018608
030608
06060C
0C07FC
7003F8
ENDCHAR
STARTCHAR J5322
ENCODING 20150
SWIDTH 1059 0
DWIDTH 24 0
BBX 22 21 1 0
BITMAP
003800
003018
FFFFFC
000000
100060
1FFFF0
1A0360
1BFFE0
1B0360
1BFF60
1B0360
1FFFE0
100060
0800C0
0FFFE0
0C00C0
0FFFC0
0C00C0
0FFFC0
0C00D8
FFFFFC
ENDCHAR
STARTCHAR J6c51
ENCODING 20154
SWIDTH 1059 0
DWIDTH 24 0
BBX 22 21 1 -1
BITMAP
003800
003000
003000
003000
006000
006000
006000
006000
00D000
00D000
00C800
018800
018400
030600
030200
060300
060180
0C00C0
180060
30003C
C00018
ENDCHAR
STARTCHAR J6427
ENCODING 20160
SWIDTH 1059 0
DWIDTH 24 0
BBX 21 22 1 -1
BITMAP
0E0E00
0C0C00
0C0C00
180C00
180C00
180C00
300C00
300C00
700C30
77FFF8
B00C00
300C00
300C00
300C00
300C00
300C00
300C00
300C00
300C00
300C00
300C00
300C00
ENDCHAR
STARTCHAR J6c52
ENCODING 20161
SWIDTH 1059 0
DWIDTH 24 0
BBX 22 22 1 -1
BITMAP
070000
060000
060000
0C0000
0C0030
18FFF8
180000
380000
380000
580000
580000
980000
180000
180000
180000
180000
180000
180010
180038
1BFFFC
180000
180000
ENDCHAR
STARTCHAR J7631
ENCODING 20164
SWIDTH 1059 0
DWIDTH 24 0
BBX 22 21 1 -1
BITMAP
400018
7FFFFC
600000
600000
603800
603000
603000
603000
603000
603000
606800
606800
606C00
60C400
60C600
618200
618300
630180
4600C0
8C007C
B00038
ENDCHAR
STARTCHAR J4e7b
ENCODING 20167
SWIDTH 1059 0
DWIDTH 24 0
BBX 22 22 1 -1
BITMAP
0C3800
0C3000
183000
183000
1830C0
33FFE0
3030C0
7030C0
7030C0
B030C0
3030C0
3060C0
3060C0
3060C0
3060C0
3060C8
30C0C8
30C0C8
30C0C8
3180CC
3100FC
360078
ENDCHAR
STARTCHAR J5051
ENCODING 20170
SWIDTH 1059 0
DWIDTH 24 0
BBX 22 22 1 -1
BITMAP
003000
003800
006800
006400
00C600
018300
030180
0600C0
0C0660
1BFF30
30001C
C000CC
1FFFE0
0000C0
0000C0
000180
000180
000300
000300
000600
000400
000800
ENDCHAR
STARTCHAR J4b3f
ENCODING 20171
SWIDTH 1059 0
DWIDTH 24 0
BBX 22 22 1 -1
BITMAP
003000
003000
006800
00CC00
00C600
018300
030180
0600C0
0C0060
180030
33839C
C3030C
030300
030300
030300
030300
030300
060300
060300
0C0300
180300
E00300
ENDCHAR
STARTCHAR J6d24
ENCODING 20173
SWIDTH 1059 0
DWIDTH 24 0
BBX 22 22 1 -1
BITMAP
060180
06FFC0
0C3180
0C3180
183180
183180
383318
3833FC
583318
583018
983018
183018
183018
186018
186018
186018
18C018
18C030
188030
198060
1907C0
1A0180
ENDCHAR
STARTCHAR J6d28
ENCODING 20180
SWIDTH 1059 0
DWIDTH 24 0
BBX 22 22 1 -1
BITMAP
070000
060030
0CFFF8
0C0070
1800C0
180180
380600
380600
580600
580618
9BFFFC
180600
180600
180600
180600
180600
180600
180600
180600
180600
183E00
180C00
ENDCHAR
STARTCHAR J5e42
ENCODING 20181
SWIDTH 1059 0
DWIDTH 24 0
BBX 22 22 1 -1
BITMAP
060E00
060C00
0C0C00
0C0C00
180C00
180C00
300C18
3FFFFC
700C00
700C00
B00C00
300C00
300C00
300C00
300C00
300C00
300C00
300C00
300C00
300C30
33FFF8
300000
ENDCHAR
STARTCHAR J7662
ENCODING 20182
SWIDTH 1059 0
DWIDTH 24 0
BBX 22 22 1 -1
BITMAP
0E0E00
0C0C00
180C00
19CC00
198C30
318C78
318DB0
719E30
71EC30
BF8C30
B18C30
318C30
318C30
318C30
318DF0
318C60
318C08
318008
318008
31800C
31FFFC
30FFF8
ENDCHAR
STARTCHAR J6d5c
ENCODING 20183
SWIDTH 1059 0
DWIDTH 24 0
BBX 22 22 1 -1
BITMAP
070380
060300
060300
0C0300
0C0300
1C0318
19FFFC
380300
382300
786300
58A300
99B300
181300
181B00
180F00
180600
180700
180D80
1818E0
18303C
186018
198000
ENDCHAR
STARTCHAR J5c75
ENCODING 20184
SWIDTH 1059 0
DWIDTH 24 0
BBX 22 22 1 -1
BITMAP
0600E0
0600C0
0C00C0
0C00C0
1800C0
1800D8
3BFFFC
3800C0
7800C0
5880C0
9840C0
1860C0
1820C0
1830C0
1830C0
1800C0
1800C0
1800C0
1800C0
1800C0
180FC0
180180
ENDCHAR
STARTCHAR J6039
ENCODING 20185
SWIDTH 1059 0
DWIDTH 24 0
BBX 22 22 1 -1
BITMAP
0E0700
0C0600
180600
180600
180600
31C61C
318618
718618
718618
B18618
318618
318618
318618
318618
318618
318618
318618
318618
318618
31FFF8
318018
318018
ENDCHAR
STARTCHAR J544e
ENCODING 20189
SWIDTH 1059 0
DWIDTH 24 0
BBX 22 21 1 0
BITMAP
003000
003000
006800
006400
00C600
018300
030180
0600E0
0C003C
300018
C00180
0FFFC0
003000
003000
003000
003000
003000
003000
003000
003018
FFFFFC
ENDCHAR
STARTCHAR J7435
ENCODING 20191
SWIDTH 1059 0
DWIDTH 24 0
BBX 22 22 1 -1
BITMAP
0E00E0
0C07F0
0CFE00
180600
180600
300600
300600
700600
700618
B3FFFC
300600
300600
300600
300600
300600
300600
300600
300600
300600
300600
300600
300600
ENDCHAR
STARTCHAR J535b
ENCODING 20195
SWIDTH 1059 0
DWIDTH 24 0
BBX 22 22 1 -1
BITMAP
061C00
061800
0C1880
0C1840
181860
181860
381818
3FFFFC
381800
581800
581800
980C00
180C00
180C00
180600
180600
180308
180308
180188
1800CC
18007C
180018
ENDCHAR
STARTCHAR J5635
ENCODING 20196
SWIDTH 1059 0
DWIDTH 24 0
BBX 22 22 1 -1
BITMAP
003000
003000
006800
00C400
018600
030300
060180
0C00E0
18067C
37FF18
C00000
000000
000060
3FFFF0
00C060
00C060
00C060
00C060
00C7E0
00C0C0
00C000
00C000
ENDCHAR
STARTCHAR J6c24
ENCODING 20197
SWIDTH 1059 0
DWIDTH 24 0
BBX 22 22 1 -1
BITMAP
380070
300060
300060
300060
308060
304060
306060
306060
300060
300060
300060
300060
300060
3000C0
3000C0
3039C0
31C320
3E0610
F80C18
60180C
00600C
038000
ENDCHAR
STARTCHAR J6466
ENCODING 20208
SWIDTH 1059 0
DWIDTH 24 0
BBX 22 22 1 -1
BITMAP
0E0400
0C9E18
0CF3FC
18C318
18C318
18C318
38C318
38C318
38C318
58C318
58C318
98C318
18C318
18C318
18C318
18DFF8
1BE330
198300
180300
180300
180300
180300
ENDCHAR
ENDFONT
